<svg width="546" height="220" viewBox="0 0 546 220" fill="none" xmlns="http://www.w3.org/2000/svg">
<path d="M168.661 152.433C168.314 152.034 167.942 151.657 167.547 151.305C167.192 150.913 166.815 150.541 166.419 150.191C166.068 149.795 165.696 149.418 165.305 149.063C164.953 148.668 164.576 148.295 164.177 147.948C163.824 147.554 163.443 147.174 163.063 146.82C162.719 146.422 162.346 146.05 161.948 145.706C161.593 145.31 161.216 144.933 160.82 144.578C160.477 144.18 160.104 143.808 159.706 143.464C159.351 143.072 158.974 142.7 158.578 142.35C157.428 141.081 156.084 140.004 154.596 139.156V26.8526C154.596 26.2547 154.311 25.9557 154.311 25.3577C154.385 24.7479 154.281 24.1298 154.012 23.5775C154.012 23.2786 153.727 22.6806 153.727 22.3816C153.563 21.7707 153.359 21.1714 153.115 20.5878C152.801 20.2596 152.597 19.8416 152.531 19.392C152.189 18.8552 151.787 18.3583 151.335 17.9107C151.022 17.6117 150.737 17.0274 150.438 16.7148L149.242 15.519C149.242 15.3423 149.011 15.1521 148.753 15.0433L148.169 14.4454H148.101C148.101 14.2551 147.883 14.0785 147.625 13.9562L147.027 13.3718C147.027 13.1952 146.796 13.0049 146.538 12.8826L145.953 12.2983C145.953 12.108 145.722 11.9313 145.464 11.809L144.88 11.2111C144.88 11.0345 144.649 10.8442 144.391 10.7219L143.793 10.1375V10.0696C143.793 9.89292 143.562 9.71627 143.303 9.59397L142.719 8.99603H142.651C142.651 8.81936 142.434 8.62911 142.176 8.5068L141.578 7.92245V7.85452C141.578 7.67785 141.347 7.50118 141.088 7.37888L140.504 6.78094H140.436C140.436 6.59068 140.219 6.41402 139.96 6.29171L139.363 5.70738C139.363 5.53071 139.131 5.34045 138.873 5.23174L138.221 4.57945C138.221 4.28048 137.637 3.98151 137.324 3.98151C137.326 3.9429 137.32 3.90433 137.306 3.86812C137.293 3.83192 137.272 3.79883 137.245 3.77087C137.219 3.74292 137.187 3.72068 137.151 3.70549C137.116 3.69031 137.077 3.68249 137.039 3.68254C136.441 3.39716 136.128 3.0846 135.544 2.78563C135.03 2.41283 134.535 2.01369 134.063 1.58977C133.764 1.58977 133.166 1.30438 132.867 1.30438C132.269 1.00541 131.372 1.00542 131.073 0.692859C130.558 0.734794 130.041 0.636152 129.578 0.407471H124.523C124.168 0.63527 123.746 0.735895 123.327 0.692859C122.43 1.00542 121.846 1.00541 121.533 1.30438C120.949 1.30438 120.65 1.58976 120.337 2.20129C119.699 2.21616 119.08 2.41946 118.557 2.78563C118.272 3.0846 117.66 3.39716 117.361 3.68254C116.964 4.11799 116.45 4.42946 115.88 4.57945C115.657 5.02994 115.353 5.43539 114.983 5.77533C114.684 6.0743 114.684 6.35967 114.399 6.35967L3.68522 143.083C1.06718 146.227 -0.23959 150.258 0.0362366 154.34C0.312064 158.422 2.14929 162.24 5.16648 165.003C5.51578 165.414 5.89751 165.795 6.30799 166.145C6.64924 166.554 7.02674 166.931 7.43592 167.273C7.78522 167.683 8.16695 168.065 8.57743 168.414C8.92201 168.824 9.29922 169.206 9.70536 169.556C10.0548 169.962 10.4366 170.339 10.8469 170.684C11.1915 171.094 11.5687 171.476 11.9748 171.825C12.3243 172.231 12.706 172.608 13.1163 172.953C13.4609 173.363 13.8381 173.745 14.2442 174.095C14.5937 174.501 14.9755 174.878 15.3858 175.222C16.0885 176.021 16.8718 176.745 17.7232 177.383C20.5219 179.816 24.1413 181.094 27.8473 180.957H110.363V192.25C110.338 194.549 110.8 196.827 111.718 198.935C112.636 201.043 113.99 202.933 115.69 204.481C116.043 204.861 116.41 205.228 116.777 205.568C117.123 205.955 117.491 206.322 117.878 206.668C118.231 207.049 118.598 207.416 118.978 207.756C119.325 208.143 119.692 208.51 120.079 208.856C120.432 209.237 120.799 209.604 121.18 209.957C121.523 210.347 121.89 210.715 122.281 211.058C122.62 211.438 122.987 211.805 123.368 212.159C123.714 212.546 124.081 212.913 124.468 213.259C124.808 213.626 125.175 213.993 125.556 214.347C127.8 216.773 130.724 218.468 133.945 219.209C137.166 219.951 140.536 219.705 143.616 218.504C146.696 217.303 149.343 215.202 151.211 212.475C153.08 209.749 154.084 206.522 154.093 203.217V180.903H157.083C159.259 180.939 161.42 180.542 163.44 179.734C165.461 178.927 167.301 177.726 168.853 176.201C170.405 174.675 171.637 172.857 172.479 170.85C173.322 168.844 173.756 166.69 173.757 164.514C173.79 162.257 173.354 160.018 172.477 157.939C171.6 155.859 170.301 153.984 168.661 152.433ZM110.335 88.5624V136.723H71.5239L110.335 88.5624Z" fill="#00599F"/>
<path opacity="0.1" d="M168.661 152.433C168.314 152.034 167.942 151.657 167.547 151.305C167.192 150.913 166.815 150.541 166.419 150.191C166.068 149.795 165.696 149.418 165.305 149.063C164.953 148.668 164.576 148.295 164.177 147.948C163.824 147.554 163.443 147.174 163.063 146.82C162.719 146.422 162.346 146.05 161.948 145.706C161.593 145.31 161.216 144.933 160.82 144.578C160.477 144.18 160.104 143.808 159.706 143.464C159.351 143.072 158.974 142.7 158.578 142.35C157.428 141.081 156.084 140.004 154.596 139.156V26.8526C154.596 26.2547 154.311 25.9557 154.311 25.3577C154.385 24.7479 154.281 24.1298 154.012 23.5775C154.012 23.2786 153.727 22.6806 153.727 22.3816C153.563 21.7707 153.359 21.1714 153.115 20.5878C152.801 20.2596 152.597 19.8416 152.531 19.392C152.189 18.8552 151.787 18.3583 151.335 17.9107C151.022 17.6117 150.737 17.0274 150.438 16.7148L149.242 15.519C149.242 15.3423 149.011 15.1521 148.753 15.0433L148.169 14.4454H148.101C148.101 14.2551 147.883 14.0785 147.625 13.9562L147.027 13.3718C147.027 13.1952 146.796 13.0049 146.538 12.8826L145.953 12.2983C145.953 12.108 145.722 11.9313 145.464 11.809L144.88 11.2111C144.88 11.0345 144.649 10.8442 144.391 10.7219L143.793 10.1375V10.0696C143.793 9.89292 143.562 9.71627 143.303 9.59397L142.719 8.99603H142.651C142.651 8.81936 142.434 8.62911 142.176 8.5068L141.578 7.92245V7.85452C141.578 7.67785 141.347 7.50118 141.088 7.37888L140.504 6.78094H140.436C140.436 6.59068 140.219 6.41402 139.96 6.29171L139.363 5.70738C139.363 5.53071 139.131 5.34045 138.873 5.23174L138.221 4.57945C138.221 4.28048 137.637 3.98151 137.324 3.98151C137.326 3.9429 137.32 3.90433 137.306 3.86812C137.293 3.83192 137.272 3.79883 137.245 3.77087C137.219 3.74292 137.187 3.72068 137.151 3.70549C137.116 3.69031 137.077 3.68249 137.039 3.68254C136.441 3.39716 136.128 3.0846 135.544 2.78563C135.03 2.41283 134.535 2.01369 134.063 1.58977C133.764 1.58977 133.166 1.30438 132.867 1.30438C132.269 1.00541 131.372 1.00542 131.073 0.692859C130.558 0.734794 130.041 0.636152 129.578 0.407471H124.523C124.168 0.63527 123.746 0.735895 123.327 0.692859C122.43 1.00542 121.846 1.00541 121.533 1.30438C120.949 1.30438 120.65 1.58976 120.337 2.20129C119.699 2.21616 119.08 2.41946 118.557 2.78563C118.272 3.0846 117.66 3.39716 117.361 3.68254C116.964 4.11799 116.45 4.42946 115.88 4.57945C115.657 5.02994 115.353 5.43539 114.983 5.77533C114.684 6.0743 114.684 6.35967 114.399 6.35967L3.68522 143.083C1.06718 146.227 -0.23959 150.258 0.0362366 154.34C0.312064 158.422 2.14929 162.24 5.16648 165.003C5.51578 165.414 5.89751 165.795 6.30799 166.145C6.64924 166.554 7.02674 166.931 7.43592 167.273C7.78522 167.683 8.16695 168.065 8.57743 168.414C8.92201 168.824 9.29922 169.206 9.70536 169.556C10.0548 169.962 10.4366 170.339 10.8469 170.684C11.1915 171.094 11.5687 171.476 11.9748 171.825C12.3243 172.231 12.706 172.608 13.1163 172.953C13.4609 173.363 13.8381 173.745 14.2442 174.095C14.5937 174.501 14.9755 174.878 15.3858 175.222C16.0885 176.021 16.8718 176.745 17.7232 177.383C20.5219 179.816 24.1413 181.094 27.8473 180.957H110.363V192.25C110.338 194.549 110.8 196.827 111.718 198.935C112.636 201.043 113.99 202.933 115.69 204.481C116.043 204.861 116.41 205.228 116.777 205.568C117.123 205.955 117.491 206.322 117.878 206.668C118.231 207.049 118.598 207.416 118.978 207.756C119.325 208.143 119.692 208.51 120.079 208.856C120.432 209.237 120.799 209.604 121.18 209.957C121.523 210.347 121.89 210.715 122.281 211.058C122.62 211.438 122.987 211.805 123.368 212.159C123.714 212.546 124.081 212.913 124.468 213.259C124.808 213.626 125.175 213.993 125.556 214.347C127.8 216.773 130.724 218.468 133.945 219.209C137.166 219.951 140.536 219.705 143.616 218.504C146.696 217.303 149.343 215.202 151.211 212.475C153.08 209.749 154.084 206.522 154.093 203.217V180.903H157.083C159.259 180.939 161.42 180.542 163.44 179.734C165.461 178.927 167.301 177.726 168.853 176.201C170.405 174.675 171.637 172.857 172.479 170.85C173.322 168.844 173.756 166.69 173.757 164.514C173.79 162.257 173.354 160.018 172.477 157.939C171.6 155.859 170.301 153.984 168.661 152.433ZM110.335 88.5624V136.723H71.5239L110.335 88.5624Z" fill="black"/>
<path d="M162.764 153.153C162.763 155.33 162.328 157.485 161.485 159.493C160.642 161.5 159.408 163.319 157.855 164.845C156.301 166.37 154.46 167.571 152.438 168.378C150.415 169.184 148.253 169.58 146.076 169.542H143.1V192.196C143.1 196.543 141.373 200.711 138.3 203.785C135.226 206.858 131.058 208.585 126.711 208.585C122.365 208.585 118.196 206.858 115.122 203.785C112.049 200.711 110.322 196.543 110.322 192.196V169.542H16.4597C12.776 169.667 9.18212 168.39 6.40353 165.968C4.68197 164.674 3.24056 163.044 2.1663 161.177C1.09205 159.311 0.407249 157.246 0.153238 155.107C-0.100773 152.968 0.0812787 150.8 0.688401 148.733C1.29552 146.667 2.31512 144.745 3.68564 143.084L113.896 5.95218C114.195 5.95218 114.195 5.66682 114.494 5.36785C114.864 5.02791 115.168 4.62246 115.391 4.17197C115.963 4.01742 116.48 3.70687 116.886 3.27506C117.171 2.97609 117.769 2.67714 118.068 2.37817C118.592 2.00311 119.218 1.79474 119.862 1.78023C120.161 1.19588 120.46 0.8969 121.058 0.8969C121.343 0.597931 121.941 0.597938 122.838 0.29897C123.26 0.343707 123.683 0.237792 124.034 0H129.103C129.557 0.242817 130.072 0.346791 130.584 0.29897C130.883 0.597938 131.78 0.597931 132.378 0.8969C132.677 0.8969 133.275 1.19587 133.574 1.19587C134.158 1.78022 134.756 2.0792 135.055 2.37817C135.653 2.67714 135.952 2.97609 136.55 3.27506C136.629 3.27506 136.705 3.30656 136.761 3.36262C136.817 3.41869 136.849 3.49474 136.849 3.57403C137.148 3.57403 137.746 3.873 137.746 4.17197L138.928 5.36785C139.227 5.66682 139.526 6.25116 139.825 6.55013C140.281 6.99972 140.682 7.50147 141.021 8.04498C141.096 8.4946 141.304 8.9113 141.619 9.24083C141.864 9.81632 142.06 10.412 142.203 11.0211C142.203 11.32 142.502 11.918 142.502 12.2169C142.771 12.774 142.875 13.3965 142.801 14.0108C142.801 14.5951 143.1 14.8941 143.1 15.492V136.764H146.076C150.457 136.743 154.669 138.453 157.795 141.522C160.921 144.592 162.707 148.773 162.764 153.153ZM110.322 63.1639L51.0314 136.764H110.322V63.1639Z" fill="#00599F"/>
<path d="M337.075 44.4241C333.712 39.305 329.802 34.5662 325.416 30.291C325.254 30.1132 325.081 29.9453 324.899 29.7882L324.75 29.6387C324.614 29.4892 324.478 29.3397 324.329 29.2039C323.948 28.7962 323.54 28.4157 323.146 28.0216L323.038 27.9264L322.63 27.5188C322.584 27.4656 322.534 27.4157 322.48 27.3693C322.344 27.2198 322.209 27.0703 322.059 26.9344C321.679 26.5267 321.271 26.1462 320.877 25.7521L320.768 25.657L320.36 25.2493L320.211 25.0998C320.075 24.9503 319.939 24.8009 319.79 24.665C319.409 24.2573 319.001 23.8768 318.607 23.4827L318.499 23.3876L318.091 22.9799C318.091 22.9799 317.996 22.8712 317.941 22.8304C317.807 22.6754 317.662 22.5301 317.507 22.3955C317.14 21.9743 316.732 21.6074 316.338 21.2133L316.229 21.1181C316.104 20.9722 315.967 20.8359 315.822 20.7104C315.822 20.7104 315.726 20.6017 315.672 20.5609C303.7 8.22171 288.099 0.0544434 270.596 0.0544434C247.045 0.0544434 227.694 14.0652 215.164 33.1176C202.05 52.1429 195.215 76.9437 194.916 104.34C195.215 131.519 202.05 156.483 215.164 175.562C218.522 180.605 222.388 185.291 226.702 189.546L227.3 190.13V190.198L228.36 191.258C228.536 191.462 228.727 191.639 228.903 191.815L229.501 192.4L229.569 192.468L230.629 193.528L231.173 194.098L231.771 194.669C231.8 194.685 231.823 194.708 231.839 194.737L232.899 195.797L233.442 196.368L234.04 196.939C234.056 196.947 234.071 196.959 234.082 196.973C234.094 196.987 234.103 197.003 234.108 197.02L235.168 198.08L235.725 198.637L236.31 199.208L236.391 199.29L237.451 200.35C249.22 212.105 264.413 220 281.875 220C304.814 220 324.478 205.69 337.008 186.91C349.809 167.884 356.97 142.812 356.97 115.701C357.011 88.2365 349.877 63.5037 337.075 44.4241ZM298.305 157.04C289.662 169.841 279.823 175.508 270.596 175.508C264.918 175.371 259.423 173.471 254.873 170.072C254.451 169.529 254.044 168.958 253.636 168.36C245.292 155.844 239.326 136.778 239.326 115.619C239.326 94.1615 245.292 75.3945 253.636 62.6204C262.592 50.1045 272.661 44.1523 281.943 44.4377C287.323 44.4131 292.567 46.1292 296.891 49.3299C297.367 49.9686 297.829 50.5937 298.25 51.2596C306.594 64.0744 312.546 82.8415 312.546 104.258C312.601 125.417 306.649 144.511 298.305 157.04Z" fill="#00599F"/>
<path opacity="0.1" d="M337.075 44.4241C333.712 39.305 329.802 34.5662 325.416 30.291C325.254 30.1132 325.081 29.9453 324.899 29.7882L324.75 29.6387C324.614 29.4892 324.478 29.3397 324.329 29.2039C323.948 28.7962 323.54 28.4157 323.146 28.0216L323.038 27.9264L322.63 27.5188C322.584 27.4656 322.534 27.4157 322.48 27.3693C322.344 27.2198 322.209 27.0703 322.059 26.9344C321.679 26.5267 321.271 26.1462 320.877 25.7521L320.768 25.657L320.36 25.2493L320.211 25.0998C320.075 24.9503 319.939 24.8009 319.79 24.665C319.409 24.2573 319.001 23.8768 318.607 23.4827L318.499 23.3876L318.091 22.9799C318.091 22.9799 317.996 22.8712 317.941 22.8304C317.807 22.6754 317.662 22.5301 317.507 22.3955C317.14 21.9743 316.732 21.6074 316.338 21.2133L316.229 21.1181C316.104 20.9722 315.967 20.8359 315.822 20.7104C315.822 20.7104 315.726 20.6017 315.672 20.5609C303.7 8.22171 288.099 0.0544434 270.596 0.0544434C247.045 0.0544434 227.694 14.0652 215.164 33.1176C202.05 52.1429 195.215 76.9437 194.916 104.34C195.215 131.519 202.05 156.483 215.164 175.562C218.522 180.605 222.388 185.291 226.702 189.546L227.3 190.13V190.198L228.36 191.258C228.536 191.462 228.727 191.639 228.903 191.815L229.501 192.4L229.569 192.468L230.629 193.528L231.173 194.098L231.771 194.669C231.8 194.685 231.823 194.708 231.839 194.737L232.899 195.797L233.442 196.368L234.04 196.939C234.056 196.947 234.071 196.959 234.082 196.973C234.094 196.987 234.103 197.003 234.108 197.02L235.168 198.08L235.725 198.637L236.31 199.208L236.391 199.29L237.451 200.35C249.22 212.105 264.413 220 281.875 220C304.814 220 324.478 205.69 337.008 186.91C349.809 167.884 356.97 142.812 356.97 115.701C357.011 88.2365 349.877 63.5037 337.075 44.4241ZM298.305 157.04C289.662 169.841 279.823 175.508 270.596 175.508C264.918 175.371 259.423 173.471 254.873 170.072C254.451 169.529 254.044 168.958 253.636 168.36C245.292 155.844 239.326 136.778 239.326 115.619C239.326 94.1615 245.292 75.3945 253.636 62.6204C262.592 50.1045 272.661 44.1523 281.943 44.4377C287.323 44.4131 292.567 46.1292 296.891 49.3299C297.367 49.9686 297.829 50.5937 298.25 51.2596C306.594 64.0744 312.546 82.8415 312.546 104.258C312.601 125.417 306.649 144.511 298.305 157.04Z" fill="black"/>
<path d="M194.903 104.286C195.202 76.8756 202.065 52.1428 215.165 33.0768C227.681 14.0515 247.046 0 270.597 0C293.536 0 313.2 14.0108 325.716 33.0768C338.53 52.102 345.678 76.8756 345.678 104.286C345.678 131.465 338.53 156.442 325.716 175.508C313.2 194.275 293.536 208.585 270.597 208.585C247.046 208.585 227.681 194.275 215.165 175.508C202.092 156.442 195.202 131.41 194.903 104.286ZM312.602 104.286C312.602 82.8414 306.65 64.0608 298.306 51.2867C289.663 38.7708 279.838 32.8186 270.597 33.1175C261.356 32.8186 251.218 38.7708 242.29 51.2867C233.946 64.1015 227.98 82.8822 227.98 104.286C227.98 125.444 233.946 144.524 242.29 157.026C251.218 169.841 261.315 175.508 270.597 175.508C279.878 175.508 289.622 169.841 298.306 157.026C306.65 144.524 312.602 125.417 312.602 104.286Z" fill="#00599F"/>
<path d="M540.075 152.433C539.722 152.039 539.341 151.658 538.961 151.305C538.594 150.911 538.213 150.544 537.833 150.191C537.466 149.797 537.099 149.416 536.719 149.063C536.352 148.669 535.971 148.288 535.591 147.948C535.224 147.554 534.857 147.174 534.476 146.82C534.109 146.426 533.729 146.046 533.348 145.706C532.982 145.312 532.601 144.932 532.234 144.578C531.883 144.187 531.511 143.815 531.12 143.464C530.753 143.07 530.372 142.703 529.992 142.35C528.84 141.077 527.491 139.999 525.997 139.156V26.8526C525.997 26.2547 525.711 25.9557 525.711 25.3577C525.785 24.7479 525.681 24.1298 525.412 23.5775C525.412 23.2786 525.127 22.6806 525.127 22.3816C524.963 21.7707 524.759 21.1714 524.515 20.5878C524.207 20.2556 524.003 19.8395 523.931 19.392C523.593 18.8519 523.192 18.3546 522.735 17.9107C522.423 17.6117 522.137 17.0274 521.838 16.7148L520.642 15.519C520.642 15.3423 520.411 15.1521 520.153 15.0433L519.569 14.4454H519.501C519.501 14.2551 519.283 14.0785 519.025 13.9562L518.427 13.3718C518.427 13.1952 518.196 13.0049 517.938 12.8826L517.354 12.2983C517.354 12.108 517.123 11.9313 516.864 11.809L516.28 11.2111C516.28 11.0345 516.049 10.8442 515.791 10.7219L515.193 10.1375V10.0696C515.193 9.89292 514.962 9.71627 514.704 9.59397L514.119 8.99603H514.051C514.051 8.81936 513.834 8.62911 513.576 8.5068L512.978 7.92245V7.85452C512.978 7.67785 512.747 7.50118 512.489 7.37888L511.904 6.78094H511.836C511.836 6.59068 511.619 6.41402 511.361 6.29171L510.763 5.70738C510.763 5.53071 510.532 5.34045 510.273 5.23174L509.621 4.57945C509.621 4.28048 509.037 3.98151 508.724 3.98151C508.724 3.94225 508.717 3.90338 508.702 3.86711C508.687 3.83084 508.665 3.79787 508.637 3.77011C508.609 3.74234 508.576 3.72033 508.54 3.70531C508.503 3.69028 508.465 3.68254 508.425 3.68254C507.841 3.39716 507.528 3.0846 506.944 2.78563C506.43 2.41283 505.936 2.01369 505.463 1.58977C505.164 1.58977 504.566 1.30438 504.267 1.30438C503.669 1.00541 502.786 1.00542 502.473 0.692859C501.958 0.73618 501.441 0.637467 500.978 0.407471H495.923C495.568 0.63527 495.147 0.735895 494.727 0.692859C493.83 1.00542 493.246 1.00541 492.933 1.30438C492.349 1.30438 492.05 1.58976 491.737 2.20129C491.1 2.21776 490.481 2.42092 489.957 2.78563C489.672 3.0846 489.06 3.39716 488.775 3.68254C488.369 4.11435 487.852 4.4249 487.28 4.57945C487.053 5.02715 486.749 5.43183 486.383 5.77533C486.084 6.0743 486.084 6.35967 485.799 6.35967L375.058 143.083C372.44 146.227 371.133 150.258 371.409 154.34C371.685 158.422 373.522 162.24 376.54 165.003C376.889 165.414 377.271 165.795 377.681 166.145C378.022 166.554 378.4 166.931 378.809 167.273C379.158 167.683 379.54 168.065 379.95 168.414C381.09 169.544 382.222 170.681 383.348 171.825C384.113 172.572 384.87 173.329 385.617 174.095C385.967 174.501 386.349 174.878 386.759 175.222C387.462 176.021 388.245 176.745 389.096 177.383C391.895 179.816 395.514 181.094 399.22 180.957H481.736V192.25C481.711 194.549 482.173 196.827 483.091 198.935C484.009 201.043 485.363 202.933 487.063 204.481C487.416 204.875 487.797 205.242 488.163 205.581C488.503 205.962 488.87 206.315 489.251 206.668C489.601 207.056 489.973 207.423 490.365 207.769C490.718 208.15 491.072 208.503 491.452 208.856C491.805 209.25 492.186 209.617 492.566 209.971C492.92 210.351 493.273 210.718 493.654 211.058C494.007 211.452 494.387 211.819 494.768 212.172C495.121 212.553 495.475 212.92 495.855 213.259C496.201 213.651 496.569 214.023 496.956 214.374C499.201 216.801 502.126 218.496 505.349 219.237C508.571 219.978 511.942 219.731 515.023 218.529C518.103 217.326 520.75 215.223 522.617 212.494C524.485 209.765 525.487 206.537 525.494 203.23V180.903H528.483C530.661 180.941 532.824 180.545 534.847 179.739C536.87 178.932 538.712 177.732 540.267 176.206C541.821 174.681 543.056 172.862 543.901 170.854C544.745 168.847 545.182 166.692 545.185 164.514C545.216 162.256 544.778 160.017 543.898 157.937C543.019 155.857 541.717 153.983 540.075 152.433ZM481.736 88.5624V136.723H442.924L481.736 88.5624Z" fill="#00599F"/>
<path opacity="0.1" d="M540.075 152.433C539.722 152.039 539.341 151.658 538.961 151.305C538.594 150.911 538.213 150.544 537.833 150.191C537.466 149.797 537.099 149.416 536.719 149.063C536.352 148.669 535.971 148.288 535.591 147.948C535.224 147.554 534.857 147.174 534.476 146.82C534.109 146.426 533.729 146.046 533.348 145.706C532.982 145.312 532.601 144.932 532.234 144.578C531.883 144.187 531.511 143.815 531.12 143.464C530.753 143.07 530.372 142.703 529.992 142.35C528.84 141.077 527.491 139.999 525.997 139.156V26.8526C525.997 26.2547 525.711 25.9557 525.711 25.3577C525.785 24.7479 525.681 24.1298 525.412 23.5775C525.412 23.2786 525.127 22.6806 525.127 22.3816C524.963 21.7707 524.759 21.1714 524.515 20.5878C524.207 20.2556 524.003 19.8395 523.931 19.392C523.593 18.8519 523.192 18.3546 522.735 17.9107C522.423 17.6117 522.137 17.0274 521.838 16.7148L520.642 15.519C520.642 15.3423 520.411 15.1521 520.153 15.0433L519.569 14.4454H519.501C519.501 14.2551 519.283 14.0785 519.025 13.9562L518.427 13.3718C518.427 13.1952 518.196 13.0049 517.938 12.8826L517.354 12.2983C517.354 12.108 517.123 11.9313 516.864 11.809L516.28 11.2111C516.28 11.0345 516.049 10.8442 515.791 10.7219L515.193 10.1375V10.0696C515.193 9.89292 514.962 9.71627 514.704 9.59397L514.119 8.99603H514.051C514.051 8.81936 513.834 8.62911 513.576 8.5068L512.978 7.92245V7.85452C512.978 7.67785 512.747 7.50118 512.489 7.37888L511.904 6.78094H511.836C511.836 6.59068 511.619 6.41402 511.361 6.29171L510.763 5.70738C510.763 5.53071 510.532 5.34045 510.273 5.23174L509.621 4.57945C509.621 4.28048 509.037 3.98151 508.724 3.98151C508.724 3.94225 508.717 3.90338 508.702 3.86711C508.687 3.83084 508.665 3.79787 508.637 3.77011C508.609 3.74234 508.576 3.72033 508.54 3.70531C508.503 3.69028 508.465 3.68254 508.425 3.68254C507.841 3.39716 507.528 3.0846 506.944 2.78563C506.43 2.41283 505.936 2.01369 505.463 1.58977C505.164 1.58977 504.566 1.30438 504.267 1.30438C503.669 1.00541 502.786 1.00542 502.473 0.692859C501.958 0.73618 501.441 0.637467 500.978 0.407471H495.923C495.568 0.63527 495.147 0.735895 494.727 0.692859C493.83 1.00542 493.246 1.00541 492.933 1.30438C492.349 1.30438 492.05 1.58976 491.737 2.20129C491.1 2.21776 490.481 2.42092 489.957 2.78563C489.672 3.0846 489.06 3.39716 488.775 3.68254C488.369 4.11435 487.852 4.4249 487.28 4.57945C487.053 5.02715 486.749 5.43183 486.383 5.77533C486.084 6.0743 486.084 6.35967 485.799 6.35967L375.058 143.083C372.44 146.227 371.133 150.258 371.409 154.34C371.685 158.422 373.522 162.24 376.54 165.003C376.889 165.414 377.271 165.795 377.681 166.145C378.022 166.554 378.4 166.931 378.809 167.273C379.158 167.683 379.54 168.065 379.95 168.414C381.09 169.544 382.222 170.681 383.348 171.825C384.113 172.572 384.87 173.329 385.617 174.095C385.967 174.501 386.349 174.878 386.759 175.222C387.462 176.021 388.245 176.745 389.096 177.383C391.895 179.816 395.514 181.094 399.22 180.957H481.736V192.25C481.711 194.549 482.173 196.827 483.091 198.935C484.009 201.043 485.363 202.933 487.063 204.481C487.416 204.875 487.797 205.242 488.163 205.581C488.503 205.962 488.87 206.315 489.251 206.668C489.601 207.056 489.973 207.423 490.365 207.769C490.718 208.15 491.072 208.503 491.452 208.856C491.805 209.25 492.186 209.617 492.566 209.971C492.92 210.351 493.273 210.718 493.654 211.058C494.007 211.452 494.387 211.819 494.768 212.172C495.121 212.553 495.475 212.92 495.855 213.259C496.201 213.651 496.569 214.023 496.956 214.374C499.201 216.801 502.126 218.496 505.349 219.237C508.571 219.978 511.942 219.731 515.023 218.529C518.103 217.326 520.75 215.223 522.617 212.494C524.485 209.765 525.487 206.537 525.494 203.23V180.903H528.483C530.661 180.941 532.824 180.545 534.847 179.739C536.87 178.932 538.712 177.732 540.267 176.206C541.821 174.681 543.056 172.862 543.901 170.854C544.745 168.847 545.182 166.692 545.185 164.514C545.216 162.256 544.778 160.017 543.898 157.937C543.019 155.857 541.717 153.983 540.075 152.433ZM481.736 88.5624V136.723H442.924L481.736 88.5624Z" fill="black"/>
<path d="M534.164 153.153C534.163 155.33 533.728 157.485 532.885 159.493C532.042 161.5 530.808 163.319 529.255 164.845C527.702 166.37 525.86 167.571 523.838 168.378C521.816 169.184 519.653 169.58 517.477 169.542H514.5V192.196C514.5 196.543 512.774 200.711 509.7 203.785C506.627 206.858 502.458 208.585 498.111 208.585C493.765 208.585 489.596 206.858 486.523 203.785C483.449 200.711 481.723 196.543 481.723 192.196V169.542H387.86C384.153 169.685 380.532 168.406 377.736 165.968C376.006 164.674 374.558 163.041 373.479 161.17C372.399 159.298 371.712 157.227 371.457 155.082C371.203 152.936 371.388 150.762 372 148.69C372.612 146.618 373.639 144.692 375.018 143.029L485.297 5.95218C485.596 5.95218 485.596 5.66682 485.895 5.36785C486.265 5.02791 486.569 4.62246 486.791 4.17197C487.363 4.01742 487.881 3.70687 488.286 3.27506C488.585 2.97609 489.183 2.67714 489.482 2.37817C490 2.00108 490.622 1.79234 491.262 1.78023C491.561 1.19588 491.86 0.8969 492.445 0.8969C492.744 0.597931 493.342 0.597938 494.239 0.29897C494.66 0.343707 495.084 0.237792 495.434 0H500.503C500.957 0.242817 501.472 0.346791 501.985 0.29897C502.283 0.597938 503.18 0.597931 503.778 0.8969C504.077 0.8969 504.675 1.19587 504.974 1.19587C505.572 1.78022 506.156 2.0792 506.455 2.37817C507.053 2.67714 507.352 2.97609 507.95 3.27506C508.03 3.27506 508.106 3.30656 508.162 3.36262C508.218 3.41869 508.249 3.49474 508.249 3.57403C508.548 3.57403 509.133 3.873 509.133 4.17197L510.328 5.36785C510.627 5.66682 510.926 6.25116 511.225 6.55013C511.681 6.99972 512.083 7.50147 512.421 8.04498C512.496 8.4946 512.704 8.9113 513.019 9.24083C513.264 9.81804 513.464 10.4132 513.617 11.0211C513.617 11.32 513.902 11.918 513.902 12.2169C514.172 12.774 514.275 13.3965 514.201 14.0108C514.201 14.5951 514.5 14.8941 514.5 15.492V136.764H517.477C521.857 136.743 526.07 138.453 529.195 141.522C532.321 144.592 534.107 148.773 534.164 153.153ZM481.723 63.1639L422.432 136.764H481.723V63.1639Z" fill="#00599F"/>
</svg>
