<svg width="456" height="295" viewBox="0 0 456 295" fill="none" xmlns="http://www.w3.org/2000/svg">
<mask id="mask0_1482_1144" style="mask-type:alpha" maskUnits="userSpaceOnUse" x="0" y="0" width="910" height="295">
<rect width="910" height="295" fill="#D9D9D9"/>
</mask>
<g mask="url(#mask0_1482_1144)">
<path d="M178.261 133.821L177.6 135.032V136.904V138.887V140.649V153.423V155.295V157.277V159.039V171.703V173.575V175.557V177.429H177.38C176.279 177.759 171.654 179.191 170.553 182.384V183.816H171.654V186.128H170.553V188.331H171.654V190.643H170.553V255.394H170.332H165.818H161.303H156.788H152.273H147.868H147.758H142.362H140.71H139.058H127.495H125.954H125.844H124.302H120.448H116.263H93.1378H70.0125H65.8279H62.0837H60.3218H58.7801H47.1073H45.4555H43.8037H38.4078H33.8928H29.3779H24.8629H20.348H15.833V190.643H14.5115V188.331H15.833V186.128H14.5115V183.816H15.833C15.833 180.622 12.5294 178.86 10.4371 177.979H8.56503V177.429V175.557V173.575V171.703V159.039V157.277V155.295V153.423V140.649V138.887V136.904V135.032L7.9043 133.821H17.2646H17.9253V131.839V114.77V107.833V106.841V105.96C17.9253 101.996 14.6217 99.0228 14.6217 99.0228V98.3621V95.9395H15.5027V85.2577H14.6217V82.8351H17.1545V81.9541V63.7842V62.9032C17.1545 59.1591 14.6217 57.0668 14.6217 57.0668H15.5027V54.6442V43.8523H14.6217V41.4297H19.0265V32.62H17.5949V29.9771H17.7051C17.7051 29.9771 13.7407 22.7091 22.4403 19.4055C22.4403 19.4055 24.2022 18.3043 25.5236 16.9829C26.5147 15.9918 26.6249 15.4412 26.9552 15.331V14.6703H26.8451C26.8451 14.6703 26.6248 14.6703 26.6248 14.4501C26.6248 14.2298 26.735 14.2298 26.735 14.2298H26.9552V12.6881H26.8451C26.8451 12.6881 26.735 12.6881 26.735 12.4679C26.735 12.3578 26.8451 12.3578 26.8451 12.3578H26.9552V10.706C26.9552 10.5959 27.0653 10.4857 27.1754 10.4857C27.2856 10.4857 27.2856 10.5959 27.2856 10.706V12.3578H27.3957C27.3957 12.3578 27.5058 12.3578 27.5058 12.4679C27.5058 12.6881 27.3957 12.6881 27.3957 12.6881H27.2856V14.2298H27.5058C27.5058 14.2298 27.726 14.2298 27.726 14.4501C27.726 14.6703 27.5058 14.6703 27.5058 14.6703H27.2856V15.331C27.6159 15.4412 27.8362 15.9918 28.8273 16.9829C30.0386 18.3043 31.9107 19.4055 31.9107 19.4055C31.9107 19.4055 31.8739 19.4055 31.8005 19.4055C39.8393 22.599 37.0863 29.2063 36.6458 29.9771V32.62H35.2143V41.4297H39.6191V43.8523H38.7381V54.6442V57.0668H39.6191C39.6191 57.0668 37.0863 59.1591 37.0863 62.9032V63.7842V81.9541V82.8351H39.6191V85.2577H38.7381V95.9395H39.6191V98.3621V99.0228C39.6191 99.0228 36.4256 101.996 36.4256 105.96V106.841V107.833V114.77H36.9762H148.859H149.85V106.841V105.96C149.85 101.996 146.546 99.0228 146.546 99.0228V98.3621V95.9395H147.427V85.2577H146.546V82.8351H149.079V81.9541V63.7842V62.9032C149.079 59.1591 146.546 57.0668 146.546 57.0668H147.427V54.6442V43.8523H146.546V41.4297H150.951V32.62H149.52V29.9771C149.52 29.9771 145.665 22.7091 154.255 19.4055C154.255 19.4055 156.127 18.3043 157.448 16.9829C158.439 15.9918 158.55 15.4412 158.88 15.331V14.6703H158.77H158.66C158.66 14.6703 158.439 14.6703 158.439 14.4501C158.439 14.2298 158.66 14.2298 158.66 14.2298H158.88V12.6881H158.77C158.77 12.6881 158.66 12.6881 158.66 12.4679C158.66 12.3578 158.77 12.3578 158.77 12.3578H158.88V10.706C158.88 10.5959 158.88 10.4857 158.99 10.4857C159.063 10.4857 159.1 10.4857 159.1 10.4857C159.21 10.4857 159.21 10.5959 159.21 10.706V12.3578H159.32C159.32 12.3578 159.431 12.3578 159.431 12.4679C159.431 12.6881 159.32 12.6881 159.32 12.6881H159.21V14.2298H159.431C159.431 14.2298 159.651 14.2298 159.651 14.4501C159.651 14.6703 159.431 14.6703 159.431 14.6703H159.21V15.331C159.541 15.4412 159.761 15.9918 160.752 16.9829C161.963 18.3043 163.835 19.4055 163.835 19.4055C169.672 21.6079 169.782 25.6824 169.231 27.9949C169.011 28.986 168.681 29.7569 168.571 29.9771V32.62H167.139V41.4297H171.544V43.8523H170.663V54.6442V57.0668H171.544C171.544 57.0668 169.011 59.1591 169.011 62.9032V63.7842V81.9541V82.8351H171.544V85.2577H170.663V95.9395H171.544V98.3621V99.0228C171.544 99.0228 168.24 101.996 168.24 105.96V106.841V107.833V131.839V133.821H169.011H178.261Z" fill="#CCDEEC"/>
<path d="M458.298 178.53C458.298 178.53 458.518 180.622 456.096 181.283C456.096 181.283 457.087 183.596 454.664 184.256C454.664 184.256 454.994 187.89 452.352 187.89V259.139H430.878H425.923H420.086H417.113H415.902H410.506H398.062H395.199H389.252H388.041H353.353H352.582H349.389C349.389 255.615 351.371 255.615 351.371 255.615V221.918C349.499 221.918 349.389 220.486 349.389 218.834H350.38V218.724H347.737C346.636 218.724 346.856 217.183 346.856 217.183C345.975 217.183 346.085 215.641 346.085 215.641H347.847C346.525 190.093 324.391 186.459 324.391 186.459C324.391 186.459 302.147 190.093 300.935 215.641H302.697C302.697 215.641 302.807 217.183 301.816 217.183C301.816 217.183 302.037 218.724 301.046 218.724H296.641V218.834H299.284C299.284 220.486 299.173 221.918 297.301 221.918V255.615C297.301 255.615 299.284 255.615 299.284 259.139H296.641H296.09H260.631H259.42H253.583H250.61H238.167H232.771H231.559H228.696H222.75H217.133H196.321V187.89C193.678 187.89 194.118 184.256 194.118 184.256C191.585 183.596 192.687 181.283 192.687 181.283C190.154 180.622 190.374 178.53 190.374 178.53L187.621 175.116H196.321V174.015H197.752V171.152H195.219V157.717L192.907 153.202H196.651V149.458H197.752V145.934V142.08H260.301H266.468H269V140.098H270.542V126.773L267.569 122.699H270.542V119.946H269.991C269.441 119.946 269 119.505 269 118.955C269 118.404 269.441 117.964 269.991 117.964H270.542V113.559V102.106C269.441 102.106 268.56 101.225 268.56 100.124C268.56 99.133 269.441 98.2521 270.542 98.2521V96.9306C270.542 92.8561 278.361 83.2756 278.361 83.2756C278.361 83.2756 286.289 92.8561 286.289 96.9306V98.2521C287.28 98.2521 288.161 99.133 288.161 100.124C288.161 101.225 287.28 102.106 286.289 102.106V113.559H289.923H358.749H362.493V102.106C361.392 102.106 360.511 101.225 360.511 100.124C360.511 99.133 361.392 98.2521 362.493 98.2521V96.9306C362.493 92.8561 370.312 83.2756 370.312 83.2756C370.312 83.2756 378.24 92.8561 378.24 96.9306V98.2521C379.231 98.2521 380.112 99.133 380.112 100.124C380.112 101.225 379.231 102.106 378.24 102.106V113.559V117.964H378.681C379.231 117.964 379.672 118.404 379.672 118.955C379.672 119.505 379.231 119.946 378.681 119.946H378.24V122.699H381.103L378.24 126.773V140.098H379.672V142.08H382.645H390.133H451.36V145.934V149.458H452.572V153.202H456.316L454.003 157.717V171.152H451.36V174.015H452.352V175.116H461.051L458.298 178.53Z" fill="#CCDEEC"/>
<path d="M451.47 94.0685C450.149 94.0685 449.048 92.8572 449.048 91.5357C449.048 90.2143 450.039 89.1131 451.25 89.003C450.59 88.8928 450.039 88.2321 450.039 87.5714C450.039 86.8005 450.59 86.1398 451.25 86.0297V84.488C450.81 84.488 450.259 84.2678 449.929 83.8273C449.488 83.4969 449.268 82.9463 449.268 82.2856C449.268 82.1755 449.378 82.0653 449.488 82.0653C449.598 82.0653 449.709 82.1755 449.709 82.2856C449.709 82.8362 449.929 83.1666 450.259 83.4969C450.553 83.7906 450.883 83.9741 451.25 84.0475V81.9552C451.25 81.8451 451.36 81.735 451.47 81.735C451.691 81.735 451.801 81.8451 451.801 81.9552V84.0475C452.095 83.9741 452.388 83.7906 452.682 83.4969C453.012 83.1666 453.122 82.8362 453.122 82.2856C453.122 82.1755 453.232 82.0653 453.343 82.0653C453.453 82.0653 453.563 82.1755 453.563 82.2856C453.563 82.9463 453.343 83.4969 453.012 83.8273C452.645 84.1943 452.241 84.4146 451.801 84.488V86.0297C452.462 86.1398 453.012 86.8005 453.012 87.4612C453.012 88.2321 452.462 88.8928 451.801 89.003C451.801 89.003 451.764 89.003 451.691 89.003C453.012 89.1131 454.003 90.2143 454.003 91.5357C454.003 92.8572 452.902 94.0685 451.47 94.0685Z" fill="url(#paint0_linear_1482_1144)"/>
<path fill-rule="evenodd" clip-rule="evenodd" d="M594.076 255.065L308.974 255.286V251.321L502.236 251.211L314.7 251.321V243.503H319.876L320.206 226.985H319.655C319.105 226.985 318.664 226.544 318.664 226.104V225.993C318.664 225.443 319.105 225.002 319.655 225.002H320.206L320.757 198.573H320.206C319.655 198.573 319.215 198.133 319.215 197.582V197.472C319.215 196.922 319.655 196.481 320.206 196.481H320.867L321.527 166.418H327.694H320.646C320.206 166.418 319.765 165.978 319.765 165.537C319.765 165.097 320.206 164.766 320.646 164.766L324.501 164.656H321.858H321.307V158.93V155.847C321.307 153.864 322.188 152.213 323.51 151.001C323.436 150.928 323.399 150.818 323.399 150.671C323.399 150.451 323.62 150.23 323.84 150.23H324.611C325.418 149.79 326.299 149.533 327.254 149.46V145.605C327.254 145.275 327.364 145.055 327.694 145.055C327.914 145.055 328.135 145.275 328.135 145.605V149.46C329.089 149.533 329.933 149.79 330.667 150.23H331.438C331.658 150.23 331.879 150.451 331.879 150.671C331.879 150.818 331.842 150.928 331.769 151.001C333.2 152.213 333.971 153.864 333.971 155.847V158.93V164.656H334.742C335.182 164.656 335.513 165.097 335.513 165.537C335.513 165.978 335.182 166.418 334.742 166.418H333.861L334.522 196.481H335.182C335.733 196.481 336.173 196.922 336.173 197.472V197.582C336.173 198.133 335.733 198.463 335.182 198.463H334.632L335.182 225.002H335.843C336.284 225.002 336.724 225.443 336.724 225.993V226.104C336.724 226.544 336.284 226.985 335.843 226.985H335.292L335.623 243.503H344.763L344.983 229.848H344.543C344.102 229.848 343.772 229.407 343.772 229.077V228.967C343.772 228.526 344.102 228.196 344.543 228.196H344.983L345.534 206.172H344.983C344.543 206.172 344.212 205.841 344.212 205.401V205.291C344.212 204.85 344.543 204.52 344.983 204.52H345.534L346.084 179.522H345.424C344.983 179.522 344.653 179.192 344.653 178.862C344.653 178.421 344.983 178.091 345.313 178.091H346.084H345.974V170.713C345.974 169.171 346.635 167.74 347.736 166.859C347.663 166.785 347.626 166.675 347.626 166.528C347.626 166.308 347.736 166.088 348.067 166.088H348.837C349.425 165.794 350.049 165.611 350.709 165.537V162.234C350.709 162.013 350.93 161.793 351.15 161.793C351.48 161.793 351.7 162.013 351.7 162.234V165.537C352.361 165.611 352.985 165.794 353.573 166.088H354.343C354.564 166.088 354.784 166.198 354.784 166.528C354.784 166.602 354.747 166.675 354.674 166.748C355.775 167.74 356.436 169.171 356.436 170.713V173.246V178.091H357.096C357.427 178.091 357.757 178.421 357.757 178.862C357.757 179.192 357.427 179.522 357.096 179.522H351.26H356.326L356.876 204.52H357.427C357.867 204.52 358.198 204.85 358.198 205.291V205.401C358.198 205.841 357.867 206.172 357.427 206.172H356.986L357.427 228.196L357.977 228.086C358.418 228.086 358.748 228.526 358.748 228.967C358.748 229.407 358.418 229.848 357.977 229.848H357.427L357.757 243.503H366.457V169.501H365.576C365.135 169.501 364.805 168.841 365.025 168.51C365.245 168.18 365.576 167.85 366.016 167.629C366.347 167.409 366.677 166.418 366.897 166.308C367.117 166.088 367.448 166.088 367.668 166.308C367.888 166.418 368.108 167.409 368.549 167.629C368.989 167.85 369.32 168.18 369.54 168.51C369.76 168.841 369.43 169.501 368.989 169.501H368.109V178.752H385.618L385.508 165.537H384.737C384.186 165.537 383.856 164.987 384.186 164.546C384.406 164.216 384.627 163.995 385.067 163.665C385.508 163.445 385.838 162.454 386.058 162.344C386.278 162.123 386.609 162.123 386.829 162.344C386.939 162.454 387.27 163.445 387.71 163.665C388.15 163.885 388.371 164.216 388.591 164.546C388.921 164.987 388.591 165.537 388.04 165.537H387.27V178.752H392.335V161.573C392.335 157.719 394.207 154.305 396.96 151.992C396.887 151.919 396.85 151.845 396.85 151.772C396.85 151.442 397.07 151.221 397.291 151.221H398.061C399.823 150.12 401.916 149.46 404.118 149.349V143.513C404.118 143.183 404.338 143.072 404.558 143.072C404.889 143.072 404.999 143.183 404.999 143.513L405.109 149.349C405.036 149.349 404.999 149.349 404.999 149.349C407.312 149.46 409.404 150.12 411.166 151.221H411.937C412.157 151.221 412.377 151.442 412.377 151.772C412.377 151.845 412.34 151.956 412.267 152.102C414.69 153.974 416.341 156.838 416.672 160.031V157.388V152.543V150.671H478.78H416.672C416.672 150.671 406.431 135.364 429.005 118.185C432.749 115.322 435.833 112.899 438.476 110.587C443.541 106.072 446.294 103.209 447.175 102.218C449.378 99.6849 450.369 97.923 450.919 96.9319C450.369 96.7116 450.038 96.161 450.038 95.5003C450.038 94.7295 450.699 94.0687 451.47 94.0687C452.351 94.0687 453.012 94.7295 453.012 95.5003C453.012 96.161 452.571 96.8218 451.91 96.9319C452.461 97.923 453.342 99.5748 455.324 101.887C455.324 101.887 459.839 106.733 464.574 110.697H464.464C467.107 112.899 470.08 115.432 473.824 118.185C496.509 135.364 486.268 150.671 486.268 150.671H486.488V152.543V157.278V161.463C486.488 157.608 488.36 154.195 491.113 151.992C491.04 151.919 491.003 151.809 491.003 151.662C491.003 151.442 491.224 151.221 491.444 151.221H492.215C493.977 150.12 496.069 149.349 498.271 149.349C498.271 149.349 498.271 149.313 498.271 149.239V143.403C498.271 143.183 498.492 142.962 498.712 142.962C498.932 142.962 499.152 143.183 499.152 143.403V149.239C499.152 149.313 499.152 149.349 499.152 149.349C501.465 149.349 503.557 150.12 505.319 151.221H506.09C506.31 151.221 506.53 151.442 506.53 151.662C506.53 151.809 506.494 151.919 506.42 151.992C509.173 154.195 510.935 157.608 510.935 161.463V178.642H515.891V165.427H515.12C514.569 165.427 514.239 164.876 514.569 164.436C514.789 164.106 515.01 163.885 515.45 163.665C515.891 163.335 516.221 162.454 516.441 162.234C516.661 162.123 516.882 162.123 517.212 162.234C517.322 162.454 517.653 163.335 518.093 163.665C518.533 163.885 518.754 164.106 518.974 164.436C519.304 164.876 518.974 165.427 518.423 165.427H517.653V178.642H535.052V169.391H534.281C533.73 169.391 533.4 168.841 533.73 168.4C533.84 168.07 534.171 167.74 534.611 167.519C535.052 167.299 535.272 166.308 535.492 166.198C535.712 165.978 536.043 165.978 536.263 166.198C536.483 166.308 536.814 167.299 537.254 167.519C537.695 167.74 537.915 168.07 538.135 168.4C538.355 168.731 538.135 169.391 537.584 169.391H536.703L536.814 243.393H535.162H532.299H588.35V251.211H594.076V255.065ZM486.488 161.463V164.546V161.353C486.488 161.426 486.488 161.463 486.488 161.463ZM346.084 178.091H346.745H346.084ZM346.745 178.091H348.837H348.727H346.745ZM325.161 164.656H325.271H327.804H325.161ZM486.488 164.546V178.642V164.546ZM405.66 178.642H404.338H403.017H405.66ZM416.672 178.642H413.809H415.35H416.672ZM413.809 178.642H413.368H410.175H413.809ZM490.563 243.282H486.488H472.393H490.563ZM493.426 178.642H492.215H493.426ZM511.816 243.282H520.406H517.542H515.781H511.816ZM501.905 178.531H503.557H501.905Z" fill="url(#paint1_linear_1482_1144)"/>
<path d="M294.548 197.802V200.114H292.346L288.161 203.198V255.285H267.348H266.137V239.758C266.137 239.758 266.137 239.758 265.586 239.097C265.586 228.525 261.292 227.094 260.19 226.874C259.089 227.094 254.794 228.525 254.794 239.097C254.244 239.758 254.244 239.758 254.244 239.758V255.285H253.032H239.598V255.505H237.065H225.392V255.285H223.08H220.987V254.734V223.46C220.987 223.46 220.987 223.46 219.556 222.138C219.556 213.439 217.794 207.713 215.371 204.079C214.27 202.317 213.059 201.105 211.957 200.114C211.737 199.967 211.554 199.857 211.407 199.784C210.085 198.683 208.764 198.132 207.773 197.802H203.919C202.817 198.132 201.496 198.793 200.174 199.784C200.028 199.857 199.881 199.967 199.734 200.114C198.523 201.105 197.311 202.317 196.21 204.079C193.898 207.713 192.025 213.439 192.025 222.138C190.704 223.46 190.704 223.46 190.704 223.46V254.734V255.285H188.502H186.299V255.505H172.094V255.285H158.659H157.448V239.758C157.448 239.758 157.448 239.758 156.897 239.097C156.897 228.525 152.492 227.094 151.501 226.874C150.4 227.094 146.105 228.525 146.105 239.097C145.554 239.758 145.554 239.758 145.554 239.758V255.285H144.343H123.53V204.079H121.438L118.465 199.674C118.538 199.674 118.832 199.674 119.346 199.674L117.033 197.802H123.53V185.799H121.548L123.42 182.054H123.53V178.751V175.007H172.094V162.783H169.01L171.543 160.251H172.094V153.093V139.548H171.983L171.433 137.456H172.094C172.534 134.042 173.966 130.848 175.728 128.536C176.388 127.728 177.086 127.031 177.82 126.443C177.379 126.113 177.049 125.452 177.049 124.792C177.049 123.801 177.71 122.92 178.591 122.699V120.056C178.591 119.726 178.921 119.506 179.141 119.506C179.472 119.506 179.692 119.726 179.692 120.056V122.699C180.683 122.92 181.344 123.801 181.344 124.792C181.344 125.452 181.013 126.113 180.463 126.554C183.216 128.646 185.638 132.72 186.189 137.456H186.96L186.299 139.548V140.319V153.093V155.625H225.392V153.093V139.548H225.282L224.731 137.456H225.502C226.053 132.72 228.586 128.426 231.228 126.443C230.678 126.113 230.348 125.452 230.348 124.792C230.348 123.801 230.898 123.03 231.779 122.699C231.852 122.699 231.926 122.699 231.999 122.699V120.056C231.999 119.726 232.22 119.506 232.55 119.506C232.77 119.506 233.101 119.726 233.101 120.056V122.699C233.981 122.92 234.642 123.801 234.642 124.792C234.642 125.452 234.312 126.113 233.761 126.554C236.514 128.646 238.937 132.72 239.488 137.456H240.258L239.598 139.548V153.093V160.251H240.038L242.571 162.783H239.598V175.007H288.161V178.751V182.054L290.143 185.799H288.161V197.802H294.548Z" fill="url(#paint2_linear_1482_1144)"/>
<path d="M921 310H-0.766352V262.879C-0.766352 254.124 -2.83865 255.026 5.35991 255.026H906.16C914.358 255.026 921 262.12 921 270.876V310Z" fill="url(#paint3_linear_1482_1144)"/>
<path d="M94.7892 169.28C94.4955 169.647 94.2019 170.014 93.9082 170.381C94.1284 169.94 94.4588 169.61 94.7892 169.28Z" fill="url(#paint4_linear_1482_1144)"/>
<path d="M110.646 199.233C110.646 199.453 110.683 199.673 110.757 199.893C110.683 199.673 110.646 199.453 110.646 199.233Z" fill="url(#paint5_linear_1482_1144)"/>
<path fill-rule="evenodd" clip-rule="evenodd" d="M66.0474 201.325C66.9284 199.783 68.0296 198.462 69.3511 197.361C70.4523 196.48 71.6636 195.599 73.0952 195.268C73.5357 194.681 74.0495 194.204 74.6369 193.837C74.6369 193.69 74.6369 193.543 74.6369 193.396C74.123 193.617 73.6091 193.874 73.0952 194.167C72.9483 194.534 72.8015 194.901 72.6547 195.268C72.6547 194.975 72.6914 194.644 72.7648 194.277C72.2509 194.571 71.737 194.865 71.2231 195.158C71.6636 194.718 72.1775 194.314 72.7648 193.947C72.9117 193.653 73.0218 193.36 73.0952 193.066C72.361 193.286 71.6636 193.617 71.0029 194.057C71.5535 193.396 72.4345 192.956 73.2053 192.625C73.2787 192.479 73.3521 192.332 73.4255 192.185C73.0585 192.258 72.7281 192.369 72.4344 192.515C71.4434 193.396 70.3421 194.057 69.1308 194.387C70.7826 193.506 71.994 191.855 72.7648 190.203C73.0952 189.652 73.3154 188.992 73.7559 188.441C73.2053 188.992 72.8749 189.542 72.4344 190.093C71.113 191.745 69.241 192.846 67.2588 193.176C68.2499 192.956 69.0207 192.185 69.7915 191.304C70.5991 190.423 71.4067 189.505 72.2142 188.551C72.2876 188.478 72.3243 188.404 72.3243 188.331C72.1041 188.624 71.8839 188.918 71.6636 189.212C70.0118 190.864 67.8094 191.745 65.4968 192.185C66.7082 191.855 67.6992 190.974 68.5802 190.093C69.4612 189.212 70.232 188.221 71.2231 187.34C70.0118 188.221 68.6904 189.102 67.2588 189.652C66.0475 190.203 64.8361 190.533 63.845 191.194C64.726 190.533 65.4968 189.652 66.3778 188.881C67.2588 188 68.4701 187.23 69.6814 187.23C67.5891 187.23 65.2766 187.34 63.5146 188.661C65.9373 186.569 69.3511 185.798 72.4344 186.569C70.6725 185.798 68.6903 186.018 66.8183 186.128C69.0207 185.468 71.4434 185.358 73.7559 185.798C74.3065 185.468 74.747 184.917 74.9672 184.256C74.9672 184.183 74.9672 184.073 74.9672 183.926C74.747 184.146 74.49 184.366 74.1964 184.587C74.123 184.88 74.0129 185.137 73.866 185.358C73.9394 185.137 73.9761 184.917 73.9761 184.697C73.4255 185.027 72.8749 185.247 72.2142 185.358C72.4345 185.284 72.618 185.174 72.7648 185.027C72.8382 184.807 72.8749 184.587 72.8749 184.366C72.2142 184.697 71.5535 184.917 70.7826 184.917C71.0763 184.844 71.37 184.734 71.6636 184.587C71.737 184.366 71.8104 184.146 71.8838 183.926C71.2231 184.146 70.5624 184.366 69.7915 184.256C70.6725 184.146 71.4434 183.706 72.1041 183.155C72.1775 183.008 72.2142 182.861 72.2142 182.715C71.4801 182.935 70.7092 183.045 69.9017 183.045C70.7826 182.678 71.5902 182.164 72.3243 181.503C71.2231 182.274 69.7916 182.715 68.36 182.715C69.6814 182.127 70.8928 181.393 71.994 180.512C70.5624 181.393 68.9106 181.944 67.2588 182.054C68.6536 181.54 69.9751 180.879 71.2231 180.072C69.9017 180.586 68.5435 180.989 67.1487 181.283C68.3967 180.769 69.6447 180.255 70.8928 179.741C69.2409 179.631 67.5891 179.962 66.0474 180.512C66.3778 180.182 66.8183 179.962 67.2588 179.741C68.4334 179.227 69.6814 178.86 71.0029 178.64C69.1308 178.31 67.3689 178.53 65.607 179.191C66.8183 178.31 68.2499 177.649 69.7915 177.759C70.0118 177.759 70.232 177.796 70.4523 177.869C72.6547 178.2 74.6369 179.191 76.5089 180.402C77.1696 179.962 78.0506 179.741 78.8215 179.631C79.0417 179.631 79.2986 179.631 79.5923 179.631C79.6657 179.484 79.7758 179.338 79.9227 179.191C78.6012 179.081 77.2798 179.191 75.9583 179.411C76.8393 178.64 78.1607 178.64 79.3721 178.64C79.7391 178.64 80.1429 178.64 80.5834 178.64C78.9316 178.09 77.0595 178.31 75.2976 178.53C76.7292 177.649 78.7113 178.31 80.3632 177.979C78.4911 177.649 76.5089 177.649 74.5267 178.09C76.0684 177.209 77.8304 177.098 79.4822 176.878C78.3075 176.878 77.1329 176.842 75.9583 176.768C77.1696 176.658 78.381 176.217 79.3721 175.557C77.6101 175.887 75.7381 176.218 73.9761 175.777C75.1875 175.667 76.3988 175.337 77.6101 174.786C75.9583 175.006 74.1964 175.337 72.5446 174.896C73.6458 174.676 74.7103 174.345 75.7381 173.905C74.7103 174.125 73.6825 174.199 72.6547 174.125C74.0496 174.052 75.4077 173.832 76.7291 173.464C74.8571 172.253 72.4344 172.253 70.232 172.584C71.994 171.592 74.3065 171.592 76.2887 172.253C78.2708 172.914 79.9227 174.125 81.3542 175.667C82.0884 176.328 82.7491 177.062 83.3364 177.869C83.63 177.869 83.9604 177.869 84.3275 177.869C84.768 177.869 85.3186 177.869 85.7591 178.09C85.8325 178.09 85.8692 178.09 85.8692 178.09C85.7224 177.429 85.5021 176.768 85.2085 176.107C85.7958 176.842 86.2729 177.612 86.64 178.42C86.7868 178.493 86.9337 178.603 87.0805 178.75C86.64 177.209 85.9793 175.777 85.4287 174.345C86.5299 175.116 87.1906 176.438 87.521 177.759C87.5944 178.273 87.6678 178.787 87.7412 179.301C87.8146 179.301 87.8514 179.338 87.8514 179.411C87.3008 176.548 86.0894 173.795 86.1995 170.932C87.1906 172.473 87.9615 174.235 88.2918 175.997C87.7412 172.804 86.5299 169.72 84.8781 166.857C86.3097 167.738 87.3008 169.06 87.9615 170.491C88.3286 171.299 88.6222 172.143 88.8424 173.024C88.0716 169.72 87.1906 166.527 85.7591 163.443C88.1817 165.756 89.7234 168.839 90.1639 172.033C89.9437 170.051 89.8702 168.032 89.9436 165.976C90.2373 167.445 90.4575 168.95 90.6044 170.491C90.6778 169.463 90.8613 168.472 91.155 167.518C91.2284 168.986 91.1917 170.491 91.0449 172.033C91.3752 170.711 92.2562 169.39 93.2473 168.399C91.7056 170.822 90.7145 173.464 90.3842 176.218C91.3752 174.125 92.4764 172.143 93.908 170.381C93.7612 170.675 93.6143 170.968 93.4675 171.262C93.1005 172.216 92.7701 173.171 92.4764 174.125C93.7979 172.694 95.2294 171.152 97.1015 170.932C95.4497 171.923 94.1282 173.464 93.4675 175.226C94.4953 174.639 95.5965 174.125 96.7711 173.685C95.3396 174.566 94.0181 175.777 92.6967 176.878C92.1461 177.429 91.4853 177.979 91.155 178.64C93.4675 177.098 95.7801 175.557 98.423 175.006C96.2205 176.328 94.1282 177.833 92.1461 179.521C92.5865 179.154 93.1005 178.897 93.6878 178.75C93.3207 179.264 92.9903 179.815 92.6967 180.402C94.2384 178.75 95.8902 176.988 97.9825 176.107C97.1015 177.062 96.3307 178.09 95.6699 179.191C97.542 177.098 99.7444 175.116 102.387 174.015C100.736 174.896 99.3039 175.997 98.2027 177.429C100.185 176.107 102.387 175.226 104.59 174.566C105.691 174.235 106.902 173.905 108.114 174.125C105.361 174.456 102.828 175.447 100.625 177.098C100.405 177.319 100.148 177.502 99.8545 177.649C101.029 176.988 102.24 176.438 103.489 175.997C105.691 175.226 108.114 174.896 110.316 175.557C108.003 175.116 105.581 176.217 103.378 177.209C105.03 176.988 106.682 176.988 108.334 177.319C105.911 177.686 103.489 178.163 101.066 178.75C103.709 178.31 106.462 178.42 108.995 178.86C105.985 179.081 103.011 179.448 100.075 179.962C102.608 179.741 105.25 179.411 107.673 180.292C105.324 179.998 103.011 179.998 100.736 180.292C102.13 180.219 103.562 180.292 105.03 180.512C103.048 180.512 100.956 180.843 99.0837 181.393C100.075 181.173 101.176 181.063 102.057 181.063C103.378 181.063 104.59 181.393 105.581 182.164C104.48 181.724 103.378 181.503 102.167 181.503C105.03 182.605 107.783 184.477 109.325 187.23C107.453 184.917 105.03 183.155 102.277 182.164C104.259 183.596 105.471 186.018 105.471 188.441C105.471 187.78 105.14 187.009 104.81 186.349C103.819 184.807 102.608 183.375 101.066 182.384C102.277 183.816 102.718 185.798 102.387 187.56C102.057 185.688 101.176 183.926 99.9646 182.384C100.735 183.926 100.956 185.578 100.625 187.23C100.992 187.45 101.323 187.67 101.616 187.89C101.323 187.743 100.992 187.56 100.625 187.34C100.552 187.707 100.442 188.074 100.295 188.441C100.368 188.074 100.405 187.67 100.405 187.23C100.111 187.156 99.8178 187.046 99.5242 186.899C99.4508 187.34 99.3406 187.78 99.1938 188.221C99.5609 188.367 99.928 188.514 100.295 188.661C99.7077 188.514 99.0837 188.331 98.423 188.111C98.423 188.257 98.4597 188.368 98.5331 188.441C98.4597 188.294 98.423 188.184 98.423 188.111C97.9091 187.964 97.3952 187.817 96.8813 187.67C96.8813 187.817 96.8813 187.964 96.8813 188.111C97.1749 188.184 97.4686 188.294 97.7622 188.441C97.4686 188.368 97.1749 188.294 96.8813 188.221C96.8079 188.441 96.7711 188.661 96.7711 188.881C96.6977 188.661 96.661 188.441 96.661 188.221C96.2939 188.147 95.9269 188.111 95.5598 188.111C95.4864 188.331 95.4497 188.588 95.4497 188.881C95.5231 188.881 95.6332 188.918 95.7801 188.992C97.2116 188.881 98.7533 188.992 100.295 189.212C100.956 189.285 101.616 189.432 102.277 189.652C104.48 190.203 106.572 191.634 108.114 193.396C109.435 195.048 110.316 197.14 110.646 199.233C110.206 196.7 108.884 194.387 106.902 192.736C108.554 194.608 109.325 197.14 109.765 199.673C109.105 196.26 107.122 193.176 104.369 190.974C106.021 192.515 107.233 194.498 108.003 196.7C107.563 195.599 106.939 194.571 106.131 193.617C106.792 194.608 107.122 195.819 107.122 196.92C106.572 194.387 105.03 192.185 102.828 190.643C105.03 192.736 106.242 195.599 106.242 198.572C105.801 197.03 105.361 195.489 104.7 194.057C103.929 192.515 102.938 191.194 101.727 190.203C102.608 191.194 103.268 192.515 103.599 193.837C103.929 195.158 104.149 196.48 104.369 197.911C103.929 194.828 102.497 191.745 99.9646 189.983C102.277 191.745 103.599 194.718 103.489 197.691C102.718 194.828 101.616 192.075 99.414 190.313C100.735 191.634 101.616 193.506 101.727 195.489C102.608 196.37 103.268 197.361 103.709 198.462C103.121 197.581 102.461 196.773 101.727 196.039C101.727 196.113 101.727 196.223 101.727 196.37C102.314 197.177 102.791 198.058 103.158 199.013C102.497 197.801 101.616 196.7 100.515 195.819C101.947 197.691 102.608 199.893 103.268 202.096C102.167 200.261 101.066 198.388 99.9646 196.48C100.295 197.911 100.625 199.233 100.736 200.664C100.846 202.096 100.736 203.527 100.185 204.849C100.295 201.986 99.8545 199.123 98.9736 196.37C99.9646 199.343 99.4141 202.536 99.6343 205.73C98.7533 203.197 98.423 200.664 98.423 198.021C98.2027 200.004 97.8724 201.986 97.9825 203.968C97.3218 201.876 97.3218 199.563 97.542 197.361C97.1015 199.343 96.2205 201.215 96.5509 203.197C96.0003 201.876 96.1104 200.224 96.4408 198.682C96.4408 198.609 96.4408 198.499 96.4408 198.352C96.0003 199.673 95.4497 201.105 95.5598 202.426C96.9547 204.482 98.2394 206.611 99.414 208.813C97.5787 206.464 95.7433 204.115 93.908 201.766C95.8902 204.629 97.8723 207.492 98.7533 210.795C97.3217 208.483 96.0003 206.06 94.2384 203.858C95.67 206.391 97.1015 209.034 97.542 212.007C96.5876 210.171 95.6332 208.299 94.6789 206.391C95.4497 208.483 96.3307 210.685 96.4408 212.888C95.8535 211.273 95.2662 209.621 94.6789 207.932C94.789 210.245 95.0092 212.667 94.0181 214.76C93.9447 213.218 93.9447 211.676 94.0181 210.135C93.4675 213.108 91.7056 215.751 89.2829 217.403C90.0538 216.852 90.6044 215.971 90.9348 215.09C91.8157 213.328 92.4764 211.493 92.9169 209.584C92.3663 211.126 91.155 212.668 90.0538 213.879C89.5032 214.429 89.0627 214.98 88.2918 215.09C90.274 212.888 91.7056 210.355 92.5866 207.602C92.2562 208.373 91.8157 209.144 91.3752 209.914C90.4943 211.163 89.5766 212.411 88.6222 213.659C88.8425 212.557 89.2829 211.566 89.8335 210.575C90.7145 208.813 91.5955 207.051 92.4764 205.289C91.155 207.198 90.0905 209.254 89.2829 211.456C88.9526 210.906 89.0627 210.245 89.2829 209.694C89.9437 207.712 91.3752 205.95 91.7056 203.858C91.155 206.721 88.7323 209.144 85.8692 209.694C86.9704 209.144 88.0716 208.483 89.0627 207.492C89.8335 206.611 90.4943 205.51 90.9348 204.408C91.3018 203.601 91.5955 202.757 91.8157 201.876C91.2284 202.903 90.5677 203.858 89.8335 204.739C88.8425 205.95 87.6311 207.161 86.0894 207.492C88.5121 206.28 89.9437 203.748 90.8246 201.105C90.1639 202.316 89.5032 203.527 88.5121 204.519C87.8514 205.4 86.8603 206.06 85.8692 206.391C86.0894 206.611 86.1995 206.941 86.1995 207.382C86.1995 207.455 86.1628 207.529 86.0894 207.602C86.0894 207.712 85.8692 207.822 85.6489 207.822C85.4287 207.822 85.2085 207.712 85.0983 207.602C84.9515 207.455 84.8414 207.345 84.768 207.272C84.768 207.418 84.7313 207.529 84.6579 207.602C84.5477 207.822 84.3275 207.932 84.1073 207.822C83.9604 207.749 83.8136 207.675 83.6668 207.602C82.4554 219.385 82.015 231.939 82.4554 243.832C82.4554 246.475 82.6757 249.117 82.5656 251.65C82.4922 254.073 82.2719 256.496 81.9048 258.918C79.7024 259.469 78.4911 258.918 78.4911 258.918C78.7847 256.202 79.0417 253.486 79.2619 250.769C80.4733 236.343 80.253 221.808 82.1251 207.492C82.1251 207.418 82.0884 207.382 82.015 207.382C81.9416 207.235 81.9048 207.088 81.9048 206.941C81.9048 206.611 81.9049 206.28 82.1251 206.06C81.9783 205.987 81.8314 205.84 81.6846 205.62C81.4643 205.62 81.3175 205.546 81.2441 205.4C81.1707 205.326 81.134 205.253 81.134 205.179C81.134 205.106 81.134 205.069 81.134 205.069C80.8403 204.555 80.6201 204.041 80.4733 203.527C79.9227 201.876 79.7024 200.114 79.9227 198.462C79.4822 200.995 79.8125 203.638 80.8036 206.06C80.877 206.06 80.9872 206.024 81.134 205.95C81.3542 205.95 81.5745 205.95 81.6846 206.06C81.9048 206.28 81.9048 206.611 81.7947 206.941C81.7213 207.015 81.6479 207.125 81.5745 207.272C81.4277 207.345 81.3175 207.418 81.2441 207.492C81.0239 207.602 80.9137 207.712 80.6935 207.712C80.4733 207.712 80.3631 207.602 80.253 207.382C80.1796 207.235 80.1796 207.051 80.253 206.831C80.253 206.684 80.2897 206.574 80.3632 206.501C79.7024 205.62 79.1518 204.629 78.8215 203.638C78.4911 202.206 78.381 200.664 78.6012 199.123C78.0506 201.876 79.2619 204.739 79.0417 207.602C77.5 204.959 77.0595 201.766 77.7203 198.792C77.1697 200.334 76.5089 201.876 76.3988 203.527C76.2887 205.069 76.619 206.501 76.2887 208.042C75.5178 205.95 75.4077 203.638 75.9583 201.545C75.2976 203.381 74.6369 205.179 73.9761 206.941C73.7559 207.492 73.5356 208.042 73.5356 208.593C73.3154 205.95 73.7559 203.307 74.747 200.885C73.6458 202.646 72.4344 204.188 71.2231 205.84C71.994 203.087 73.6458 200.664 75.5178 198.682C75.2976 198.021 75.1875 197.251 75.2976 196.59C74.4166 197.691 73.866 199.123 73.866 200.554C73.5357 199.233 73.866 197.911 74.4166 196.81C72.7648 198.792 71.8838 201.325 71.7737 203.968C71.5535 203.307 71.5535 202.646 71.5535 201.986C71.7003 200.664 71.994 199.416 72.4344 198.242C72.5079 198.021 72.5813 197.838 72.6547 197.691C71.3332 199.563 70.5624 201.655 70.232 203.968C70.1219 202.096 70.4523 200.224 71.113 198.462C71.1864 198.315 71.2965 198.132 71.4434 197.911C70.5624 198.902 70.0118 200.114 69.3511 201.325C68.8005 202.426 68.2499 203.527 68.1397 204.739C67.8094 202.426 68.5802 200.004 70.0118 198.132C68.4701 200.004 67.1486 202.096 66.2677 204.298C66.0474 204.849 65.8272 205.4 65.7171 206.06C65.7171 204.298 66.3778 202.647 67.1487 201.105C67.4423 200.591 67.736 200.114 68.0296 199.673C66.3778 201.545 65.2766 203.748 64.726 206.17C64.6159 204.519 65.1665 202.757 66.0474 201.325ZM89.1728 217.513C89.2462 217.513 89.2829 217.476 89.2829 217.403C89.2829 217.476 89.2462 217.513 89.1728 217.513ZM63.5146 191.414C63.5881 191.341 63.6982 191.267 63.845 191.194C63.6982 191.267 63.5881 191.341 63.5146 191.414ZM72.5446 182.605C72.5446 182.678 72.5079 182.788 72.4344 182.935C72.6547 182.715 72.8382 182.531 72.985 182.384C72.8382 182.458 72.6914 182.531 72.5446 182.605ZM72.1041 183.816C72.0307 184.036 71.9205 184.256 71.7737 184.477C72.2142 184.256 72.618 183.963 72.985 183.596C72.985 183.522 72.985 183.412 72.985 183.265C72.6914 183.485 72.3977 183.669 72.1041 183.816ZM73.4255 183.045C73.4989 183.045 73.5356 183.045 73.5356 183.045C73.5356 183.045 73.4989 183.045 73.4255 183.045ZM73.0952 184.146C73.0218 184.44 72.9117 184.734 72.7648 185.027C73.3154 184.697 73.7559 184.036 73.9761 183.375C73.7559 183.669 73.4622 183.926 73.0952 184.146ZM100.405 187.009C100.332 185.541 100.111 184.109 99.7444 182.715C99.8913 184.036 99.8178 185.358 99.5242 186.679C99.8178 186.752 100.111 186.863 100.405 187.009ZM98.5331 186.239C98.6799 186.312 98.8267 186.385 98.9736 186.459C98.8267 185.064 98.8634 183.669 99.0837 182.274C98.7166 183.596 98.5331 184.917 98.5331 186.239ZM98.423 187.89C98.7166 187.964 98.9736 188.037 99.1938 188.111C99.1204 187.67 99.047 187.23 98.9736 186.789C98.8267 186.716 98.6432 186.642 98.423 186.569C98.423 187.009 98.423 187.45 98.423 187.89ZM73.3154 193.727C73.7559 193.506 74.1964 193.323 74.6369 193.176C74.6369 193.029 74.6369 192.846 74.6369 192.625C74.2698 192.699 73.9394 192.772 73.6458 192.846C73.4989 193.139 73.3888 193.433 73.3154 193.727ZM75.2976 189.983C75.371 189.762 75.4811 189.542 75.6279 189.322C75.5545 189.322 75.5178 189.322 75.5178 189.322C75.2976 189.542 75.0774 189.799 74.8571 190.093C75.0039 190.019 75.1508 189.983 75.2976 189.983ZM74.6369 190.533C74.6369 190.607 74.6001 190.68 74.5267 190.753C74.6736 190.68 74.8571 190.643 75.0773 190.643C75.0773 190.57 75.0773 190.533 75.0773 190.533C74.9305 190.533 74.7837 190.533 74.6369 190.533ZM75.5178 191.855C75.5178 191.928 75.5178 191.965 75.5178 191.965C75.7381 191.965 75.9583 191.928 76.1785 191.855C75.9583 191.855 75.7381 191.855 75.5178 191.855ZM75.1875 192.625C75.114 192.772 75.0773 192.919 75.0773 193.066C75.5178 192.919 75.995 192.809 76.5089 192.736C76.5089 192.662 76.5089 192.625 76.5089 192.625C76.0684 192.625 75.6279 192.625 75.1875 192.625ZM74.9672 193.286C74.8938 193.36 74.8571 193.47 74.8571 193.617C75.1508 193.396 75.4811 193.176 75.8482 192.956C75.5545 193.029 75.2609 193.139 74.9672 193.286ZM74.8571 191.414C74.8571 191.341 74.8571 191.267 74.8571 191.194C74.7103 191.194 74.5267 191.231 74.3065 191.304C74.2331 191.377 74.1964 191.451 74.1964 191.524C74.1964 191.524 74.2331 191.524 74.3065 191.524C74.4533 191.451 74.6369 191.414 74.8571 191.414ZM73.9761 192.075C73.9027 192.148 73.866 192.258 73.866 192.405C74.1597 192.332 74.4533 192.258 74.747 192.185C74.747 192.112 74.747 192.038 74.747 191.965C74.4533 191.965 74.1964 192.001 73.9761 192.075ZM72.7648 192.075C73.0585 191.928 73.3521 191.818 73.6458 191.745C73.6458 191.598 73.6825 191.488 73.7559 191.414C73.5357 191.414 73.3521 191.451 73.2053 191.524C73.0585 191.671 72.9117 191.855 72.7648 192.075ZM73.7559 190.753C73.6825 190.9 73.5723 191.047 73.4255 191.194C73.5723 191.121 73.7192 191.047 73.866 190.974C73.9394 190.9 73.9761 190.79 73.9761 190.643C73.9027 190.643 73.8293 190.68 73.7559 190.753ZM74.0863 190.423C74.2331 189.909 74.3432 189.359 74.4166 188.771C74.2698 189.432 74.0496 190.019 73.7559 190.533C73.9027 190.533 74.0128 190.496 74.0863 190.423ZM74.9672 185.358C74.8938 185.431 74.8204 185.541 74.747 185.688C74.8204 185.541 74.8571 185.431 74.8571 185.358C74.5635 185.578 74.2331 185.725 73.866 185.798C74.3065 185.871 74.7103 185.982 75.0773 186.128C75.5178 185.578 75.8482 184.807 75.8482 184.146C75.628 184.587 75.3343 184.99 74.9672 185.358ZM75.9583 191.194C76.0317 191.194 76.1418 191.157 76.2887 191.084C76.2153 191.084 76.1051 191.084 75.9583 191.084C75.9583 191.157 75.9583 191.194 75.9583 191.194ZM76.3988 190.423C76.3254 190.496 76.2887 190.533 76.2887 190.533C76.5089 190.533 76.6924 190.533 76.8393 190.533C76.8393 190.533 76.8393 190.496 76.8393 190.423C76.6924 190.423 76.5456 190.423 76.3988 190.423ZM80.1429 179.301C79.9961 179.374 79.8492 179.484 79.7024 179.631C79.9227 179.631 80.1429 179.668 80.3632 179.741C80.51 179.595 80.6201 179.484 80.6935 179.411C80.5467 179.338 80.3631 179.301 80.1429 179.301ZM85.7591 203.638C85.8692 203.858 85.7591 204.188 85.6489 204.298C85.5755 204.298 85.5388 204.335 85.5388 204.408C85.6856 204.335 85.7958 204.335 85.8692 204.408C86.0894 204.482 86.2363 204.629 86.3097 204.849C86.6033 204.555 86.897 204.262 87.1906 203.968C87.8513 203.087 88.2918 202.096 88.5121 200.995C87.8514 201.986 87.0805 202.867 86.0894 203.417C86.2362 203.271 86.3831 203.087 86.5299 202.867C86.7502 202.647 86.9337 202.39 87.0805 202.096C86.5666 202.536 86.016 202.867 85.4287 203.087C85.5755 203.234 85.6857 203.344 85.7591 203.417C85.7591 203.491 85.7591 203.564 85.7591 203.638C85.9059 203.564 86.016 203.491 86.0894 203.417C86.016 203.564 85.9059 203.638 85.7591 203.638ZM85.4287 205.95C85.5021 206.024 85.5755 206.06 85.6489 206.06C85.6489 206.134 85.6857 206.207 85.7591 206.281C86.9704 205.62 87.9615 204.739 88.7323 203.638C88.0716 204.408 87.3008 205.069 86.4198 205.179C86.4198 205.179 86.4198 205.216 86.4198 205.289C86.4198 205.363 86.4198 205.436 86.4198 205.51C86.4198 205.73 86.0894 205.95 85.8692 205.95C85.7591 205.95 85.5388 205.84 85.4287 205.73C85.4287 205.803 85.4287 205.84 85.4287 205.84C85.3553 205.913 85.3186 205.95 85.3186 205.95C85.392 205.95 85.4287 205.95 85.4287 205.95ZM94.3485 187.23C94.1282 187.156 93.8713 187.119 93.5777 187.119C93.5042 187.119 93.4675 187.156 93.4675 187.23C93.5409 187.23 93.5777 187.266 93.5777 187.34C93.8713 187.34 94.1282 187.376 94.3485 187.45C94.3485 187.376 94.3485 187.303 94.3485 187.23ZM94.3485 188C93.9814 188 93.6143 188.037 93.2473 188.111C93.5409 188.184 93.908 188.294 94.3485 188.441C94.3485 188.294 94.3485 188.147 94.3485 188ZM80.3632 182.715C79.9227 182.568 79.5189 182.494 79.1518 182.494C79.2986 182.568 79.4088 182.641 79.4822 182.715C79.7758 183.008 80.0695 183.302 80.3632 183.596C80.6568 183.522 80.9504 183.485 81.2441 183.485C81.3175 183.339 81.3909 183.192 81.4644 183.045C81.0973 182.898 80.7669 182.788 80.4733 182.715C80.3999 182.788 80.3264 182.861 80.253 182.935C80.253 182.861 80.2897 182.788 80.3632 182.715ZM86.7501 201.105C86.8236 200.885 86.897 200.701 86.9704 200.554C86.6767 200.921 86.3464 201.215 85.9793 201.435C86.0527 201.655 86.1261 201.876 86.1995 202.096C86.0527 201.949 85.9059 201.802 85.7591 201.655C85.6122 201.729 85.5021 201.802 85.4287 201.876C85.5021 201.949 85.5755 202.059 85.6489 202.206C85.7591 202.316 85.7591 202.536 85.6489 202.646C85.6489 202.72 85.6122 202.757 85.5388 202.757C85.3186 202.83 85.0984 202.83 84.8781 202.757C84.8781 202.83 84.8781 202.867 84.8781 202.867C84.9515 202.867 85.0249 202.867 85.0983 202.867C85.2452 202.94 85.3553 203.014 85.4287 203.087C86.0894 202.536 86.5299 201.876 86.7501 201.105ZM85.4287 201.325C85.4287 201.252 85.392 201.215 85.3186 201.215C85.3186 201.288 85.3186 201.398 85.3186 201.545C85.392 201.472 85.4287 201.398 85.4287 201.325ZM85.6489 200.334C85.6489 200.407 85.6857 200.518 85.7591 200.664C86.1995 199.453 86.5299 198.021 86.7501 196.7C86.6767 196.627 86.64 196.59 86.64 196.59C86.2729 197.838 85.9426 199.086 85.6489 200.334ZM78.2709 181.724C78.4177 181.797 78.5645 181.907 78.7113 182.054C79.2987 181.981 79.886 181.944 80.4733 181.944C80.4733 181.87 80.51 181.76 80.5834 181.613C79.7024 181.467 78.8214 181.43 77.9405 181.503C78.0873 181.577 78.1974 181.65 78.2709 181.724ZM81.0239 180.622C81.0973 180.549 81.134 180.476 81.134 180.402C80.9137 180.329 80.6568 180.255 80.3632 180.182C80.2163 180.329 80.0695 180.476 79.9227 180.622C80.2897 180.622 80.6568 180.622 81.0239 180.622ZM81.2441 179.631C81.0973 179.631 80.9872 179.668 80.9138 179.741C81.2074 179.741 81.4643 179.778 81.6846 179.852C81.5378 179.778 81.3909 179.705 81.2441 179.631ZM80.9138 181.724C80.9138 181.797 80.877 181.87 80.8036 181.944C81.1707 181.944 81.5378 181.981 81.9048 182.054C81.9048 182.054 81.9048 182.017 81.9048 181.944C81.6112 181.87 81.2808 181.797 80.9138 181.724ZM81.5745 183.045C81.5011 183.192 81.3909 183.339 81.2441 183.485C81.8314 183.559 82.382 183.596 82.8959 183.596C82.4554 183.375 82.015 183.192 81.5745 183.045ZM80.8036 184.036C81.0239 184.183 81.2074 184.366 81.3542 184.587C82.015 184.44 82.7124 184.403 83.4465 184.477C82.5656 184.256 81.6846 184.11 80.8036 184.036ZM81.4644 184.697C81.6112 184.844 81.7213 184.954 81.7947 185.027C82.4554 184.954 83.1162 184.88 83.7769 184.807C82.9694 184.734 82.1985 184.697 81.4644 184.697ZM81.9048 185.137C82.1251 185.358 82.3086 185.541 82.4554 185.688C82.9693 185.614 83.4832 185.431 83.9971 185.137C83.3364 185.137 82.639 185.137 81.9048 185.137ZM82.4554 185.798C82.5289 185.871 82.6023 185.945 82.6757 186.018C83.1896 186.018 83.7035 185.982 84.2174 185.908C83.7035 185.835 83.1162 185.798 82.4554 185.798ZM84.9882 179.301C85.0616 179.374 85.135 179.448 85.2085 179.521C85.3553 179.374 85.4654 179.191 85.5388 178.971C85.392 179.044 85.2084 179.154 84.9882 179.301ZM85.6489 179.962C85.7224 180.108 85.7958 180.255 85.8692 180.402C85.9426 180.035 86.016 179.631 86.0894 179.191C85.9426 179.484 85.7958 179.741 85.6489 179.962ZM86.3097 180.292C86.2363 180.512 86.1995 180.696 86.1995 180.843C86.1995 180.916 86.2363 180.989 86.3097 181.063C86.3097 180.916 86.3097 180.769 86.3097 180.622C86.3097 180.476 86.3097 180.365 86.3097 180.292ZM87.0805 179.191C87.1539 179.411 87.1906 179.631 87.1906 179.852C87.1906 179.998 87.1906 180.108 87.1906 180.182C87.1906 179.815 87.1539 179.484 87.0805 179.191ZM88.0716 180.292C87.9982 180.219 87.9615 180.145 87.9615 180.072C87.9615 180.219 87.9982 180.365 88.0716 180.512C88.0716 180.439 88.0716 180.365 88.0716 180.292ZM88.8424 182.935C88.769 183.082 88.6956 183.265 88.6222 183.485C88.6222 183.559 88.6222 183.596 88.6222 183.596C88.6956 183.522 88.7323 183.412 88.7323 183.265C88.8058 183.192 88.8791 183.118 88.9526 183.045C88.8791 183.045 88.8424 183.008 88.8424 182.935ZM89.1728 182.384C89.0994 182.458 89.0627 182.531 89.0627 182.605C89.0627 182.678 89.0627 182.751 89.0627 182.825C89.1361 182.751 89.2095 182.678 89.2829 182.605C89.2095 182.531 89.1728 182.458 89.1728 182.384ZM89.7234 181.724C89.5766 181.87 89.4665 182.017 89.393 182.164C89.393 182.164 89.4298 182.201 89.5032 182.274C89.5766 182.127 89.6867 181.98 89.8335 181.834C89.7601 181.834 89.7234 181.797 89.7234 181.724ZM89.9436 181.503C89.9436 181.503 89.9436 181.54 89.9436 181.613C90.1639 181.32 90.3841 181.063 90.6044 180.843C90.3841 181.063 90.1639 181.283 89.9436 181.503ZM91.8157 186.899C91.8157 186.899 91.8524 186.899 91.9258 186.899C91.9258 186.899 91.8891 186.899 91.8157 186.899ZM92.3663 186.899C92.3663 186.973 92.3663 187.009 92.3663 187.009C92.4397 187.009 92.5132 187.046 92.5866 187.119C92.5866 187.046 92.5866 187.009 92.5866 187.009C92.5132 186.936 92.4397 186.899 92.3663 186.899ZM92.9169 187.009C92.9169 187.083 92.9169 187.119 92.9169 187.119C92.9903 187.193 93.1004 187.23 93.2473 187.23C93.2473 187.156 93.2473 187.083 93.2473 187.009C93.1739 187.009 93.0637 187.009 92.9169 187.009ZM93.4675 186.018C93.3941 186.165 93.3207 186.275 93.2473 186.349C93.3207 186.349 93.3941 186.385 93.4675 186.459C93.5409 186.312 93.5777 186.165 93.5777 186.018C93.5777 186.018 93.5409 186.018 93.4675 186.018ZM93.7979 186.459C94.0181 186.532 94.2384 186.606 94.4586 186.679C94.532 186.459 94.6054 186.238 94.6789 186.018C94.4586 186.018 94.2384 186.018 94.0181 186.018C93.9447 186.165 93.8713 186.312 93.7979 186.459ZM94.3485 185.468C94.4953 185.468 94.6422 185.504 94.789 185.578C94.9358 185.137 95.0826 184.734 95.2295 184.366C94.9358 184.734 94.6421 185.101 94.3485 185.468ZM95.4497 185.578C95.5965 185.578 95.7067 185.614 95.7801 185.688C96.0003 184.954 96.3307 184.293 96.7711 183.706C96.2572 184.293 95.8168 184.917 95.4497 185.578ZM97.2116 185.908C97.5053 185.982 97.799 186.055 98.0926 186.128C98.0192 185.027 98.1293 183.926 98.423 182.825C97.9091 183.779 97.5053 184.807 97.2116 185.908ZM98.3128 187.78C98.2394 187.34 98.166 186.899 98.0926 186.459C97.799 186.385 97.5053 186.312 97.2116 186.239C97.1382 186.606 97.0648 186.973 96.9914 187.34C97.4319 187.487 97.8723 187.633 98.3128 187.78ZM97.9825 182.825C97.3218 183.706 96.7712 184.66 96.3307 185.688C96.4775 185.761 96.6243 185.798 96.7711 185.798C96.9914 184.697 97.4319 183.706 97.9825 182.825ZM96.661 186.239C96.4408 186.165 96.2572 186.128 96.1104 186.128C96.037 186.422 95.9269 186.716 95.7801 187.009C96.0737 187.083 96.3307 187.156 96.5509 187.23C96.5509 186.863 96.5876 186.532 96.661 186.239ZM96.5509 188C96.5509 187.854 96.5509 187.743 96.5509 187.67C96.2572 187.597 95.9636 187.523 95.6699 187.45C95.6699 187.523 95.6699 187.633 95.6699 187.78C95.9636 187.854 96.2572 187.927 96.5509 188ZM95.6699 186.128C95.5231 186.055 95.3763 186.018 95.2295 186.018C95.0826 186.238 94.9725 186.495 94.8991 186.789C95.1193 186.789 95.3029 186.826 95.4497 186.899C95.5231 186.606 95.5965 186.349 95.6699 186.128ZM94.789 187.23C94.7156 187.303 94.6789 187.413 94.6789 187.56C94.8991 187.56 95.156 187.597 95.4497 187.67C95.4497 187.597 95.4497 187.487 95.4497 187.34C95.2294 187.34 95.0092 187.303 94.789 187.23ZM95.3396 188.111C95.1193 188.037 94.8624 188 94.5687 188C94.4953 188.147 94.4586 188.294 94.4586 188.441C94.7523 188.588 95.0459 188.735 95.3396 188.881C95.3396 188.588 95.3396 188.331 95.3396 188.111ZM100.846 195.379C101.139 195.672 101.396 195.966 101.616 196.26C101.616 196.113 101.58 195.966 101.506 195.819C101.286 195.599 101.066 195.379 100.846 195.158C100.846 195.232 100.846 195.305 100.846 195.379ZM101.286 195.048C100.736 193.396 99.6343 191.965 98.423 190.753C98.423 190.753 98.3862 190.753 98.3128 190.753C98.7533 191.194 99.1571 191.671 99.5242 192.185C99.9646 192.846 100.405 193.617 100.625 194.498C100.846 194.644 101.066 194.828 101.286 195.048ZM100.625 195.158C100.552 195.085 100.515 195.011 100.515 194.938C100.148 194.644 99.8178 194.387 99.5242 194.167C99.8912 194.461 100.258 194.791 100.625 195.158ZM98.8634 193.176C99.1571 193.396 99.4508 193.58 99.7444 193.727C99.8178 193.8 99.8912 193.874 99.9646 193.947C99.1938 192.736 98.3128 191.745 97.2116 190.974C97.1382 190.974 97.0648 190.974 96.9914 190.974C97.7255 191.634 98.3495 192.369 98.8634 193.176ZM97.6521 192.515C97.5053 192.369 97.3217 192.222 97.1015 192.075C96.8078 191.708 96.4775 191.414 96.1104 191.194C95.9636 191.194 95.7801 191.231 95.5598 191.304C95.7066 191.451 95.8535 191.598 96.0003 191.745C96.5142 191.965 97.0648 192.222 97.6521 192.515ZM95.5598 202.426C95.3396 201.545 95.2295 200.628 95.2295 199.673C95.3396 198.242 95.6699 196.92 96.0003 195.599C96.1471 194.865 96.3307 194.167 96.5509 193.506C95.6699 195.709 94.789 198.021 94.1283 200.334C94.6422 200.995 95.1193 201.692 95.5598 202.426ZM94.1283 200.224C94.0181 197.691 94.5687 195.048 95.7801 192.846C95.1193 193.617 94.789 194.608 94.5687 195.599C94.2017 196.847 93.8346 198.095 93.4675 199.343C93.6878 199.637 93.908 199.93 94.1283 200.224ZM93.4675 199.233C93.2473 198.792 93.2473 198.242 93.2473 197.691C93.3574 195.819 94.0181 193.947 95.1193 192.295C93.7979 193.837 92.8068 195.709 92.2562 197.801C92.6967 198.242 93.1005 198.719 93.4675 199.233ZM90.9348 195.929C91.3752 196.516 91.8157 197.104 92.2562 197.691C92.1461 195.709 92.8068 193.617 94.2384 192.075C92.8068 193.066 91.5955 194.387 91.0449 196.039C91.0449 195.452 91.1183 194.901 91.2651 194.387C91.0449 194.755 90.8246 195.158 90.6044 195.599C90.6778 195.672 90.7879 195.782 90.9348 195.929ZM89.5032 199.563C89.65 199.123 89.7601 198.645 89.8335 198.132C89.7601 198.499 89.65 198.866 89.5032 199.233C89.5032 199.38 89.5032 199.49 89.5032 199.563ZM86.3097 204.849C86.3097 204.849 86.3097 204.886 86.3097 204.959C86.3831 204.886 86.4565 204.812 86.5299 204.739C86.4565 204.812 86.3831 204.849 86.3097 204.849ZM84.9882 204.739C85.0616 204.592 85.1718 204.482 85.3186 204.408C85.2452 204.408 85.2085 204.408 85.2085 204.408C84.9882 204.408 84.8047 204.372 84.6579 204.298C84.6579 204.372 84.6579 204.408 84.6579 204.408C84.8047 204.482 84.9148 204.592 84.9882 204.739ZM84.6579 206.501C84.6579 206.427 84.6946 206.354 84.768 206.281C84.768 206.281 84.7313 206.281 84.6579 206.281C84.6579 206.281 84.6211 206.281 84.5477 206.281C84.6211 206.354 84.6579 206.427 84.6579 206.501ZM83.9971 205.84C84.0705 205.84 84.1073 205.84 84.1073 205.84C84.1073 205.84 84.1073 205.803 84.1073 205.73C84.0338 205.656 83.9971 205.546 83.9971 205.4C83.9237 205.546 83.887 205.693 83.887 205.84C83.9604 205.84 83.9971 205.84 83.9971 205.84ZM82.8959 203.968C82.6757 203.748 82.6757 203.417 82.7858 203.197C82.8592 203.124 82.9326 203.05 83.006 202.977C82.639 202.61 82.3453 202.206 82.1251 201.766C82.1985 202.059 82.2719 202.353 82.3453 202.646C82.6757 202.757 82.7858 203.197 82.6757 203.417C82.6757 203.491 82.639 203.564 82.5656 203.638C82.639 203.858 82.7124 204.041 82.7858 204.188C82.7858 204.115 82.8225 204.041 82.8959 203.968ZM82.6757 204.629C82.6023 204.629 82.5656 204.592 82.5656 204.519C82.5656 204.665 82.5289 204.775 82.4554 204.849C82.5289 204.775 82.6023 204.702 82.6757 204.629ZM82.1251 206.06C82.1251 206.06 82.1618 206.06 82.2352 206.06C82.3086 205.987 82.3453 205.95 82.3453 205.95C82.4187 205.803 82.4554 205.693 82.4554 205.62C82.4554 205.546 82.4554 205.473 82.4554 205.4C82.382 205.253 82.382 205.106 82.4554 204.959C82.3453 205.179 82.2352 205.51 82.015 205.62C81.9416 205.62 81.9048 205.62 81.9048 205.62C81.9783 205.767 82.0517 205.913 82.1251 206.06ZM81.3542 204.519C81.5011 204.445 81.6112 204.372 81.6846 204.298C81.8314 204.225 81.9783 204.188 82.1251 204.188C82.1985 204.188 82.2719 204.188 82.3453 204.188C82.2719 204.115 82.1985 204.005 82.1251 203.858C82.0517 203.931 82.015 203.968 82.015 203.968C81.7947 203.968 81.5745 203.968 81.4644 203.748C81.3542 203.638 81.3542 203.417 81.3542 203.197C81.4276 203.05 81.5378 202.94 81.6846 202.867C81.6112 202.647 81.5378 202.463 81.4644 202.316C81.0973 201.509 80.877 200.701 80.8036 199.893C80.5834 201.435 80.8036 203.087 81.3542 204.519ZM77.8304 180.732C78.381 180.622 78.8215 180.622 79.3721 180.622C79.5189 180.622 79.6657 180.622 79.8125 180.622C79.886 180.476 79.9594 180.329 80.0328 180.182C78.9316 180.072 77.8304 180.292 76.7291 180.512C76.9494 180.659 77.1329 180.806 77.2797 180.953C77.5 180.879 77.6835 180.806 77.8304 180.732ZM77.2797 189.322C77.2063 189.322 77.1697 189.322 77.1697 189.322C77.0962 189.469 77.0228 189.579 76.9494 189.652C77.0228 189.652 77.0962 189.652 77.1697 189.652C77.2431 189.505 77.2797 189.395 77.2797 189.322ZM77.0595 193.176C76.9861 193.103 76.9127 193.029 76.8393 192.956C76.8393 193.029 76.8026 193.066 76.7291 193.066C76.6557 193.139 76.5823 193.25 76.5089 193.396C76.7292 193.323 76.9127 193.25 77.0595 193.176ZM74.747 194.167C75.2976 193.947 75.7381 193.727 76.1785 193.506C76.3254 193.433 76.4355 193.396 76.5089 193.396C76.5089 193.323 76.5089 193.25 76.5089 193.176C75.8482 193.396 75.2242 193.69 74.6369 194.057C74.6369 194.131 74.6369 194.204 74.6369 194.277C74.6369 194.204 74.6369 194.167 74.6369 194.167C74.123 194.461 73.6458 194.791 73.2053 195.158C73.866 194.938 74.1964 194.498 74.747 194.167Z" fill="url(#paint6_linear_1482_1144)"/>
<path d="M108.004 196.7C108.371 197.581 108.665 198.462 108.885 199.343C108.665 198.462 108.371 197.581 108.004 196.7Z" fill="url(#paint7_linear_1482_1144)"/>
<path d="M27.2852 182.054C27.5788 182.421 27.8358 182.751 28.056 183.045C27.8358 182.714 27.6155 182.384 27.2852 182.054Z" fill="url(#paint8_linear_1482_1144)"/>
<path d="M13.74 207.822C13.74 207.968 13.7033 208.152 13.6299 208.372C13.7033 208.152 13.74 207.968 13.74 207.822Z" fill="url(#paint9_linear_1482_1144)"/>
<path fill-rule="evenodd" clip-rule="evenodd" d="M53.1635 213.768C52.6129 211.676 51.6218 209.694 50.1902 208.152C50.4839 208.519 50.7408 208.923 50.9611 209.364C51.6218 210.685 52.2825 212.117 52.1724 213.658C52.1724 213.108 51.9522 212.557 51.842 212.117C50.9611 210.244 49.8599 208.483 48.5384 206.831C49.8599 208.483 50.4105 210.575 50.1902 212.557C50.0801 211.456 49.6396 210.465 49.089 209.584C48.6485 208.593 48.0979 207.491 47.3271 206.611C47.4005 206.831 47.4739 207.014 47.5473 207.161C48.208 208.593 48.4283 210.245 48.3182 211.786C48.0979 209.914 47.4372 208.042 46.2259 206.39C46.2993 206.537 46.3727 206.721 46.4461 206.941C46.8866 207.969 47.1435 209.033 47.217 210.134C47.3271 210.685 47.3271 211.346 46.9967 211.786C46.9967 209.584 46.1157 207.381 44.7943 205.619C45.2348 206.611 45.5652 207.822 45.2348 208.923C45.2348 207.602 44.7943 206.5 44.0235 205.509C44.1336 206.06 44.0234 206.721 43.8032 207.271C45.455 209.033 46.8866 211.125 47.5473 213.438C46.4461 212.117 45.455 210.685 44.4639 209.253C45.3449 211.236 45.6753 213.548 45.5651 215.751C45.5651 215.31 45.3449 214.87 45.2348 214.429C44.6475 212.887 44.0602 211.346 43.4729 209.804C43.9133 211.566 43.8032 213.548 43.1425 215.31C42.9222 214.099 43.1425 212.777 43.1425 211.456C43.0323 210.024 42.4818 208.703 41.9312 207.381C42.5919 209.914 42.1514 212.667 40.83 214.98C40.6097 212.557 41.7109 210.134 41.1603 207.712C41.3806 209.033 41.3805 210.355 40.9401 211.566C40.7198 212.447 40.2794 213.328 39.6186 213.989C39.692 214.062 39.7654 214.172 39.8388 214.319C39.8388 214.466 39.8022 214.613 39.7288 214.759C39.7288 214.87 39.5085 214.98 39.3984 215.09C39.2882 215.09 39.068 214.98 38.9579 214.87C38.8845 214.796 38.7744 214.723 38.6275 214.649C38.5541 214.576 38.5174 214.466 38.5174 214.319C38.4073 214.099 38.4073 213.768 38.5174 213.658C38.7377 213.548 38.8478 213.548 38.9579 213.548C39.1047 213.548 39.2148 213.585 39.2882 213.658C40.1692 211.566 40.3895 209.253 40.0591 207.051C40.2793 208.593 40.0591 210.024 39.6186 211.456C39.4718 211.896 39.2515 212.337 38.9579 212.777C38.9579 212.777 38.9579 212.814 38.9579 212.887C38.9579 212.961 38.9579 213.034 38.9579 213.108C38.8845 213.254 38.7744 213.328 38.6275 213.328C38.4807 213.475 38.3339 213.585 38.187 213.658C38.2972 213.878 38.4073 214.099 38.4073 214.319C38.4073 214.466 38.3706 214.613 38.2972 214.759C38.2237 214.759 38.187 214.796 38.187 214.87C39.7287 227.203 39.6186 239.647 40.6097 251.98C40.8299 254.33 41.0502 256.642 41.2704 258.918C41.2704 258.918 40.1692 259.468 38.2972 258.918C38.0035 256.862 37.82 254.807 37.7466 252.751C37.7466 250.549 37.8567 248.236 37.9668 246.034C38.2972 235.903 37.8567 225.001 36.8656 214.98C36.7922 215.053 36.682 215.126 36.5352 215.2C36.315 215.2 36.0947 215.2 35.9846 214.98C35.9112 214.906 35.8745 214.796 35.8745 214.649C35.8011 214.723 35.7277 214.833 35.6543 214.98C35.5074 215.053 35.3606 215.126 35.2138 215.2C34.9936 215.2 34.7733 215.09 34.7733 214.98C34.6999 214.906 34.6999 214.833 34.7733 214.759C34.6999 214.466 34.7733 214.172 34.9935 213.878C34.1126 213.658 33.3417 212.998 32.681 212.337C31.9101 211.456 31.2494 210.465 30.6988 209.474C31.4697 211.566 32.681 213.768 34.7733 214.87C33.4519 214.539 32.3506 213.548 31.5798 212.447C30.9191 211.713 30.3318 210.905 29.8179 210.024C30.0381 210.758 30.295 211.493 30.5887 212.227C31.0292 213.218 31.5798 214.099 32.2405 214.87C33.0114 215.64 34.0024 216.191 34.9935 216.742C32.4608 216.301 30.4786 214.209 29.928 211.676C30.2583 213.548 31.4697 215.09 32.0203 216.742C32.2405 217.292 32.3507 217.843 32.0203 218.283C31.3596 216.375 30.4786 214.613 29.3774 212.997C30.1115 214.539 30.8456 216.044 31.5798 217.512C32.0203 218.393 32.4608 219.274 32.5709 220.155C31.7633 219.128 30.9925 218.026 30.2584 216.852C29.8179 216.301 29.4875 215.64 29.1571 214.98C29.928 217.292 31.2494 219.495 32.9012 221.367C32.2405 221.257 31.8 220.816 31.3596 220.376C30.3685 219.274 29.3774 218.063 28.9369 216.632C29.304 218.32 29.8546 219.898 30.5887 221.367C30.9191 222.138 31.3596 222.908 32.0203 223.349C30.0381 221.917 28.4964 219.605 27.9458 217.182C28.0192 218.504 28.0192 219.825 27.9458 221.146C27.175 219.274 27.2851 217.292 27.5053 215.31C26.9914 216.705 26.4775 218.1 25.9637 219.495C25.9637 217.623 26.7345 215.751 27.3952 213.989C26.5877 215.53 25.7801 217.109 24.9725 218.724C25.3029 216.191 26.5142 213.989 27.7256 211.676C26.294 213.658 25.0827 215.64 23.9815 217.733C24.6422 214.87 26.4041 212.447 28.0559 210.024C26.5142 212.006 24.9358 213.989 23.3207 215.971C24.3485 214.135 25.4497 212.337 26.6243 210.575C26.7345 209.364 26.294 208.152 25.8535 207.051C25.8535 207.124 25.8902 207.235 25.9637 207.381C26.1839 208.593 26.294 210.024 25.8535 211.236C26.0738 209.474 25.3029 207.822 24.9725 206.17C25.0827 208.042 25.0827 210.024 24.5321 211.786C24.6422 210.134 24.3118 208.483 24.2017 206.721C24.2017 209.033 23.8714 211.236 23.2106 213.328C23.3208 210.685 22.8803 207.822 23.7612 205.289C22.9904 207.602 22.66 210.134 22.66 212.557C22.2195 211.456 22.1094 210.245 22.2195 209.033C22.3296 207.822 22.5499 206.61 22.8802 205.399C21.9259 207.014 20.9715 208.629 20.0171 210.244C20.5677 208.372 21.2284 206.39 22.4398 204.849C21.4487 205.619 20.6778 206.5 20.1272 207.602C20.4209 206.794 20.8614 206.023 21.4487 205.289C21.4487 205.216 21.412 205.142 21.3386 205.069C20.7513 205.656 20.2006 206.354 19.6868 207.161C20.0171 206.17 20.6778 205.289 21.3386 204.518C21.4487 202.866 22.2195 201.215 23.4309 200.113C21.4487 201.655 20.4576 204.078 19.907 206.39C19.7969 203.968 20.8981 201.325 22.8802 199.783C20.6778 201.325 19.4665 203.968 19.1361 206.611C19.2463 205.509 19.4665 204.298 19.7969 203.197C20.1272 201.985 20.5677 200.884 21.3386 200.003C20.3475 200.884 19.4665 202.096 18.9159 203.307C18.2552 204.518 17.8147 205.95 17.4843 207.271C17.4843 204.738 18.5855 202.206 20.3475 200.444C18.5855 201.655 17.2641 203.637 16.7135 205.84C16.7135 204.849 17.0439 203.857 17.5945 202.977C16.9337 203.784 16.3831 204.665 15.9427 205.619C16.7135 203.747 17.5945 201.985 19.1361 200.774C16.7135 202.536 15.0617 205.179 14.5111 208.152C14.9515 205.95 15.5022 203.857 16.9337 202.206C15.2819 203.637 14.0706 205.619 13.7402 207.822C13.9605 205.95 14.7313 204.188 15.9427 202.756C17.154 201.215 19.026 200.113 20.8981 199.563C21.4854 199.416 22.0727 199.269 22.66 199.122C23.8714 199.012 25.1928 198.902 26.5143 199.012C26.5877 198.939 26.6978 198.902 26.8446 198.902C26.7712 198.682 26.6978 198.462 26.6243 198.241C26.3307 198.241 26.0371 198.278 25.7434 198.351C25.67 198.572 25.6333 198.755 25.6333 198.902C25.6333 198.755 25.5966 198.572 25.5231 198.351C25.3029 198.425 25.0827 198.462 24.8624 198.462C25.0827 198.388 25.3029 198.315 25.5231 198.241C25.5231 198.094 25.5231 197.984 25.5231 197.911C25.0827 197.984 24.6422 198.094 24.2017 198.241C24.2017 198.315 24.2017 198.425 24.2017 198.572C24.2017 198.425 24.2017 198.315 24.2017 198.241C23.6878 198.388 23.1739 198.572 22.66 198.792C22.9537 198.572 23.2473 198.425 23.541 198.351C23.3942 197.984 23.284 197.617 23.2106 197.25C22.9904 197.324 22.7701 197.397 22.5499 197.47C22.5499 197.838 22.5499 198.168 22.5499 198.462C22.4765 198.241 22.4031 197.948 22.3296 197.581C22.036 197.727 21.7423 197.874 21.4487 198.021C21.7423 197.874 22.036 197.691 22.3296 197.47C21.9993 196.149 22.2195 194.607 22.8802 193.396C21.779 194.607 21.1183 196.149 20.788 197.801C20.4576 196.259 20.8981 194.497 21.9993 193.286C20.6778 194.167 19.5766 195.378 18.8058 196.81C18.4754 197.36 18.1451 197.911 18.1451 198.572C18.1451 196.479 19.2463 194.387 20.8981 193.176C18.5856 193.947 16.3831 195.488 14.8414 197.47C16.1629 195.158 18.4754 193.506 21.0082 192.515C20.0171 192.625 19.026 192.735 18.0349 193.176C18.9159 192.405 19.907 192.185 21.0082 192.185C21.7791 192.185 22.7701 192.295 23.6511 192.515C21.9993 191.964 20.2374 191.744 18.5855 191.744C19.7602 191.524 20.9715 191.451 22.2195 191.524C20.2373 191.304 18.2552 191.304 16.273 191.524C18.3653 190.863 20.5677 191.083 22.7701 191.304C20.2006 190.79 17.6311 190.459 15.0617 190.313C17.3742 189.872 19.6868 189.872 21.8892 190.203C19.8336 189.689 17.778 189.285 15.7224 188.991C17.0438 188.771 18.4754 188.661 19.907 188.881C18.035 188 16.0528 187.119 13.9605 187.449C15.9426 186.899 18.035 187.229 19.907 187.89C20.9348 188.257 21.9259 188.734 22.8802 189.322C22.7334 189.175 22.5499 188.991 22.3296 188.771C20.4576 187.449 18.2552 186.569 15.9427 186.238C16.9337 186.018 17.9248 186.348 18.9159 186.679C20.7879 187.229 22.66 188 24.4219 189.101C23.4308 187.89 22.2195 186.899 20.788 186.238C23.1005 187.119 24.9725 188.771 26.6243 190.533C26.037 189.578 25.3396 188.698 24.5321 187.89C26.294 188.771 27.7256 190.202 29.1571 191.634C28.8635 191.12 28.5698 190.643 28.2762 190.203C28.7901 190.349 29.2306 190.57 29.5976 190.863C27.9091 189.395 26.1105 188.11 24.2017 187.009C26.5142 187.56 28.4964 188.881 30.3685 190.203C30.1482 189.542 29.5976 189.101 29.1571 188.661C27.9458 187.67 26.8446 186.679 25.6333 185.908C26.5876 186.275 27.542 186.715 28.4964 187.229C27.8357 185.688 26.7345 184.366 25.3029 183.485C26.9547 183.705 28.1661 185.027 29.2673 186.238C29.047 185.431 28.7534 184.623 28.3863 183.815C28.3129 183.595 28.2028 183.338 28.0559 183.045C29.304 184.586 30.295 186.275 31.0292 188.11C30.8089 185.688 29.928 183.375 28.6065 181.393C29.4875 182.274 30.2583 183.265 30.4786 184.476C30.3317 183.155 30.2951 181.87 30.3685 180.622C30.6621 181.43 30.8457 182.274 30.9191 183.155C31.0659 181.833 31.2495 180.549 31.4697 179.301C31.5431 181.062 31.4697 182.788 31.2494 184.476C31.6899 181.723 33.0114 179.08 34.9935 177.098C33.7822 179.741 33.1215 182.494 32.4608 185.357C32.6076 184.55 32.8645 183.816 33.2316 183.155C33.7822 181.833 34.6632 180.732 35.7644 180.071C34.4429 182.494 33.3417 185.137 32.9012 187.89C33.2316 186.348 33.7822 184.807 34.6632 183.485C34.7733 186.018 33.7822 188.33 33.2316 190.753C33.2316 190.753 33.2683 190.716 33.3417 190.643C33.4151 190.276 33.4886 189.872 33.562 189.432C33.8923 188.22 34.443 187.119 35.3239 186.458C34.8834 187.67 34.3328 188.881 33.8923 190.203C34.0392 190.129 34.186 190.056 34.3328 189.982C34.6265 189.248 35.0302 188.587 35.5441 188C35.3239 188.514 35.1404 189.065 34.9935 189.652C34.9935 189.652 35.0303 189.652 35.1037 189.652C35.434 189.542 35.8745 189.432 36.315 189.432C36.6087 189.432 36.9023 189.432 37.196 189.432C37.6364 188.771 38.187 188.147 38.8478 187.56C40.0591 186.348 41.4907 185.247 43.2526 184.586C44.9044 184.036 46.7765 184.036 48.3182 184.917C46.4461 184.696 44.4639 184.696 42.8121 185.688C43.9133 185.981 45.088 186.165 46.336 186.238C45.3816 186.312 44.4639 186.275 43.583 186.128C44.4639 186.495 45.3816 186.752 46.336 186.899C44.9044 187.339 43.4728 187.009 42.0413 186.789C43.0323 187.339 44.1336 187.56 45.2348 187.67C43.6931 188 42.0413 187.78 40.4996 187.56C41.3805 188.11 42.3716 188.441 43.4729 188.441C42.4451 188.587 41.454 188.661 40.4996 188.661C41.9311 188.771 43.3627 188.991 44.6842 189.652C43.0324 189.322 41.3806 189.211 39.7288 189.542C41.1603 189.872 42.8121 189.211 44.0235 189.982C42.5919 189.762 40.9401 189.652 39.5085 190.092C39.5085 190.092 39.5085 190.129 39.5085 190.203C39.8756 190.129 40.2059 190.092 40.4996 190.092C41.4907 190.092 42.702 190.092 43.4729 190.753C42.3716 190.643 41.1603 190.423 40.0591 190.643C40.2059 190.716 40.316 190.827 40.3895 190.973C40.6097 190.973 40.8299 190.973 41.0502 190.973C41.7109 191.083 42.3716 191.304 42.9222 191.634C44.5741 190.533 46.336 189.762 48.208 189.432C48.3549 189.432 48.5384 189.395 48.7586 189.322C50.0801 189.211 51.2914 189.872 52.2825 190.533C50.8509 189.982 49.3092 189.872 47.7676 190.203C48.8688 190.349 49.9333 190.643 50.9611 191.083C51.2914 191.194 51.7319 191.414 51.9521 191.744C50.6307 191.194 49.1991 190.973 47.7676 191.083C48.8688 191.524 49.9333 191.964 50.9611 192.405C49.7864 192.185 48.6485 191.854 47.5473 191.414C48.5751 192.075 49.6763 192.625 50.8509 193.066C49.4194 192.956 48.0979 192.515 46.8866 191.744C47.841 192.478 48.8688 193.102 49.97 193.616C48.7586 193.616 47.5473 193.286 46.5562 192.515C47.2169 193.102 47.9144 193.58 48.6485 193.947C47.9878 193.947 47.3271 193.837 46.6664 193.616C46.6664 193.763 46.7031 193.91 46.7765 194.057C47.3638 194.497 48.0245 194.791 48.7586 194.938C48.0979 195.048 47.5473 194.938 46.9967 194.607C46.9967 194.828 47.0334 195.011 47.1068 195.158C47.4005 195.305 47.6574 195.415 47.8777 195.488C47.3271 195.488 46.6664 195.378 46.1157 195.048C46.1157 195.195 46.1525 195.378 46.2259 195.598C46.3727 195.672 46.5195 195.745 46.6664 195.819C46.1157 195.819 45.5651 195.598 45.1247 195.378C45.1981 195.525 45.2348 195.709 45.2348 195.929C45.1614 195.709 45.088 195.488 45.0145 195.268C44.7209 195.048 44.4639 194.864 44.2437 194.717C44.2437 194.791 44.2437 194.864 44.2437 194.938C44.4639 195.488 44.9044 195.929 45.3449 196.259C47.3271 195.929 49.4194 195.929 51.2914 196.59C49.7497 196.479 47.9878 196.259 46.5562 196.92C49.1991 196.259 52.0623 196.92 54.1546 198.682C52.6129 197.581 50.6307 197.47 48.7586 197.47C49.8598 197.47 50.8509 198.131 51.7319 198.902C52.5028 199.563 53.0534 200.334 53.9343 200.884C53.0534 200.334 51.9521 200.003 50.9611 199.563C49.7497 199.122 48.6485 198.351 47.4372 197.581C48.3182 198.351 48.9789 199.122 49.7497 199.893C50.5206 200.664 51.4016 201.435 52.3926 201.765C50.5206 201.325 48.5384 200.554 47.1068 199.122C46.96 198.902 46.7765 198.682 46.5562 198.462C46.5562 198.535 46.5929 198.608 46.6664 198.682C47.4005 199.416 48.0979 200.187 48.7586 200.994C49.4194 201.765 50.0801 202.426 50.9611 202.646C49.1991 202.316 47.6574 201.325 46.5562 200.003C46.1157 199.563 45.7854 199.012 45.3449 198.572C45.6752 199.012 46.0056 199.563 46.2259 200.003C46.8866 201.545 47.8777 202.866 49.3092 203.637C48.208 203.417 47.3271 202.756 46.5562 201.985C46.2626 201.912 45.9689 201.839 45.6753 201.765C45.6753 201.839 45.712 201.949 45.7854 202.096C46.5562 202.316 47.2169 202.756 47.6574 203.307C47.1435 202.94 46.5562 202.646 45.8955 202.426C45.9689 202.72 46.0423 202.977 46.1157 203.197C46.6296 203.49 47.1068 203.857 47.5473 204.298C47.1068 204.078 46.6664 203.821 46.2259 203.527C46.2993 203.821 46.336 204.114 46.336 204.408C46.1892 204.041 46.0423 203.711 45.8955 203.417C45.455 203.197 45.0513 202.977 44.6842 202.756C44.6842 202.903 44.6842 203.013 44.6842 203.087C45.1247 203.454 45.5284 203.857 45.8955 204.298C47.1068 204.628 48.2081 205.399 49.089 206.17C50.1902 207.161 51.1813 208.262 51.9521 209.584C52.723 210.795 53.1635 212.337 53.1635 213.768ZM54.1546 201.104C54.0811 201.031 54.0077 200.958 53.9343 200.884C54.0077 200.958 54.0811 201.031 54.1546 201.104ZM32.1304 223.459C32.057 223.459 32.0203 223.422 32.0203 223.349C32.0203 223.422 32.057 223.459 32.1304 223.459ZM46.0056 193.396C46.1524 193.543 46.2993 193.653 46.4461 193.726C46.4461 193.653 46.4094 193.58 46.336 193.506C46.2626 193.433 46.1524 193.396 46.0056 193.396ZM46.0056 194.167C46.0056 194.24 46.0056 194.314 46.0056 194.387C46.2993 194.681 46.6296 194.938 46.9967 195.158C46.9233 194.938 46.8499 194.717 46.7765 194.497C46.4828 194.424 46.2259 194.314 46.0056 194.167ZM45.5651 193.836C45.5651 193.836 45.5651 193.873 45.5651 193.947C45.5651 193.947 45.5651 193.91 45.5651 193.836ZM45.1247 194.167C45.3449 194.717 45.6753 195.268 46.2259 195.598C46.079 195.378 45.9689 195.121 45.8955 194.828C45.6018 194.681 45.3449 194.461 45.1247 194.167ZM23.2106 197.03C22.9904 195.929 22.9537 194.791 23.1005 193.616C22.7334 194.864 22.5499 196.112 22.5499 197.36C22.7701 197.214 22.9904 197.103 23.2106 197.03ZM23.6511 193.286C23.7979 194.461 23.8346 195.635 23.7612 196.81C23.9081 196.736 24.0549 196.663 24.2017 196.59C24.1283 195.488 23.9448 194.387 23.6511 193.286ZM24.2017 196.92C24.0549 196.993 23.9081 197.03 23.7612 197.03C23.6878 197.47 23.6144 197.874 23.541 198.241C23.7612 198.168 23.9815 198.095 24.2017 198.021C24.2017 197.654 24.2017 197.287 24.2017 196.92ZM45.455 202.316C45.1614 202.242 44.8677 202.206 44.5741 202.206C44.5741 202.279 44.5741 202.389 44.5741 202.536C45.0145 202.683 45.4183 202.83 45.7854 202.977C45.6386 202.756 45.5284 202.536 45.455 202.316ZM44.3538 200.003C44.207 199.71 44.0234 199.489 43.8032 199.343C43.8766 199.489 43.95 199.673 44.0235 199.893C44.1703 199.893 44.2804 199.93 44.3538 200.003ZM44.2437 200.334C44.2437 200.334 44.2437 200.37 44.2437 200.444C44.3905 200.444 44.5374 200.48 44.6842 200.554C44.6842 200.48 44.6475 200.407 44.5741 200.334C44.4272 200.334 44.3171 200.334 44.2437 200.334ZM43.2526 201.545C43.4728 201.545 43.6931 201.545 43.9133 201.545C43.8399 201.545 43.8032 201.508 43.8032 201.435C43.6564 201.435 43.4728 201.472 43.2526 201.545ZM43.0324 202.096C43.0324 202.169 43.0324 202.206 43.0324 202.206C43.3994 202.279 43.8032 202.353 44.2437 202.426C44.1703 202.353 44.1336 202.242 44.1336 202.096C43.7665 202.096 43.3994 202.096 43.0324 202.096ZM43.4729 202.316C43.8399 202.536 44.1703 202.756 44.4639 202.977C44.3905 202.903 44.3538 202.793 44.3538 202.646C44.0602 202.573 43.7665 202.463 43.4729 202.316ZM44.9044 201.215C44.9044 201.215 44.9411 201.215 45.0145 201.215C44.9411 201.141 44.9044 201.068 44.9044 200.994C44.6842 200.921 44.5006 200.884 44.3538 200.884C44.3538 200.958 44.3538 201.031 44.3538 201.104C44.574 201.104 44.7576 201.141 44.9044 201.215ZM44.4639 201.545C44.5373 201.618 44.5741 201.692 44.5741 201.765C44.7943 201.765 45.0146 201.802 45.2348 201.875C45.2348 201.802 45.1981 201.728 45.1247 201.655C44.9044 201.582 44.6842 201.545 44.4639 201.545ZM45.7854 201.215C45.6386 201.141 45.4917 201.068 45.3449 200.994C45.4183 201.141 45.455 201.251 45.455 201.325C45.7487 201.398 45.9689 201.508 46.1157 201.655C46.0423 201.508 45.9322 201.361 45.7854 201.215ZM45.1247 200.444C45.1981 200.517 45.2348 200.591 45.2348 200.664C45.3816 200.737 45.4917 200.811 45.5651 200.884C45.4917 200.737 45.4183 200.591 45.3449 200.444C45.2715 200.444 45.1981 200.444 45.1247 200.444ZM45.3449 200.334C45.0512 199.893 44.8677 199.379 44.7943 198.792C44.7943 199.306 44.9044 199.783 45.1247 200.224C45.1981 200.297 45.2715 200.334 45.3449 200.334ZM43.583 194.828C43.583 195.488 43.8032 196.039 44.2437 196.479C44.5373 196.406 44.8677 196.333 45.2348 196.259C44.9411 196.186 44.6842 196.076 44.4639 195.929C44.4639 196.002 44.4639 196.076 44.4639 196.149C44.3905 196.076 44.3538 195.966 44.3538 195.819C43.9867 195.598 43.7298 195.268 43.583 194.828ZM43.4729 200.884C43.3994 200.884 43.2893 200.884 43.1425 200.884C43.2893 200.884 43.3994 200.884 43.4729 200.884ZM42.702 200.224C42.702 200.297 42.702 200.334 42.702 200.334C42.8488 200.334 42.9956 200.334 43.1425 200.334C43.1425 200.334 43.1425 200.297 43.1425 200.224C42.9956 200.224 42.8488 200.224 42.702 200.224ZM39.3984 190.753C39.4718 190.827 39.5452 190.937 39.6186 191.083C39.8389 191.01 40.0591 190.973 40.2794 190.973C40.1325 190.9 39.9857 190.79 39.8388 190.643C39.692 190.716 39.5452 190.753 39.3984 190.753ZM34.7733 211.456C34.8467 211.456 34.9201 211.493 34.9935 211.566C35.067 211.493 35.1037 211.456 35.1037 211.456C35.1771 211.309 35.2505 211.199 35.3239 211.125C34.81 210.905 34.3328 210.612 33.8923 210.244C34.0392 210.465 34.186 210.685 34.3328 210.905C34.4796 211.125 34.6265 211.309 34.7733 211.456C34.0025 210.905 33.2316 210.134 32.681 209.364C32.9012 210.244 33.3417 211.125 33.8923 211.896C34.1126 212.117 34.3328 212.337 34.5531 212.557C34.6265 212.41 34.7366 212.3 34.8834 212.227C35.0302 212.153 35.1404 212.153 35.2138 212.227C35.2138 212.153 35.2138 212.117 35.2138 212.117C34.9936 212.006 34.9935 211.786 34.9935 211.566C34.9201 211.566 34.8467 211.529 34.7733 211.456ZM35.434 213.548C35.3606 213.475 35.3239 213.401 35.3239 213.328C35.2138 213.438 35.1037 213.548 34.9935 213.548C34.7733 213.548 34.5531 213.438 34.4429 213.218C34.4429 213.144 34.4429 213.071 34.4429 212.997C34.4429 212.924 34.4429 212.887 34.4429 212.887C33.6721 212.777 33.0114 212.227 32.5709 211.566C33.2316 212.447 34.1126 213.328 35.1037 213.768C35.1037 213.768 35.1404 213.732 35.2138 213.658C35.2138 213.658 35.2505 213.622 35.3239 213.548C35.3239 213.548 35.3606 213.548 35.434 213.548ZM27.7256 197.691C27.9458 197.617 28.1293 197.581 28.2762 197.581C28.3496 197.581 28.423 197.544 28.4964 197.47C28.423 197.47 28.3863 197.434 28.3863 197.36C28.166 197.36 27.9091 197.397 27.6155 197.47C27.6155 197.544 27.6521 197.617 27.7256 197.691ZM27.7256 198.462C28.0192 198.388 28.3496 198.315 28.7167 198.241C28.3496 198.168 28.0192 198.131 27.7256 198.131C27.7256 198.278 27.7256 198.388 27.7256 198.462ZM39.7288 193.836C39.7288 193.763 39.692 193.69 39.6186 193.616C39.325 193.69 39.0313 193.763 38.7376 193.836C38.8111 193.983 38.8845 194.13 38.9579 194.277C39.1781 194.277 39.3984 194.314 39.6186 194.387C39.9123 194.167 40.1692 193.91 40.3895 193.616C40.5363 193.543 40.6464 193.469 40.7198 193.396C40.3528 193.469 40.0224 193.543 39.7288 193.616C39.7288 193.69 39.7288 193.763 39.7288 193.836ZM35.3239 211.125C35.3973 211.052 35.5074 210.979 35.6543 210.905C35.7277 210.905 35.8011 210.905 35.8745 210.905C35.8011 210.905 35.7644 210.868 35.7644 210.795C35.6176 210.868 35.434 210.868 35.2138 210.795C35.2138 210.795 35.1771 210.758 35.1037 210.685C34.9935 210.575 35.1037 210.465 35.1037 210.355C35.1771 210.208 35.2505 210.098 35.3239 210.024C35.2505 209.951 35.1771 209.914 35.1037 209.914C34.9568 210.061 34.81 210.171 34.6632 210.244C34.7366 210.098 34.81 209.914 34.8834 209.694C34.5898 209.474 34.2961 209.217 34.0025 208.923C34.0759 209.07 34.1493 209.217 34.2227 209.364C34.443 210.024 34.7733 210.685 35.3239 211.125ZM35.434 209.694C35.434 209.62 35.434 209.547 35.434 209.474C35.3606 209.474 35.3239 209.51 35.3239 209.584C35.3239 209.657 35.3606 209.694 35.434 209.694ZM34.3328 205.509C34.3328 205.509 34.2961 205.546 34.2227 205.619C34.3695 206.794 34.6632 207.932 35.1037 209.033C35.1037 208.886 35.1404 208.776 35.2138 208.703C34.9201 207.675 34.6265 206.611 34.3328 205.509ZM41.7109 192.515C40.9768 192.515 40.2426 192.588 39.5085 192.735C39.5819 192.809 39.6186 192.882 39.6186 192.956C40.1325 192.956 40.6097 192.992 41.0502 193.066C41.197 192.992 41.3438 192.882 41.4907 192.735C41.5641 192.662 41.6375 192.588 41.7109 192.515ZM40.0591 191.854C39.9123 191.707 39.8022 191.597 39.7288 191.524C39.4351 191.524 39.1781 191.561 38.9579 191.634C39.0313 191.707 39.068 191.781 39.068 191.854C39.4351 191.854 39.7654 191.854 40.0591 191.854ZM38.6275 191.083C38.6275 191.157 38.6275 191.194 38.6275 191.194C38.7744 191.12 38.9579 191.083 39.1781 191.083C39.1047 191.01 39.0313 190.973 38.9579 190.973C38.8111 190.973 38.701 191.01 38.6275 191.083ZM38.4073 192.956C38.4073 193.029 38.4073 193.066 38.4073 193.066C38.7009 192.992 38.9946 192.956 39.2882 192.956C39.2148 192.882 39.1781 192.809 39.1781 192.735C38.8845 192.809 38.6275 192.882 38.4073 192.956ZM37.5263 194.387C37.9668 194.314 38.444 194.277 38.9579 194.277C38.8111 194.13 38.701 194.02 38.6275 193.947C38.2605 194.093 37.8934 194.24 37.5263 194.387ZM37.0858 195.048C37.6731 195.048 38.2605 195.085 38.8478 195.158C38.9946 195.011 39.1414 194.864 39.2882 194.717C38.5541 194.791 37.82 194.901 37.0858 195.048ZM36.7555 195.378C37.3428 195.452 37.8934 195.525 38.4073 195.598C38.5541 195.525 38.6642 195.415 38.7376 195.268C38.0769 195.268 37.4162 195.305 36.7555 195.378ZM36.5352 195.709C36.9757 195.929 37.4162 196.112 37.8567 196.259C38.0035 196.039 38.1503 195.855 38.2972 195.709C37.7099 195.709 37.1225 195.709 36.5352 195.709ZM36.315 196.369C36.7555 196.369 37.2327 196.406 37.7466 196.479C37.7466 196.406 37.7833 196.333 37.8567 196.259C37.3428 196.259 36.8289 196.296 36.315 196.369ZM35.2138 190.423C35.2872 190.57 35.3973 190.716 35.5441 190.863C35.5441 190.79 35.5809 190.716 35.6543 190.643C35.5074 190.57 35.3606 190.496 35.2138 190.423ZM34.7733 190.643C34.8467 190.937 34.9201 191.267 34.9935 191.634C35.067 191.487 35.1404 191.377 35.2138 191.304C35.067 191.083 34.9201 190.863 34.7733 190.643ZM34.5531 191.854C34.5531 191.928 34.5898 192.038 34.6632 192.185C34.6632 192.111 34.6632 192.075 34.6632 192.075C34.6632 191.854 34.6265 191.671 34.5531 191.524C34.5531 191.597 34.5531 191.707 34.5531 191.854ZM33.7822 191.414C33.7822 191.34 33.8189 191.267 33.8923 191.194C33.8923 190.973 33.8923 190.753 33.8923 190.533C33.8189 190.827 33.7822 191.12 33.7822 191.414ZM33.1215 191.744C33.1215 191.597 33.1582 191.451 33.2316 191.304C33.1582 191.377 33.1215 191.451 33.1215 191.524C33.1215 191.597 33.1215 191.671 33.1215 191.744ZM32.3506 193.947C32.4241 194.02 32.4608 194.093 32.4608 194.167C32.5342 194.24 32.6076 194.314 32.681 194.387C32.681 194.387 32.681 194.35 32.681 194.277C32.6076 194.13 32.4975 193.983 32.3506 193.836C32.3506 193.836 32.3506 193.873 32.3506 193.947ZM32.0203 193.506C32.0937 193.58 32.1671 193.653 32.2405 193.726C32.2405 193.653 32.2405 193.58 32.2405 193.506C32.1671 193.506 32.1304 193.469 32.1304 193.396C32.1304 193.396 32.0937 193.433 32.0203 193.506ZM31.5798 192.845C31.7266 192.992 31.8368 193.139 31.9102 193.286C31.9102 193.212 31.9102 193.139 31.9102 193.066C31.8368 192.992 31.7633 192.882 31.6899 192.735C31.6899 192.809 31.6532 192.845 31.5798 192.845ZM30.9191 192.075C31.1393 192.221 31.3229 192.405 31.4697 192.625C31.3229 192.405 31.1393 192.221 30.9191 192.075ZM29.2673 197.25C29.2673 197.324 29.2673 197.36 29.2673 197.36C29.3407 197.36 29.4141 197.36 29.4875 197.36C29.4141 197.287 29.3774 197.25 29.3774 197.25C29.304 197.25 29.2673 197.25 29.2673 197.25ZM28.6065 197.36C28.6065 197.36 28.6433 197.397 28.7167 197.47C28.7901 197.47 28.8635 197.47 28.9369 197.47C28.9369 197.397 28.9369 197.324 28.9369 197.25C28.7901 197.324 28.68 197.36 28.6065 197.36ZM28.3863 196.479C28.3863 196.553 28.423 196.663 28.4964 196.81C28.4964 196.81 28.5331 196.81 28.6065 196.81C28.5331 196.663 28.4597 196.553 28.3863 196.479ZM27.9458 196.479C27.799 196.479 27.6154 196.479 27.3952 196.479C27.4686 196.626 27.542 196.81 27.6155 197.03C27.7623 196.957 27.9458 196.883 28.1661 196.81C28.0927 196.736 28.0192 196.626 27.9458 196.479ZM26.8446 195.048C27.0648 195.341 27.2117 195.672 27.2851 196.039C27.4319 196.039 27.5787 196.039 27.7256 196.039C27.4319 195.672 27.1383 195.341 26.8446 195.048ZM25.6333 194.497C26.0003 195.011 26.2573 195.562 26.4041 196.149C26.551 196.149 26.6611 196.112 26.7345 196.039C26.4408 195.525 26.0738 195.011 25.6333 194.497ZM24.2017 193.726C24.422 194.607 24.5321 195.562 24.5321 196.59C24.7523 196.516 24.9726 196.443 25.1928 196.369C24.9726 195.415 24.6422 194.534 24.2017 193.726ZM25.413 197.581C25.413 197.287 25.3763 196.993 25.3029 196.7C25.0093 196.773 24.7156 196.846 24.4219 196.92C24.4219 197.287 24.3853 197.654 24.3118 198.021C24.6789 197.874 25.046 197.727 25.413 197.581ZM25.6333 196.259C25.7801 196.259 25.9269 196.222 26.0737 196.149C25.7067 195.268 25.2295 194.46 24.6422 193.726C25.0827 194.497 25.413 195.378 25.6333 196.259ZM25.8535 197.47C26.0004 197.397 26.1839 197.324 26.4041 197.25C26.3307 197.03 26.2573 196.81 26.1839 196.59C26.037 196.59 25.8902 196.59 25.7434 196.59C25.8168 196.883 25.8535 197.177 25.8535 197.47ZM26.6243 197.911C26.5509 197.838 26.5143 197.764 26.5143 197.691C26.294 197.764 26.0738 197.801 25.8535 197.801C25.7801 197.948 25.7434 198.058 25.7434 198.131C26.0371 198.058 26.3307 197.984 26.6243 197.911ZM26.7345 197.25C26.8813 197.177 27.0281 197.103 27.175 197.03C27.1015 196.883 27.0281 196.7 26.9547 196.479C26.8079 196.479 26.6611 196.479 26.5143 196.479C26.5877 196.7 26.6611 196.957 26.7345 197.25ZM26.7345 197.581C26.7345 197.727 26.7712 197.838 26.8446 197.911C26.9914 197.838 27.175 197.764 27.3952 197.691C27.3952 197.617 27.3952 197.544 27.3952 197.47C27.175 197.544 26.9547 197.581 26.7345 197.581ZM26.8446 198.902C27.0648 198.755 27.3218 198.645 27.6155 198.572C27.542 198.425 27.5053 198.278 27.5053 198.131C27.2851 198.205 27.0648 198.241 26.8446 198.241C26.8446 198.462 26.8446 198.682 26.8446 198.902ZM22.1094 204.298C21.8892 204.518 21.7056 204.702 21.5588 204.849C21.4854 204.995 21.4487 205.142 21.4487 205.289C21.6689 204.995 21.8892 204.738 22.1094 204.518C22.1094 204.445 22.1094 204.371 22.1094 204.298ZM22.3296 203.747C22.4398 202.977 22.8802 202.316 23.3207 201.765C23.6144 201.325 23.9448 200.921 24.3118 200.554C24.2384 200.554 24.2017 200.554 24.2017 200.554C23.1005 201.545 22.2195 202.756 21.779 204.188C21.9259 204.041 22.1094 203.894 22.3296 203.747ZM23.3207 203.417C23.0271 203.637 22.7334 203.857 22.4398 204.078C22.4398 204.151 22.4031 204.225 22.3296 204.298C22.6233 204.004 22.9537 203.711 23.3207 203.417ZM25.413 200.664C25.3396 200.664 25.2662 200.664 25.1928 200.664C24.3118 201.325 23.541 202.206 22.8802 203.197C22.9537 203.197 23.0271 203.16 23.1005 203.087C23.3207 202.94 23.5777 202.793 23.8713 202.646C24.3118 201.912 24.8257 201.251 25.413 200.664ZM26.294 201.325C26.3674 201.251 26.4775 201.141 26.6243 200.994C26.4775 200.921 26.3307 200.884 26.1839 200.884C25.8902 201.104 25.5966 201.361 25.3029 201.655C25.1561 201.728 25.0093 201.839 24.8624 201.985C25.3029 201.765 25.7801 201.545 26.294 201.325ZM27.8357 208.703C27.2851 206.721 26.6244 204.738 25.8535 202.866C26.0004 203.454 26.1472 204.041 26.294 204.628C26.6244 205.84 26.8446 206.941 26.9547 208.152C26.9547 208.96 26.8446 209.767 26.6243 210.575C26.9914 209.914 27.3952 209.29 27.8357 208.703ZM28.4964 207.822C28.2028 206.794 27.8724 205.73 27.5053 204.628C27.2851 203.747 27.0649 202.977 26.5143 202.316C27.5053 204.188 27.9458 206.5 27.9458 208.703C28.0926 208.409 28.2762 208.115 28.4964 207.822ZM29.4875 206.5C29.047 204.849 28.1661 203.197 26.9547 201.875C27.9458 203.197 28.4964 204.849 28.6065 206.5C28.6065 206.941 28.6065 207.381 28.4964 207.822C28.7901 207.381 29.1204 206.941 29.4875 206.5ZM30.9191 204.628C30.7723 204.261 30.5887 203.931 30.3685 203.637C30.5153 204.078 30.5887 204.555 30.5887 205.069C30.0381 203.637 29.047 202.426 27.8357 201.655C29.047 202.977 29.5976 204.738 29.4875 206.5C29.8546 205.986 30.2216 205.473 30.5887 204.959C30.7355 204.812 30.8457 204.702 30.9191 204.628ZM31.9102 207.822C31.7633 207.455 31.6532 207.124 31.5798 206.831C31.6532 207.271 31.7266 207.675 31.8 208.042C31.8 207.969 31.8368 207.895 31.9102 207.822ZM34.3328 212.447C34.4062 212.52 34.4796 212.594 34.5531 212.667C34.4796 212.594 34.4062 212.52 34.3328 212.447ZM36.0947 212.227C36.0213 212.227 35.9846 212.19 35.9846 212.117C35.8378 212.19 35.691 212.227 35.5441 212.227C35.5441 212.227 35.5074 212.227 35.434 212.227C35.5808 212.3 35.6543 212.373 35.6543 212.447C35.8011 212.373 35.9479 212.3 36.0947 212.227ZM36.0947 213.768C36.0213 213.842 35.9846 213.878 35.9846 213.878C35.9846 213.878 35.9479 213.878 35.8745 213.878C35.9479 213.878 35.9846 213.952 35.9846 214.099C35.9846 213.952 36.0213 213.842 36.0947 213.768ZM36.6453 213.438C36.6453 213.365 36.6086 213.254 36.5352 213.108C36.5352 213.181 36.4985 213.291 36.4251 213.438C36.4985 213.438 36.5352 213.438 36.5352 213.438C36.6086 213.438 36.6453 213.438 36.6453 213.438ZM37.6364 212.117C37.7098 211.896 37.7466 211.713 37.7466 211.566C37.7466 211.493 37.7466 211.456 37.7466 211.456C37.5263 211.125 37.7466 210.795 37.9668 210.795C38.0402 210.501 38.1136 210.244 38.187 210.024C37.9668 210.391 37.7099 210.722 37.4162 211.015C37.4896 211.015 37.563 211.089 37.6364 211.236C37.7466 211.346 37.7466 211.676 37.5263 211.896C37.5263 211.97 37.563 212.043 37.6364 212.117ZM37.8567 212.667C37.8567 212.52 37.8567 212.41 37.8567 212.337C37.7833 212.41 37.7466 212.447 37.7466 212.447C37.82 212.52 37.8567 212.594 37.8567 212.667ZM38.4073 213.218C38.3339 213.218 38.2972 213.218 38.2972 213.218C38.0769 213.108 37.9668 212.887 37.8567 212.667C37.9301 212.814 37.9668 212.961 37.9668 213.108C37.9668 213.108 37.9301 213.144 37.8567 213.218C37.9301 213.365 37.9668 213.475 37.9668 213.548C37.9668 213.548 38.0035 213.585 38.0769 213.658C38.0769 213.658 38.1136 213.658 38.187 213.658C38.2604 213.511 38.3339 213.365 38.4073 213.218ZM39.3984 208.262C39.2515 208.996 39.0313 209.694 38.7376 210.355C38.7376 210.575 38.701 210.758 38.6275 210.905C38.701 210.979 38.7744 211.089 38.8478 211.236C38.8478 211.346 38.8478 211.566 38.7376 211.676C38.6275 211.786 38.4073 211.786 38.2972 211.786C38.2237 211.786 38.187 211.786 38.187 211.786C38.1136 211.86 38.0402 211.933 37.9668 212.006C38.0402 212.006 38.1136 212.006 38.187 212.006C38.3339 212.006 38.444 212.043 38.5174 212.117C38.5908 212.19 38.7009 212.263 38.8478 212.337C39.2882 211.015 39.5085 209.694 39.3984 208.262ZM42.2615 192.075C42.4818 192.001 42.6653 191.891 42.8121 191.744C41.821 191.524 40.9401 191.304 39.949 191.414C40.0224 191.561 40.0958 191.707 40.1692 191.854C40.3161 191.854 40.4629 191.854 40.6097 191.854C40.9401 191.744 41.3806 191.744 41.821 191.854C41.9679 191.928 42.1147 192.001 42.2615 192.075ZM42.3716 199.563C42.4451 199.563 42.5552 199.563 42.702 199.563C42.6286 199.489 42.5552 199.416 42.4818 199.343C42.4084 199.343 42.3716 199.343 42.3716 199.343C42.3716 199.416 42.3716 199.489 42.3716 199.563ZM42.9222 202.756C42.8488 202.683 42.8121 202.573 42.8121 202.426C42.7387 202.426 42.702 202.426 42.702 202.426C42.6286 202.499 42.5552 202.573 42.4818 202.646C42.6286 202.646 42.7754 202.683 42.9222 202.756ZM45.7854 204.298C45.4183 204.004 45.0145 203.711 44.5741 203.417C44.5741 203.49 44.5741 203.527 44.5741 203.527C44.5741 203.454 44.5741 203.417 44.5741 203.417C44.0602 203.05 43.5463 202.756 43.0324 202.536C43.0324 202.609 43.0324 202.683 43.0324 202.756C43.1058 202.756 43.1792 202.793 43.2526 202.866C43.6931 203.013 44.0969 203.233 44.4639 203.527C44.9044 203.747 45.3449 204.078 45.7854 204.298Z" fill="url(#paint10_linear_1482_1144)"/>
<path d="M15.943 205.619C15.6493 206.354 15.4291 207.124 15.2822 207.932C15.5025 207.124 15.7227 206.354 15.943 205.619Z" fill="url(#paint11_linear_1482_1144)"/>
</g>
<defs>
<linearGradient id="paint0_linear_1482_1144" x1="451.526" y1="81.735" x2="451.078" y2="96.6298" gradientUnits="userSpaceOnUse">
<stop stop-color="#D2E6FA"/>
<stop offset="1" stop-color="#F2F6FA"/>
</linearGradient>
<linearGradient id="paint1_linear_1482_1144" x1="451.525" y1="94.0687" x2="450.196" y2="288.932" gradientUnits="userSpaceOnUse">
<stop stop-color="#D2E6FA"/>
<stop offset="1" stop-color="#F2F6FA"/>
</linearGradient>
<linearGradient id="paint2_linear_1482_1144" x1="205.791" y1="119.506" x2="204.271" y2="283.882" gradientUnits="userSpaceOnUse">
<stop stop-color="#D2E6FA"/>
<stop offset="1" stop-color="#F2F6FA"/>
</linearGradient>
<linearGradient id="paint3_linear_1482_1144" x1="460.118" y1="255.026" x2="460.398" y2="316.797" gradientUnits="userSpaceOnUse">
<stop stop-color="#ECF3FA"/>
<stop offset="1" stop-color="#F2F6FA"/>
</linearGradient>
<linearGradient id="paint4_linear_1482_1144" x1="94.3487" y1="169.28" x2="94.3286" y2="170.61" gradientUnits="userSpaceOnUse">
<stop stop-color="#D2E6FA"/>
<stop offset="1" stop-color="#F2F6FA"/>
</linearGradient>
<linearGradient id="paint5_linear_1482_1144" x1="110.702" y1="199.233" x2="110.644" y2="200.027" gradientUnits="userSpaceOnUse">
<stop stop-color="#D2E6FA"/>
<stop offset="1" stop-color="#F2F6FA"/>
</linearGradient>
<linearGradient id="paint6_linear_1482_1144" x1="87.0805" y1="163.443" x2="84.2471" y2="279.076" gradientUnits="userSpaceOnUse">
<stop stop-color="#D2E6FA"/>
<stop offset="1" stop-color="#F2F6FA"/>
</linearGradient>
<linearGradient id="paint7_linear_1482_1144" x1="108.444" y1="196.7" x2="108.329" y2="199.89" gradientUnits="userSpaceOnUse">
<stop stop-color="#D2E6FA"/>
<stop offset="1" stop-color="#F2F6FA"/>
</linearGradient>
<linearGradient id="paint8_linear_1482_1144" x1="27.6706" y1="182.054" x2="27.652" y2="183.251" gradientUnits="userSpaceOnUse">
<stop stop-color="#D2E6FA"/>
<stop offset="1" stop-color="#F2F6FA"/>
</linearGradient>
<linearGradient id="paint9_linear_1482_1144" x1="13.6849" y1="207.822" x2="13.6449" y2="208.485" gradientUnits="userSpaceOnUse">
<stop stop-color="#D2E6FA"/>
<stop offset="1" stop-color="#F2F6FA"/>
</linearGradient>
<linearGradient id="paint10_linear_1482_1144" x1="33.9474" y1="177.098" x2="31.5186" y2="276.235" gradientUnits="userSpaceOnUse">
<stop stop-color="#D2E6FA"/>
<stop offset="1" stop-color="#F2F6FA"/>
</linearGradient>
<linearGradient id="paint11_linear_1482_1144" x1="15.6126" y1="205.619" x2="15.4948" y2="208.41" gradientUnits="userSpaceOnUse">
<stop stop-color="#D2E6FA"/>
<stop offset="1" stop-color="#F2F6FA"/>
</linearGradient>
</defs>
</svg>
