<svg width="115" height="60" viewBox="0 0 115 60" fill="none" xmlns="http://www.w3.org/2000/svg">
<g clip-path="url(#clip0_1329_1327)">
<path fill-rule="evenodd" clip-rule="evenodd" d="M7.31285 30.4529C8.36117 30.4529 9.30968 30.8832 9.99073 31.5762L10.6973 30.8816C9.83663 30.005 8.63822 29.4613 7.31285 29.4613C5.9843 29.4613 4.78349 30.0082 3.922 30.888L4.63019 31.5818C5.31124 30.8848 6.26135 30.4529 7.31285 30.4529ZM7.31285 34.2102L6.17592 33.0964C6.46494 32.801 6.86734 32.6174 7.31285 32.6174C7.75677 32.6174 8.15917 32.8002 8.4474 33.094L7.31285 34.2102ZM5.71763 32.6469L5.10205 32.0441C5.66334 31.4701 6.44658 31.114 7.31285 31.114C8.17674 31.114 8.95838 31.4685 9.51967 32.0401L8.90569 32.6437C8.50009 32.2309 7.93641 31.9755 7.31285 31.9755C6.6877 31.9755 6.12242 32.2325 5.71763 32.6469ZM3.4693 30.4441L2.82019 29.8078C3.96192 28.6421 5.55236 27.9187 7.31285 27.9187C9.06856 27.9187 10.6566 28.6389 11.7975 29.7998L11.1492 30.4369C10.1736 29.4437 8.81467 28.8273 7.31285 28.8273C5.80705 28.8273 4.44576 29.4469 3.4693 30.4441Z" fill="#006DB7"/>
<path fill-rule="evenodd" clip-rule="evenodd" d="M3.07239 34.9532H11.4709C5.45086 50.1885 4.40973 59.1076 10.504 58.884C-2.89175 59.6649 -1.1568 46.6356 3.07239 34.9532Z" fill="#006DB7"/>
<path fill-rule="evenodd" clip-rule="evenodd" d="M10.8016 11.6165C18.4568 -0.869072 30.8681 -2.13296 39.7121 2.40042C49.5222 7.45437 52.5698 19.1232 50.117 29.3788C47.9613 38.7433 41.7928 47.2903 33.8406 52.7898C29.0102 56.0601 23.5459 58.2541 17.6001 59.2202C22.0592 57.8821 26.0369 55.094 29.1587 51.6752C31.0909 49.5938 32.8003 47.2161 34.1384 44.7634C38.6718 38.6691 40.7525 32.7233 40.901 27.5209C41.1988 20.5348 38.1512 13.6229 31.76 10.4277C26.1854 7.60288 18.6796 7.75218 10.8016 11.6165Z" fill="#F16127"/>
<path fill-rule="evenodd" clip-rule="evenodd" d="M5.00466 25.6632C11.2474 13.3261 24.1051 12.4343 31.6852 17.7852C34.7327 19.9402 36.6649 22.9877 37.5567 26.6293C38.597 31.1626 37.8537 35.9196 36.1451 40.3787C34.6585 44.3915 32.2058 48.4051 29.159 51.6754C24.8484 56.4316 18.6799 60.0731 12.065 59.9989C9.53805 59.9989 7.01107 59.4041 4.55835 57.9925C7.68014 59.4791 12.5113 58.9586 15.4838 57.7697C20.3893 55.7625 24.3278 51.6012 26.7806 46.9928C29.8273 41.3448 32.2058 32.2772 27.3754 27.0756C22.9905 22.2444 14.2207 20.6092 5.00466 25.6632Z" fill="#00A14B"/>
<path d="M55.0902 29.813H57.6579C58.9473 29.813 59.8543 30.1819 60.3797 30.9164C60.9026 31.6517 61.0376 32.5995 60.7837 33.7611C60.5226 34.958 59.9565 35.9512 59.0854 36.74C58.2144 37.5304 57.2619 37.9249 56.2287 37.9249H52.2415L55.0902 29.813ZM56.2543 31.1727L54.3628 36.5716H55.8998C56.7078 36.5716 57.396 36.3057 57.9653 35.7747C58.5369 35.2414 58.9114 34.5635 59.091 33.7388C59.2571 32.9803 59.1581 32.3615 58.7932 31.8865C58.4291 31.4106 57.8463 31.1727 57.0455 31.1727H56.2543ZM62.9793 31.0282C63.0296 30.7982 63.1502 30.6034 63.3394 30.4413C63.5302 30.2785 63.733 30.1978 63.9518 30.1978C64.1729 30.1978 64.3422 30.2785 64.4635 30.4413C64.5825 30.6034 64.6176 30.7982 64.5673 31.0282C64.517 31.2597 64.3965 31.4561 64.2065 31.6182C64.014 31.7811 63.8096 31.8617 63.5885 31.8617C63.3697 31.8617 63.2021 31.7811 63.0831 31.6182C62.9641 31.4561 62.929 31.2597 62.9793 31.0282ZM64.0348 32.5244L62.1314 37.9249H60.6L62.5034 32.5244H64.0348ZM70.1259 32.5244L69.7227 33.7148H68.8939C68.9602 33.9983 68.9626 34.2825 68.8995 34.5691C68.779 35.1224 68.4843 35.5903 68.0125 35.9704C67.5422 36.3536 66.9777 36.5436 66.3167 36.5436C65.9821 36.5436 65.7386 36.5596 65.5901 36.5931C65.4416 36.625 65.3522 36.7057 65.325 36.8326C65.3099 36.9021 65.3434 36.9636 65.4224 37.0147C65.5039 37.069 65.8616 37.1496 66.4963 37.2606C67.1294 37.37 67.5582 37.5664 67.7801 37.8498C68.0037 38.1309 68.0684 38.4814 67.9774 38.8997C67.7211 40.0734 66.7095 40.6594 64.9426 40.6594C64.1322 40.6594 63.547 40.5389 63.1877 40.2985C62.8284 40.059 62.6951 39.7365 62.7837 39.3301C62.8995 38.7991 63.4112 38.3943 64.319 38.1173C63.8975 37.869 63.7338 37.536 63.8256 37.1177C63.935 36.6147 64.3534 36.2817 65.0815 36.1189C64.5657 35.7508 64.3805 35.231 64.5274 34.5572C64.6464 34.0142 64.961 33.5408 65.4743 33.1344C65.9861 32.728 66.5785 32.5244 67.2508 32.5244H70.1259ZM66.4308 35.5448C66.9913 35.5448 67.3554 35.1576 67.5247 34.3831C67.5766 34.1436 67.5534 33.9552 67.4576 33.8162C67.361 33.6797 67.2005 33.6102 66.9793 33.6102C66.4189 33.6102 66.0532 34.0047 65.8807 34.7951C65.7713 35.2949 65.955 35.5448 66.4308 35.5448ZM66.5027 39.1161C66.5578 38.8646 66.3542 38.6881 65.8935 38.5867L65.258 38.4358C65.1119 38.4358 64.9083 38.4877 64.6464 38.5883C64.3829 38.6913 64.2264 38.8526 64.1793 39.0682C64.0979 39.441 64.4356 39.6255 65.1909 39.6255C65.6157 39.6255 65.9294 39.588 66.1354 39.5105C66.339 39.4331 66.462 39.3005 66.5027 39.1161ZM71.476 31.0282C71.5263 30.7982 71.6461 30.6034 71.8361 30.4413C72.0261 30.2785 72.2289 30.1978 72.4485 30.1978C72.6696 30.1978 72.8389 30.2785 72.9594 30.4413C73.0792 30.6034 73.1143 30.7982 73.064 31.0282C73.0129 31.2597 72.8932 31.4561 72.7024 31.6182C72.5107 31.7811 72.3055 31.8617 72.0852 31.8617C71.8664 31.8617 71.6988 31.7811 71.579 31.6182C71.46 31.4561 71.4257 31.2597 71.476 31.0282ZM72.5315 32.5244L70.6273 37.9249H69.0959L71.0001 32.5244H72.5315ZM76.2768 31.3867L75.813 32.5244H76.9459L76.482 33.7148H75.3531L74.6728 35.4634C74.6154 35.6135 74.5722 35.7524 74.5443 35.8817C74.4405 36.3568 74.5411 36.5947 74.8477 36.5947C75.0321 36.5947 75.3499 36.4861 75.8034 36.2698L75.4944 37.6869C74.993 37.9145 74.5299 38.0295 74.1012 38.0295C73.6054 38.0295 73.2485 37.8634 73.0361 37.532C72.8213 37.2015 72.7726 36.7736 72.8876 36.2458C72.9235 36.0837 72.973 35.9248 73.0353 35.7707L73.8441 33.7148H72.8038L73.2565 32.5244H74.2968L74.7279 31.3867H76.2768ZM82.9117 32.6114L81.0386 37.9249H79.5112L79.6877 37.4251C79.1208 37.8275 78.5819 38.0295 78.0725 38.0295C77.5527 38.0295 77.1703 37.8115 76.9228 37.3795C76.6777 36.946 76.6266 36.3903 76.7751 35.7133C76.9858 34.744 77.4809 33.9568 78.2577 33.3468C79.033 32.736 80.0206 32.4326 81.2198 32.4326C81.8162 32.4326 82.3807 32.4925 82.9117 32.6114ZM80.0645 36.3568L80.9683 33.7851C80.8573 33.7731 80.7472 33.7667 80.6418 33.7667C80.0278 33.7667 79.5248 33.9607 79.128 34.3512C78.732 34.74 78.4701 35.2214 78.3447 35.7947C78.2737 36.1189 78.2849 36.3727 78.3783 36.5572C78.4701 36.7416 78.6338 36.8326 78.8661 36.8326C79.2342 36.8326 79.6334 36.6745 80.0645 36.3568ZM86.8534 29.813L83.9935 37.9249H82.4661L85.3221 29.813H86.8534ZM93.2056 29.813L90.3457 37.9249H88.7025L91.5624 29.813H93.2056ZM95.3852 32.5244L95.1633 33.1344C95.8379 32.6665 96.4719 32.4326 97.0707 32.4326C97.5202 32.4326 97.834 32.5779 98.0096 32.8709C98.1861 33.1623 98.2148 33.5727 98.1006 34.0981C98.0671 34.2522 98.02 34.415 97.9617 34.5851L96.7896 37.9249H95.2583L96.392 34.7025C96.428 34.6091 96.4551 34.5156 96.4759 34.423C96.5916 33.8897 96.4918 33.6222 96.1749 33.6222C95.81 33.6222 95.319 33.8993 94.7042 34.4526L93.4818 37.9249H91.9497L93.8579 32.5244H95.3852ZM105.84 29.813L103.013 37.8554C102.335 37.9704 101.733 38.0295 101.203 38.0295C100.294 38.0295 99.6216 37.7963 99.1857 37.3261C98.7521 36.8582 98.6212 36.2306 98.7937 35.4394C98.9749 34.6067 99.4188 33.8977 100.125 33.3108C100.829 32.7248 101.668 32.4326 102.643 32.4326C102.799 32.4326 103.044 32.451 103.376 32.4909L104.315 29.813H105.84ZM101.9 36.6642L102.888 33.8601C102.76 33.8402 102.634 33.8322 102.507 33.8322C101.961 33.8322 101.495 33.9863 101.107 34.2977C100.717 34.6115 100.474 34.9939 100.373 35.4514C100.288 35.8418 100.343 36.1508 100.538 36.3807C100.734 36.6091 101.043 36.7241 101.468 36.7241C101.578 36.7241 101.721 36.7041 101.9 36.6642ZM106.711 31.0282C106.76 30.7982 106.881 30.6034 107.071 30.4413C107.261 30.2785 107.464 30.1978 107.682 30.1978C107.904 30.1978 108.073 30.2785 108.194 30.4413C108.314 30.6034 108.348 30.7982 108.298 31.0282C108.248 31.2597 108.127 31.4561 107.937 31.6182C107.745 31.7811 107.54 31.8617 107.319 31.8617C107.1 31.8617 106.933 31.7811 106.814 31.6182C106.695 31.4561 106.66 31.2597 106.711 31.0282ZM107.766 32.5244L105.862 37.9249H104.331L106.235 32.5244H107.766ZM114.01 32.6114L112.136 37.9249H110.609L110.786 37.4251C110.218 37.8275 109.679 38.0295 109.169 38.0295C108.65 38.0295 108.268 37.8115 108.02 37.3795C107.775 36.946 107.724 36.3903 107.872 35.7133C108.084 34.744 108.578 33.9568 109.356 33.3468C110.13 32.736 111.118 32.4326 112.317 32.4326C112.914 32.4326 113.479 32.4925 114.01 32.6114ZM111.163 36.3568L112.066 33.7851C111.955 33.7731 111.845 33.7667 111.739 33.7667C111.125 33.7667 110.622 33.9607 110.225 34.3512C109.829 34.74 109.567 35.2214 109.442 35.7947C109.371 36.1189 109.382 36.3727 109.476 36.5572C109.568 36.7416 109.731 36.8326 109.963 36.8326C110.332 36.8326 110.731 36.6745 111.163 36.3568Z" fill="#5C6266"/>
<path fill-rule="evenodd" clip-rule="evenodd" d="M52.8875 43.9567V46.0222H52.3669V41.1295H53.658C54.1083 41.1295 54.5793 41.215 54.9402 41.5024C55.2724 41.7667 55.4145 42.1268 55.4145 42.5467C55.4145 42.9659 55.2708 43.3236 54.9402 43.5871C54.5793 43.8721 54.1067 43.9567 53.658 43.9567H52.8875ZM52.8875 43.4665H53.765C54.0492 43.4665 54.3542 43.4138 54.5761 43.223C54.7805 43.0497 54.8548 42.8102 54.8548 42.5467C54.8548 42.2809 54.7805 42.0413 54.5761 41.8641C54.3534 41.6741 54.0492 41.6206 53.765 41.6206H52.8875V43.4665Z" fill="#5C6266"/>
<path fill-rule="evenodd" clip-rule="evenodd" d="M57.5103 46.0376C57.0304 46.0376 56.6065 45.8867 56.2695 45.541C55.9278 45.1905 55.7865 44.7545 55.7865 44.2707C55.7865 43.7853 55.9278 43.3469 56.2695 42.9964C56.6057 42.6491 57.0296 42.4974 57.5103 42.4974C57.9909 42.4974 58.4141 42.6491 58.751 42.9964C59.0919 43.3469 59.234 43.7853 59.234 44.2707C59.234 44.7545 59.0919 45.1905 58.751 45.541C58.4141 45.8867 57.9901 46.0376 57.5103 46.0376ZM57.5103 45.5546C57.852 45.5546 58.1354 45.4276 58.3702 45.1809C58.6137 44.9254 58.7294 44.6228 58.7294 44.2707C58.7294 43.9178 58.6145 43.612 58.3702 43.3557C58.1354 43.1082 57.852 42.9805 57.5103 42.9805C57.1686 42.9805 56.8851 43.1082 56.6496 43.3557C56.4061 43.612 56.2911 43.9178 56.2911 44.2707C56.2911 44.6228 56.4061 44.9254 56.6496 45.1809C56.8851 45.4276 57.1686 45.5546 57.5103 45.5546Z" fill="#5C6266"/>
<path fill-rule="evenodd" clip-rule="evenodd" d="M61.2883 45.1565L62.26 42.4291H62.5762L63.5566 45.1501L64.581 42.4794H65.0712L63.6916 46.0276H63.3778L62.4061 43.3649L61.4368 46.0276H61.1231L59.7434 42.4794H60.264L61.2883 45.1565Z" fill="#5C6266"/>
<path fill-rule="evenodd" clip-rule="evenodd" d="M65.9757 44.2593C65.9757 44.6114 66.1003 44.9084 66.3494 45.1559C66.6001 45.4058 66.8995 45.5279 67.2524 45.5279C67.4592 45.5279 67.6636 45.496 67.8584 45.4233C68.0636 45.3475 68.252 45.2269 68.4221 45.0896L68.5426 44.9922V45.5423L68.5163 45.5647C68.3334 45.7164 68.1306 45.8449 67.9071 45.9279C67.6923 46.0078 67.4672 46.0437 67.238 46.0437C66.7502 46.0437 66.315 45.8952 65.9677 45.5479C65.6204 45.1998 65.4719 44.7654 65.4719 44.2768C65.4719 43.8081 65.5893 43.3642 65.8991 43.0057C66.1881 42.668 66.5618 42.5035 67.0057 42.5035C67.4472 42.5035 67.852 42.6313 68.1442 42.973C68.4356 43.3051 68.529 43.7531 68.5394 44.1834L68.541 44.2593H65.9757ZM67.9925 43.8353C67.9542 43.6485 67.8831 43.4712 67.7594 43.3227C67.5662 43.0856 67.3083 42.9866 67.0057 42.9866C66.7047 42.9866 66.4691 43.1231 66.2799 43.3531C66.1641 43.4976 66.0819 43.6588 66.03 43.8353H67.9925Z" fill="#5C6266"/>
<path fill-rule="evenodd" clip-rule="evenodd" d="M70.1295 42.9954C70.4528 42.4884 71.0365 42.2465 71.6025 42.5674C71.6153 42.5746 71.6281 42.5818 71.6409 42.589V42.6321V43.0034V43.1591C71.6001 43.1263 71.6329 43.1742 71.5922 43.1415C70.7834 42.6936 70.2947 43.3387 70.1295 43.7738V46.011H69.6353V45.9367V42.5299V42.4557H69.7095H69.8828H70.0552H70.1295V42.9954Z" fill="#5C6266"/>
<path fill-rule="evenodd" clip-rule="evenodd" d="M75.2585 41.6313H73.676V41.1858H77.3631V41.6313H75.7878V45.9802H75.2585V41.6313Z" fill="#5C6266"/>
<path fill-rule="evenodd" clip-rule="evenodd" d="M83.8381 41.7075V43.274H85.8326V43.7402H83.8381V45.4952H86.1998V45.9614H83.3096V41.2412H86.116V41.7075H83.8381Z" fill="#5C6266"/>
<path fill-rule="evenodd" clip-rule="evenodd" d="M87.6436 42.9168C87.8975 42.6286 88.2224 42.4553 88.6296 42.4553C88.9921 42.4553 89.3099 42.5695 89.5566 42.829C89.6372 42.916 89.7043 43.0126 89.7578 43.1156L89.836 43.0014C90.0979 42.6629 90.4436 42.4553 90.8891 42.4553C91.2524 42.4553 91.5702 42.5687 91.8169 42.8282C92.0724 43.098 92.1674 43.4397 92.1674 43.799V45.9204H91.6532V43.8262C91.6532 43.589 91.5933 43.3623 91.4249 43.1835C91.266 43.015 91.0632 42.9455 90.8276 42.9455C90.5147 42.9455 90.2688 43.1188 90.0747 43.3431C90.0109 43.4126 89.955 43.4892 89.9055 43.5683V45.9204H89.3913V43.8262C89.3913 43.589 89.3322 43.3623 89.1629 43.1835C89.0049 43.015 88.8013 42.9455 88.5673 42.9455C88.2536 42.9455 88.0061 43.1196 87.812 43.3431C87.749 43.4126 87.6931 43.4892 87.6436 43.5683V45.9204H87.1294V42.5296H87.6436V42.9168Z" fill="#5C6266"/>
<path d="M95.3702 43.1359C94.9359 42.8557 94.3179 42.9252 93.8061 43.6062V44.9859C94.3371 45.5519 95.0157 45.607 95.4573 45.2789C96.1287 44.7815 96.092 43.6006 95.3702 43.1359ZM93.276 42.5292H93.791C93.7918 42.6705 93.7918 42.8126 93.7926 42.9539C93.8932 42.7599 94.0832 42.6425 94.282 42.5707C94.896 42.3495 95.6409 42.4357 96.108 42.9212C96.7467 43.6573 96.7148 44.8406 96.1263 45.5C95.5116 46.1883 94.5846 46.0198 93.8509 45.6382C93.8309 45.6278 93.8109 45.6166 93.791 45.607V47.2629H93.276V42.5292Z" fill="#5C6266"/>
<path fill-rule="evenodd" clip-rule="evenodd" d="M51.1885 38.7464H60.9754V39.3093H51.1885V38.7464Z" fill="#5C6266"/>
<path fill-rule="evenodd" clip-rule="evenodd" d="M68.8613 38.7464H113.398V39.3093H68.8613V38.7464Z" fill="#5C6266"/>
<path fill-rule="evenodd" clip-rule="evenodd" d="M78.7693 45.9504C78.2895 45.9504 77.8655 45.7995 77.5286 45.4538C77.1869 45.1033 77.0455 44.6674 77.0455 44.1836C77.0455 43.6981 77.1869 43.259 77.5286 42.9093C77.8647 42.562 78.2887 42.4103 78.7693 42.4103C79.2499 42.4103 79.6731 42.562 80.01 42.9093C80.351 43.259 80.4931 43.6981 80.4931 44.1836C80.4931 44.6674 80.351 45.1033 80.01 45.4538C79.6731 45.7995 79.2491 45.9504 78.7693 45.9504ZM78.7693 45.4674C79.111 45.4674 79.3945 45.3405 79.6292 45.0929C79.8727 44.8383 79.9885 44.5357 79.9885 44.1836C79.9885 43.8307 79.8735 43.5241 79.6292 43.2686C79.3945 43.0211 79.111 42.8933 78.7693 42.8933C78.4276 42.8933 78.1441 43.0211 77.9086 43.2686C77.6651 43.5241 77.5501 43.8307 77.5501 44.1836C77.5501 44.5357 77.6651 44.8383 77.9086 45.0929C78.1441 45.3405 78.4276 45.4674 78.7693 45.4674Z" fill="#5C6266"/>
<path fill-rule="evenodd" clip-rule="evenodd" d="M98.937 45.9504C98.4572 45.9504 98.0332 45.7995 97.6963 45.4538C97.3546 45.1033 97.2133 44.6674 97.2133 44.1836C97.2133 43.6981 97.3546 43.259 97.6963 42.9093C98.0324 42.562 98.4564 42.4103 98.937 42.4103C99.4177 42.4103 99.8408 42.562 100.178 42.9093C100.519 43.259 100.661 43.6981 100.661 44.1836C100.661 44.6674 100.519 45.1033 100.178 45.4538C99.8408 45.7995 99.4169 45.9504 98.937 45.9504ZM98.937 45.4674C99.2787 45.4674 99.5622 45.3405 99.7969 45.0929C100.04 44.8383 100.156 44.5357 100.156 44.1836C100.156 43.8307 100.041 43.5241 99.7969 43.2686C99.5622 43.0211 99.2787 42.8933 98.937 42.8933C98.5953 42.8933 98.3119 43.0211 98.0763 43.2686C97.8328 43.5241 97.7179 43.8307 97.7179 44.1836C97.7179 44.5357 97.8328 44.8383 98.0763 45.0929C98.3119 45.3405 98.5953 45.4674 98.937 45.4674Z" fill="#5C6266"/>
<path fill-rule="evenodd" clip-rule="evenodd" d="M102.715 45.1895L103.687 42.4621H104.003L104.983 45.1831L106.008 42.5124H106.498L105.118 46.0605H104.804L103.833 43.3978L102.863 46.0605H102.55L101.17 42.5124H101.691L102.715 45.1895Z" fill="#5C6266"/>
<path fill-rule="evenodd" clip-rule="evenodd" d="M107.402 44.2593C107.402 44.6114 107.527 44.9084 107.776 45.1559C108.027 45.4058 108.326 45.5279 108.679 45.5279C108.886 45.5279 109.09 45.496 109.285 45.4233C109.49 45.3475 109.679 45.2269 109.849 45.0896L109.969 44.9922V45.5423L109.943 45.5647C109.76 45.7164 109.557 45.8449 109.334 45.9279C109.119 46.0078 108.894 46.0437 108.665 46.0437C108.177 46.0437 107.742 45.8952 107.394 45.5479C107.047 45.1998 106.899 44.7654 106.899 44.2768C106.899 43.8081 107.016 43.3642 107.326 43.0057C107.615 42.668 107.989 42.5035 108.432 42.5035C108.874 42.5035 109.279 42.6313 109.571 42.973C109.862 43.3051 109.956 43.7531 109.966 44.1834L109.968 44.2593H107.402ZM109.419 43.8353C109.381 43.6485 109.31 43.4712 109.186 43.3227C108.993 43.0856 108.735 42.9866 108.432 42.9866C108.131 42.9866 107.896 43.1231 107.707 43.3531C107.591 43.4976 107.509 43.6588 107.457 43.8353H109.419Z" fill="#5C6266"/>
<path fill-rule="evenodd" clip-rule="evenodd" d="M111.556 42.9649C111.879 42.4579 112.463 42.216 113.029 42.5369C113.042 42.5441 113.055 42.5513 113.067 42.5585V42.6016V42.9729V43.1285C113.027 43.0958 113.06 43.1437 113.019 43.111C112.21 42.6631 111.721 43.3082 111.556 43.7425V45.9805H111.062V45.9062V42.4994V42.4251H111.136H111.309H111.482H111.556V42.9649Z" fill="#5C6266"/>
</g>
<defs>
<clipPath id="clip0_1329_1327">
<rect width="114.009" height="60" fill="white"/>
</clipPath>
</defs>
</svg>
