<svg width="127" height="31" viewBox="0 0 127 31" fill="none" xmlns="http://www.w3.org/2000/svg">
<g clip-path="url(#clip0_1335_1431)">
<path d="M19.4707 11.2124V0H9.08952C8.56029 0.00157745 8.05319 0.212513 7.67896 0.586738C7.30474 0.960963 7.0938 1.46807 7.09222 1.9973V29.0027C7.0938 29.5319 7.30474 30.039 7.67896 30.4133C8.05319 30.7875 8.56029 30.9984 9.08952 31H31.4425C31.9718 30.9984 32.4789 30.7875 32.8531 30.4133C33.2273 30.039 33.4383 29.5319 33.4398 29.0027V11.2124H19.4707Z" fill="#6334FA"/>
<path d="M38.4211 17.7544V3.27694H43.1333C43.9636 3.26581 44.7882 3.4161 45.5612 3.71946C46.2561 4.01043 46.8712 4.46359 47.3551 5.04103C47.8824 5.6896 48.2729 6.43816 48.5033 7.24164C48.7849 8.23734 48.9198 9.26875 48.9039 10.3034C48.9197 11.4009 48.7849 12.4955 48.5033 13.5565C48.2777 14.4 47.8875 15.1906 47.3551 15.8827C46.8791 16.4888 46.2636 16.9709 45.5612 17.2879C44.7923 17.608 43.966 17.7668 43.1333 17.7544H38.4211ZM41.124 5.68686V15.3564H42.8762C43.3505 15.3669 43.821 15.2687 44.2516 15.0694C44.6606 14.8779 45.016 14.5883 45.2861 14.2262C45.5922 13.8022 45.8135 13.323 45.9379 12.8149C46.0983 12.1656 46.1746 11.4984 46.1651 10.8296V9.77714C46.1743 9.17142 46.0978 8.56745 45.9379 7.98315C45.8083 7.51912 45.5867 7.08594 45.2861 6.70943C45.0057 6.37706 44.6514 6.11493 44.2516 5.944C43.8226 5.76952 43.3632 5.68212 42.9001 5.68686H41.124Z" fill="#6334FA"/>
<path d="M53.3112 4.78397H50.7876V2.49365H53.3112V4.78397ZM53.3112 17.7365H50.7876V6.65569H53.3112V17.7365Z" fill="#6334FA"/>
<path d="M64.7089 4.78406C64.7446 5.44329 64.5799 6.09787 64.2365 6.66176C63.9197 7.12123 63.4522 7.45547 62.9149 7.60659C63.2098 7.93272 63.4356 8.31514 63.5787 8.73082C63.7343 9.1931 63.8111 9.67825 63.806 10.166C63.8127 10.6945 63.7215 11.2196 63.5369 11.7148C63.3661 12.1658 63.0987 12.574 62.7535 12.9108C62.3846 13.2566 61.9434 13.516 61.4618 13.6702C60.8835 13.8615 60.2768 13.9525 59.6678 13.9393H58.6393C58.4372 13.9311 58.2399 14.0018 58.0891 14.1367C58.0221 14.1981 57.9688 14.273 57.9328 14.3565C57.8967 14.44 57.8787 14.5301 57.8798 14.6211C57.8766 14.7069 57.8908 14.7925 57.9216 14.8727C57.9525 14.9529 57.9993 15.026 58.0592 15.0875C58.1189 15.1503 58.1915 15.1995 58.2721 15.2315C58.3526 15.2635 58.4391 15.2776 58.5257 15.2729H62.3708C62.7097 15.2701 63.0456 15.3372 63.3575 15.4702C63.6647 15.6093 63.938 15.8133 64.1588 16.0682C64.3995 16.3337 64.5846 16.6448 64.7029 16.9831C64.844 17.3658 64.913 17.7713 64.9063 18.1791C64.9114 18.662 64.8157 19.1406 64.6252 19.5844C64.444 19.9937 64.1815 20.3619 63.8538 20.6668C63.5246 20.9693 63.1383 21.2031 62.7176 21.3545C62.2695 21.519 61.7956 21.602 61.3183 21.5996H57.24C56.9189 21.6031 56.6004 21.5419 56.3035 21.4196C56.0066 21.2974 55.7373 21.1166 55.5118 20.888C55.298 20.6518 55.1297 20.3781 55.0154 20.0807C54.8882 19.7509 54.8252 19.3997 54.8301 19.0462C54.8105 18.5564 54.9512 18.0735 55.2307 17.6708C55.4863 17.3053 55.8217 17.0026 56.2114 16.7858C55.9399 16.62 55.7155 16.3873 55.5596 16.1101C55.3952 15.8055 55.3128 15.4634 55.3204 15.1174C55.3201 14.8896 55.3648 14.664 55.452 14.4536C55.5359 14.2507 55.6553 14.0643 55.8048 13.9035C55.9531 13.732 56.1289 13.5865 56.3251 13.4729C56.5141 13.3555 56.7144 13.2574 56.923 13.1799C56.4977 12.8633 56.1601 12.4434 55.9423 11.96C55.7037 11.393 55.5914 10.7808 55.6134 10.166C55.6072 9.63616 55.6963 9.10951 55.8766 8.61122C56.0428 8.1579 56.3108 7.74875 56.6599 7.41523C57.0274 7.07227 57.4636 6.81136 57.9396 6.6498C58.5072 6.45619 59.1042 6.3631 59.7037 6.37472C60.0362 6.37219 60.3683 6.3982 60.6964 6.45246C60.9916 6.49918 61.2805 6.57943 61.5575 6.69166C61.7577 6.55459 61.9352 6.38713 62.0837 6.19532C62.2136 6.02698 62.324 5.84442 62.4126 5.65115C62.4906 5.49283 62.5507 5.32637 62.592 5.15481C62.6191 5.0309 62.6351 4.90482 62.6399 4.77808L64.7089 4.78406ZM58.3642 17.629C58.2263 17.6284 58.0897 17.6569 57.9636 17.7127C57.8466 17.7688 57.7396 17.8435 57.6466 17.9339C57.5536 18.0257 57.4803 18.1356 57.4313 18.2569C57.3782 18.3773 57.3517 18.5079 57.3536 18.6396C57.3451 18.7756 57.3653 18.9119 57.4128 19.0396C57.4602 19.1674 57.534 19.2837 57.6292 19.3812C57.7244 19.4787 57.8391 19.5552 57.9657 19.6056C58.0923 19.656 58.228 19.6794 58.3642 19.6741H61.2047C61.5027 19.6821 61.7936 19.5823 62.0239 19.393C62.132 19.3003 62.2177 19.1844 62.2746 19.054C62.3316 18.9235 62.3583 18.7818 62.3528 18.6396C62.3594 18.5017 62.3361 18.3641 62.2845 18.2361C62.2329 18.1081 62.1542 17.9928 62.0538 17.8981C61.8518 17.7181 61.5888 17.6219 61.3183 17.629H58.3642ZM59.6918 8.27634C59.4668 8.25832 59.2407 8.29454 59.0326 8.38194C58.8245 8.46934 58.6404 8.60539 58.4958 8.77866C58.2226 9.18759 58.0923 9.67533 58.125 10.166C58.097 10.6597 58.236 11.1484 58.5197 11.5533C58.672 11.7186 58.8569 11.8505 59.0628 11.9407C59.2686 12.0309 59.4909 12.0775 59.7157 12.0775C59.9404 12.0775 60.1627 12.0309 60.3686 11.9407C60.5744 11.8505 60.7593 11.7186 60.9117 11.5533C61.1953 11.1484 61.3344 10.6597 61.3063 10.166C61.3361 9.66656 61.1971 9.17162 60.9117 8.76071C60.7625 8.5876 60.5736 8.45314 60.3612 8.36879C60.1487 8.28445 59.9191 8.25273 59.6918 8.27634Z" fill="#6334FA"/>
<path d="M68.6975 4.78397H66.174V2.49365H68.6975V4.78397ZM68.6975 17.7365H66.174V6.65569H68.6975V17.7365Z" fill="#6334FA"/>
<path d="M71.1075 3.2771H73.8104V15.237H79.9339V17.7725H71.1075V3.2771Z" fill="#6334FA"/>
<path d="M85.7105 6.39842C86.3363 6.35282 86.9641 6.45644 87.5421 6.70074C88.1201 6.94504 88.6319 7.32306 89.0353 7.80371C89.7768 8.74256 90.1416 10.1957 90.1416 12.199C90.1416 14.2022 89.7768 15.6613 89.0353 16.6002C88.6047 17.0464 88.0887 17.4012 87.5179 17.6436C86.9472 17.886 86.3335 18.0109 85.7135 18.0109C85.0934 18.0109 84.4797 17.886 83.909 17.6436C83.3382 17.4012 82.8222 17.0464 82.3916 16.6002C81.6501 15.6594 81.2793 14.1923 81.2793 12.199C81.2793 10.2057 81.6501 8.74057 82.3916 7.80371C82.7938 7.32316 83.3045 6.94513 83.8815 6.70079C84.4586 6.45645 85.0855 6.35281 85.7105 6.39842ZM85.7105 8.53326C85.4224 8.51553 85.1357 8.5862 84.8888 8.73581C84.642 8.88542 84.4467 9.10684 84.3291 9.37045C84.0177 10.1403 83.8789 10.969 83.9225 11.7983V12.6056C83.8784 13.4369 84.0172 14.2676 84.3291 15.0394C84.461 15.2927 84.6597 15.5049 84.9038 15.653C85.1479 15.8011 85.428 15.8794 85.7135 15.8794C85.999 15.8794 86.279 15.8011 86.5231 15.653C86.7672 15.5049 86.966 15.2927 87.0978 15.0394C87.4097 14.2676 87.5485 13.4369 87.5044 12.6056V11.7983C87.548 10.969 87.4092 10.1403 87.0978 9.37045C86.9799 9.10583 86.7836 8.88372 86.5356 8.73403C86.2875 8.58435 85.9996 8.51428 85.7105 8.53326Z" fill="#6334FA"/>
<path d="M95.9661 6.39851C96.5131 6.39007 97.0575 6.47708 97.5747 6.65565C98.0425 6.81878 98.4634 7.09388 98.8006 7.45696C99.1587 7.85197 99.4242 8.32182 99.578 8.83235C99.7755 9.4792 99.8684 10.1535 99.853 10.8296H97.2577C97.2961 10.2337 97.1851 9.63765 96.9348 9.09547C96.8432 8.91962 96.7035 8.77342 96.532 8.6739C96.3605 8.57438 96.1642 8.52564 95.9661 8.53335C95.7115 8.52716 95.4621 8.60532 95.2566 8.75567C95.0511 8.90601 94.9011 9.12009 94.8299 9.36456C94.5703 10.1485 94.4568 10.9735 94.495 11.7984V12.6057C94.4586 13.4319 94.5783 14.2576 94.8478 15.0395C94.9317 15.2889 95.0928 15.5051 95.3079 15.6568C95.5229 15.8084 95.7807 15.8875 96.0438 15.8827C96.2474 15.8915 96.4489 15.8392 96.6226 15.7327C96.7962 15.6261 96.9341 15.4701 97.0185 15.2847C97.2506 14.7395 97.353 14.1479 97.3175 13.5565H99.865C99.8782 14.2341 99.7874 14.9097 99.5959 15.5598C99.444 16.0703 99.1828 16.5417 98.8305 16.9411C98.5023 17.2995 98.0918 17.5725 97.6345 17.7365C97.1315 17.9142 96.6011 18.0012 96.0677 17.9936C95.4252 18.0089 94.7862 17.8929 94.19 17.6528C93.663 17.424 93.2082 17.056 92.8744 16.5883C92.5001 16.0485 92.2397 15.4381 92.109 14.7943C91.9318 13.9409 91.8495 13.0705 91.8638 12.1991C91.8638 10.2057 92.2047 8.74066 92.8864 7.8038C93.2445 7.33422 93.7129 6.96028 94.2501 6.71513C94.7873 6.46999 95.3767 6.36124 95.9661 6.39851Z" fill="#6334FA"/>
<path d="M104.284 11.0689L107.388 6.65569H110.097L106.796 11.1705L110.258 17.7485H107.46L105.211 13.1559L104.284 14.2861V17.7485H101.761V2.49365H104.284V11.0689Z" fill="#6334FA"/>
<path d="M115.156 6.39842C115.732 6.36278 116.308 6.47284 116.831 6.71843C117.353 6.96403 117.805 7.33726 118.146 7.8037C118.815 8.74255 119.144 10.1957 119.144 12.199V12.8388H113.511C113.513 13.2815 113.549 13.7233 113.619 14.1604C113.669 14.4985 113.77 14.8271 113.918 15.1351C114.033 15.3785 114.213 15.5854 114.438 15.7331C114.673 15.8783 114.945 15.9511 115.221 15.9424C115.427 15.9465 115.63 15.8975 115.812 15.8001C115.993 15.7027 116.146 15.5601 116.256 15.3863C116.54 14.9192 116.675 14.3771 116.645 13.8315H119.144C119.158 14.4639 119.059 15.0938 118.851 15.6912C118.678 16.181 118.398 16.6262 118.032 16.9949C117.679 17.339 117.254 17.6005 116.788 17.7603C116.284 17.9306 115.754 18.0155 115.221 18.0115C114.608 18.0516 113.994 17.9445 113.43 17.699C112.866 17.4535 112.369 17.0768 111.98 16.6002C111.239 15.6593 110.868 14.1923 110.868 12.199C110.868 10.2056 111.237 8.74056 111.974 7.8037C112.353 7.33185 112.84 6.95792 113.394 6.71337C113.947 6.46883 114.552 6.36081 115.156 6.39842ZM115.156 8.46748C114.913 8.44914 114.671 8.50223 114.458 8.6202C114.246 8.73817 114.072 8.91584 113.96 9.13125C113.684 9.7169 113.539 10.3556 113.535 11.003H116.483C116.516 10.3622 116.404 9.72235 116.154 9.13125C116.073 8.93356 115.935 8.76469 115.757 8.6464C115.579 8.5281 115.369 8.46578 115.156 8.46748Z" fill="#6334FA"/>
<path d="M125.483 6.39851C125.627 6.3987 125.771 6.40869 125.914 6.42841L126.254 6.49419C126.347 6.51535 126.439 6.54129 126.53 6.57193V9.01772H125.627C125.359 9.01757 125.093 9.0579 124.837 9.13732C124.587 9.22167 124.362 9.3653 124.179 9.55592C123.973 9.7812 123.818 10.0484 123.725 10.3393C123.6 10.7376 123.541 11.1538 123.552 11.5712V17.7544H121.028V6.65565H123.133L123.432 8.27621H123.552C123.629 8.04229 123.719 7.81273 123.821 7.58852C123.92 7.37088 124.051 7.16931 124.209 6.99052C124.362 6.81823 124.544 6.67446 124.748 6.56595C124.975 6.44917 125.228 6.39158 125.483 6.39851Z" fill="#6334FA"/>
<path d="M46.8887 27.8844V29.6784H46.3326V27.8844L44.9333 25.3489H45.5313L46.6435 27.3522L47.7139 25.3489H48.2581L46.8887 27.8844Z" fill="#868383"/>
<path d="M49.2986 26.3118C49.4701 26.3015 49.6413 26.3351 49.7961 26.4094C49.951 26.4837 50.0844 26.5962 50.1836 26.7364C50.4165 27.1316 50.5229 27.5885 50.4886 28.046C50.5234 28.5053 50.417 28.9643 50.1836 29.3615C50.0767 29.4972 49.9405 29.6068 49.7851 29.6821C49.6298 29.7575 49.4593 29.7966 49.2867 29.7966C49.114 29.7966 48.9435 29.7575 48.7882 29.6821C48.6328 29.6068 48.4966 29.4972 48.3897 29.3615C48.1612 28.9626 48.0571 28.5045 48.0907 28.046C48.0579 27.5894 48.162 27.1335 48.3897 26.7364C48.4911 26.5926 48.6283 26.4778 48.7877 26.4033C48.9472 26.3289 49.1233 26.2973 49.2986 26.3118ZM49.2986 26.7722C49.1989 26.7686 49.1001 26.7937 49.0142 26.8446C48.9284 26.8955 48.8589 26.97 48.8142 27.0593C48.693 27.3315 48.6397 27.629 48.6588 27.9264V28.1715C48.6402 28.4669 48.6935 28.7624 48.8142 29.0326C48.8613 29.1201 48.9312 29.1932 49.0165 29.2441C49.1018 29.295 49.1993 29.3219 49.2986 29.3219C49.398 29.3219 49.4954 29.295 49.5807 29.2441C49.666 29.1932 49.7359 29.1201 49.783 29.0326C49.9072 28.7634 49.9626 28.4675 49.9444 28.1715V27.9264C49.9621 27.6285 49.9067 27.3308 49.783 27.0593C49.7427 26.9644 49.6752 26.8836 49.589 26.8272C49.5027 26.7708 49.4017 26.7412 49.2986 26.7423V26.7722Z" fill="#868383"/>
<path d="M53.2215 29.6785H52.8268L52.779 29.3017H52.7371C52.6607 29.4538 52.5397 29.579 52.3903 29.6605C52.2485 29.7285 52.093 29.7633 51.9358 29.7622C51.8219 29.7633 51.7087 29.7451 51.6009 29.7084C51.5007 29.6751 51.4103 29.6176 51.3378 29.5409C51.2641 29.4489 51.2092 29.3432 51.1763 29.23C51.132 29.0786 51.1118 28.9212 51.1165 28.7636V26.3716H51.6368V28.7038C51.6351 28.8003 51.6452 28.8967 51.6667 28.9908C51.6836 29.0575 51.7164 29.119 51.7624 29.1702C51.8038 29.2123 51.8552 29.2432 51.9119 29.2599C51.9752 29.2702 52.0399 29.2702 52.1032 29.2599C52.1848 29.2599 52.265 29.2393 52.3364 29.2001C52.4133 29.1537 52.4803 29.0928 52.5338 29.0207C52.5937 28.9324 52.64 28.8357 52.6713 28.7337C52.7042 28.6088 52.7203 28.4801 52.7192 28.3509V26.3596H53.2215V29.6785Z" fill="#868383"/>
<path d="M55.0573 26.3117H55.153H55.2307H55.3025V26.8439H55.1291C55.0496 26.8452 54.9708 26.8593 54.8959 26.8858C54.822 26.916 54.7549 26.9608 54.6985 27.0173C54.6373 27.0872 54.5905 27.1685 54.561 27.2565C54.5272 27.3772 54.5111 27.5021 54.5131 27.6273V29.6545H53.9929V26.3596H54.4175L54.4892 26.7901H54.5251C54.5458 26.7262 54.5718 26.6642 54.6028 26.6047C54.6315 26.545 54.6699 26.4904 54.7165 26.4433C54.7601 26.3938 54.8129 26.3532 54.8719 26.3237C54.9324 26.3076 54.9953 26.3035 55.0573 26.3117Z" fill="#868383"/>
<path d="M59.2791 29.6784H58.8845L58.8187 29.3017H58.7828C58.716 29.4438 58.6102 29.564 58.4778 29.6485C58.352 29.7256 58.2068 29.7651 58.0592 29.7621C57.9097 29.7626 57.7622 29.7277 57.6287 29.6605C57.495 29.5879 57.3834 29.4804 57.3058 29.3495C57.2082 29.1828 57.1395 29.0009 57.1024 28.8113C57.0509 28.5515 57.0269 28.2869 57.0307 28.022C57.0258 27.7607 57.0519 27.4997 57.1084 27.2446C57.1518 27.0551 57.2244 26.8735 57.3237 26.7064C57.4003 26.5788 57.5071 26.4721 57.6347 26.3954C57.7497 26.3382 57.8769 26.3095 58.0054 26.3117C58.1551 26.3099 58.3029 26.3448 58.436 26.4134C58.5546 26.479 58.6505 26.5791 58.7111 26.7004H58.741V25.1157H59.2612L59.2791 29.6784ZM58.1669 26.7423C58.0755 26.7393 57.9849 26.7599 57.9038 26.8021C57.827 26.8545 57.7635 26.9241 57.7184 27.0054C57.6643 27.1208 57.628 27.2438 57.6107 27.3702C57.5848 27.5443 57.5728 27.7203 57.5749 27.8964V28.1416C57.573 28.3177 57.585 28.4936 57.6107 28.6678C57.6282 28.7903 57.6645 28.9093 57.7184 29.0206C57.7606 29.104 57.8246 29.1743 57.9038 29.2239C57.9833 29.2708 58.0747 29.2936 58.1669 29.2897C58.2595 29.2886 58.3498 29.261 58.4272 29.2101C58.5045 29.1592 58.5657 29.0872 58.6034 29.0027C58.7136 28.7296 58.7626 28.4356 58.7469 28.1416V27.9263C58.7549 27.1369 58.5615 26.7423 58.1669 26.7423Z" fill="#868383"/>
<path d="M61.0971 26.3118C61.2677 26.3014 61.4381 26.335 61.592 26.4094C61.7459 26.4837 61.8782 26.5963 61.9761 26.7364C62.209 27.1316 62.3154 27.5886 62.2811 28.046C62.3159 28.5054 62.2095 28.9644 61.9761 29.3616C61.8699 29.4982 61.7339 29.6088 61.5784 29.6848C61.423 29.7609 61.2522 29.8004 61.0791 29.8004C60.9061 29.8004 60.7353 29.7609 60.5798 29.6848C60.4244 29.6088 60.2883 29.4982 60.1821 29.3616C59.9488 28.9644 59.8424 28.5054 59.8771 28.046C59.8428 27.5886 59.9493 27.1316 60.1821 26.7364C60.2837 26.5912 60.4218 26.4755 60.5824 26.401C60.7431 26.3264 60.9207 26.2956 61.0971 26.3118ZM61.0971 26.7723C60.9964 26.7682 60.8967 26.793 60.8098 26.8439C60.7229 26.8948 60.6524 26.9696 60.6067 27.0593C60.4884 27.3324 60.4351 27.6292 60.4512 27.9264V28.1716C60.4356 28.4668 60.4889 28.7616 60.6067 29.0327C60.6524 29.1224 60.7229 29.1972 60.8098 29.2481C60.8967 29.299 60.9964 29.3238 61.0971 29.3197C61.1961 29.3237 61.2942 29.2987 61.3792 29.2477C61.4642 29.1967 61.5324 29.122 61.5755 29.0327C61.6996 28.7634 61.7551 28.4675 61.7369 28.1716V27.9264C61.7652 27.6201 61.7159 27.3116 61.5934 27.0294C61.5492 26.9372 61.4781 26.8604 61.3896 26.8092C61.301 26.758 61.1991 26.7347 61.0971 26.7424V26.7723Z" fill="#868383"/>
<path d="M63.8956 26.3117C64.0531 26.309 64.2096 26.3375 64.3561 26.3955C64.4819 26.45 64.5912 26.5366 64.673 26.6466C64.7622 26.7694 64.8234 26.9102 64.8524 27.0592C64.8956 27.2414 64.9157 27.4282 64.9122 27.6154H64.374C64.3844 27.492 64.3844 27.368 64.374 27.2446C64.3689 27.1521 64.3423 27.062 64.2963 26.9815C64.265 26.915 64.2151 26.8589 64.1528 26.82C64.0794 26.7874 63.9998 26.7711 63.9196 26.7722C63.8246 26.7694 63.731 26.7953 63.651 26.8465C63.571 26.8977 63.5083 26.9718 63.4711 27.0592C63.3604 27.3343 63.3114 27.6303 63.3276 27.9263V28.1715C63.3135 28.4649 63.3603 28.7581 63.4651 29.0326C63.5027 29.121 63.5663 29.1958 63.6475 29.2471C63.7287 29.2983 63.8236 29.3237 63.9196 29.3196C64.0007 29.3223 64.081 29.3037 64.1528 29.2658C64.2205 29.228 64.2764 29.1721 64.3142 29.1044C64.3554 29.0193 64.3836 28.9286 64.398 28.8353C64.4081 28.7159 64.4081 28.5959 64.398 28.4765H64.9122C64.9131 28.6434 64.895 28.8099 64.8584 28.9728C64.8253 29.1205 64.7644 29.2605 64.679 29.3854C64.599 29.5061 64.49 29.6047 64.3621 29.6725C64.2187 29.7486 64.0579 29.7857 63.8956 29.7801C63.7208 29.7838 63.5473 29.7491 63.3874 29.6784C63.2434 29.6064 63.1216 29.4969 63.0345 29.3615C62.9334 29.1944 62.8645 29.0098 62.8312 28.8173C62.7795 28.5635 62.7555 28.3049 62.7595 28.0459C62.7295 27.5924 62.8247 27.1394 63.0345 26.7363C63.1275 26.5955 63.2562 26.482 63.4076 26.4074C63.5589 26.3327 63.7273 26.2997 63.8956 26.3117Z" fill="#868383"/>
<path d="M67.6212 29.6785H67.2265L67.1607 29.2898H67.1188C67.044 29.443 66.9226 29.5686 66.772 29.6486C66.6302 29.7166 66.4748 29.7513 66.3175 29.7502C66.2037 29.7513 66.0904 29.7331 65.9826 29.6964C65.8838 29.6639 65.7952 29.6062 65.7255 29.529C65.6499 29.4373 65.593 29.3316 65.5581 29.218C65.5167 29.0661 65.4966 28.9091 65.4983 28.7516V26.3596H66.0185V28.7038C66.0155 28.8007 66.0276 28.8976 66.0544 28.9908C66.069 29.0583 66.1021 29.1205 66.1501 29.1702C66.1893 29.2121 66.2388 29.243 66.2936 29.2599C66.357 29.2702 66.4216 29.2702 66.485 29.2599C66.5666 29.2607 66.647 29.2401 66.7182 29.2001C66.7974 29.157 66.8651 29.0955 66.9155 29.0207C66.9778 28.9338 67.0243 28.8366 67.0531 28.7337C67.0859 28.6088 67.102 28.4801 67.1009 28.3509V26.3596H67.6212V29.6785Z" fill="#868383"/>
<path d="M71.1613 26.3116C71.2693 26.3105 71.3767 26.3287 71.4782 26.3654C71.5746 26.3991 71.6596 26.4592 71.7234 26.5389C71.8017 26.6279 71.8571 26.7346 71.8849 26.8498C71.9292 27.0012 71.9494 27.1586 71.9447 27.3162V29.7082H71.4244V27.3222C71.4352 27.2268 71.4352 27.1306 71.4244 27.0352C71.4043 26.971 71.374 26.9104 71.3347 26.8558C71.2958 26.8164 71.2489 26.7859 71.1972 26.7661C71.1417 26.7569 71.0852 26.7569 71.0297 26.7661C70.9517 26.7637 70.8747 26.7845 70.8085 26.8259C70.7344 26.8715 70.6711 26.9327 70.6231 27.0053C70.5694 27.0946 70.5291 27.1913 70.5035 27.2923C70.471 27.4173 70.455 27.5459 70.4557 27.675V29.7022H69.9414V27.3222C69.9436 27.2253 69.9315 27.1286 69.9055 27.0352C69.8904 26.9691 69.8596 26.9076 69.8158 26.8558C69.7801 26.8154 69.7349 26.7845 69.6843 26.7661C69.6268 26.7569 69.5683 26.7569 69.5108 26.7661C69.433 26.7654 69.3565 26.7861 69.2896 26.8259C69.2184 26.8731 69.1574 26.9341 69.1102 27.0053C69.0519 27.0929 69.0094 27.1901 68.9846 27.2923C68.9521 27.4173 68.936 27.5459 68.9368 27.675V29.7022H68.4225V26.3595H68.7693L68.8411 26.7422H68.877C68.9486 26.5961 69.0607 26.4736 69.1999 26.3894C69.3338 26.3167 69.4841 26.2797 69.6364 26.2817C69.7878 26.2782 69.9371 26.3175 70.067 26.3953C70.1997 26.4798 70.2974 26.6093 70.342 26.7601C70.426 26.6115 70.5477 26.4877 70.6949 26.4013C70.8401 26.3319 71.0007 26.301 71.1613 26.3116Z" fill="#868383"/>
<path d="M73.8223 26.3118C73.9863 26.3086 74.1491 26.3391 74.3007 26.4015C74.4389 26.4577 74.5575 26.5534 74.6416 26.6765C74.742 26.8223 74.8112 26.9872 74.8449 27.1609C74.8968 27.3945 74.9209 27.6333 74.9167 27.8725V28.2014H73.1227C73.1017 28.4957 73.1638 28.79 73.3021 29.0506C73.3605 29.1399 73.4418 29.212 73.5375 29.2593C73.6332 29.3066 73.7398 29.3275 73.8463 29.3197C73.9245 29.3201 74.002 29.3038 74.0735 29.2718C74.1446 29.2374 74.2062 29.1861 74.2529 29.1223C74.3045 29.0512 74.3449 28.9725 74.3725 28.8891C74.3973 28.7873 74.4093 28.6829 74.4084 28.5782H74.9226C74.926 28.7488 74.8997 28.9188 74.8449 29.0805C74.798 29.22 74.7227 29.3483 74.6237 29.4572C74.5291 29.5639 74.4101 29.646 74.2768 29.6964C74.1359 29.7521 73.9858 29.7805 73.8343 29.7801C73.6484 29.7841 73.4635 29.7516 73.2901 29.6844C73.1336 29.6198 72.9988 29.512 72.9014 29.3735C72.7844 29.2131 72.7029 29.0296 72.6622 28.8353C72.6026 28.5765 72.5745 28.3115 72.5785 28.0459C72.5446 27.587 72.6555 27.129 72.8955 26.7363C73.0028 26.5945 73.1437 26.4814 73.3054 26.4074C73.4672 26.3333 73.6448 26.3004 73.8223 26.3118ZM73.8223 26.7722C73.7194 26.7689 73.6171 26.7894 73.5233 26.832C73.4396 26.8737 73.3692 26.9379 73.32 27.0174C73.2563 27.1071 73.2115 27.2088 73.1885 27.3164C73.155 27.4539 73.133 27.5939 73.1227 27.735H74.3725C74.3891 27.4879 74.3417 27.2408 74.235 27.0174C74.2009 26.936 74.1435 26.8666 74.0701 26.8176C73.9967 26.7687 73.9105 26.7425 73.8223 26.7423V26.7722Z" fill="#868383"/>
<path d="M76.8661 26.3117C76.982 26.31 77.0973 26.3282 77.207 26.3655C77.3065 26.3997 77.3951 26.4595 77.4641 26.5389C77.5424 26.6279 77.5978 26.7346 77.6256 26.8499C77.6699 27.0012 77.6901 27.1586 77.6854 27.3163V29.7083H77.1711V27.3223C77.1733 27.2253 77.1612 27.1286 77.1352 27.0352C77.1156 26.9697 77.0831 26.9087 77.0395 26.8558C76.9982 26.8137 76.9467 26.7828 76.89 26.7661C76.8267 26.7559 76.7621 26.7559 76.6987 26.7661C76.6172 26.7661 76.5369 26.7867 76.4655 26.8259C76.3886 26.8723 76.3216 26.9332 76.2681 27.0053C76.2079 27.0926 76.1633 27.1897 76.1366 27.2924C76.0991 27.4164 76.0809 27.5455 76.0828 27.6751V29.7023H75.5685V26.3595H75.9452L76.017 26.7422H76.0529C76.1312 26.593 76.2518 26.4703 76.3997 26.3894C76.5463 26.3251 76.7066 26.2984 76.8661 26.3117Z" fill="#868383"/>
<path d="M78.9352 26.3596H79.3777V26.8201H78.9352V28.9848C78.9293 29.0669 78.9549 29.1482 79.007 29.2121C79.0363 29.2399 79.0712 29.2612 79.1093 29.2746C79.1474 29.2879 79.1879 29.2931 79.2282 29.2898H79.3777V29.6546C79.3244 29.6809 79.2682 29.701 79.2103 29.7144C79.1428 29.7228 79.0745 29.7228 79.007 29.7144C78.9091 29.7176 78.8122 29.6949 78.7259 29.6486C78.6506 29.6072 78.5868 29.5476 78.5405 29.4752C78.4954 29.3992 78.4631 29.3164 78.4448 29.23C78.4257 29.1375 78.4157 29.0434 78.4149 28.9489V26.7962H78.1279V26.3357H78.4149L78.5286 25.4148H78.9352V26.3596Z" fill="#868383"/>
<path d="M80.8249 26.3118C80.9638 26.3091 81.1019 26.3334 81.2315 26.3835C81.3438 26.4278 81.4457 26.495 81.5305 26.5809C81.6118 26.6625 81.675 26.7603 81.7159 26.8679C81.757 26.9809 81.7773 27.1005 81.7757 27.2207C81.7786 27.2446 81.7786 27.2687 81.7757 27.2925V27.3403H81.2375V27.2865C81.2434 27.2229 81.2434 27.1588 81.2375 27.0951C81.2214 27.0353 81.1951 26.9786 81.1598 26.9277C81.1218 26.8772 81.0727 26.8363 81.0162 26.8081C80.9489 26.777 80.875 26.7627 80.801 26.7662C80.723 26.7621 80.6451 26.7765 80.5737 26.8081C80.5219 26.8381 80.4754 26.8765 80.4362 26.9217C80.4016 26.9657 80.3771 27.0167 80.3644 27.0712C80.3589 27.1209 80.3589 27.171 80.3644 27.2207C80.3622 27.2996 80.3853 27.3771 80.4302 27.442C80.4765 27.5038 80.5356 27.5548 80.6036 27.5915C80.6794 27.6356 80.7595 27.6717 80.8428 27.6991L81.1239 27.8008C81.2196 27.8356 81.3135 27.8755 81.4049 27.9204C81.4941 27.9664 81.575 28.027 81.6441 28.0998C81.7201 28.1764 81.7792 28.268 81.8176 28.3689C81.8637 28.4952 81.886 28.6291 81.8833 28.7635C81.886 28.921 81.8576 29.0775 81.7996 29.224C81.7506 29.345 81.675 29.4533 81.5784 29.5409C81.4822 29.626 81.3675 29.6874 81.2435 29.7203C81.1079 29.7619 80.9667 29.7821 80.8249 29.7801C80.6574 29.7869 80.4903 29.7584 80.3345 29.6964C80.2083 29.6505 80.0939 29.5769 79.9996 29.4811C79.9178 29.3909 79.8547 29.2851 79.8143 29.1702C79.7741 29.0548 79.7539 28.9335 79.7545 28.8114V28.7038C79.7564 28.6899 79.7564 28.6758 79.7545 28.6619H80.2986V28.7038C80.295 28.7953 80.3092 28.8867 80.3405 28.9728C80.3647 29.042 80.4035 29.1052 80.4541 29.1582C80.5034 29.2063 80.5626 29.243 80.6275 29.2659C80.6976 29.2854 80.77 29.2955 80.8428 29.2958C80.9079 29.298 80.9729 29.2879 81.0342 29.2659C81.0934 29.2479 81.1469 29.2149 81.1897 29.1702C81.2386 29.1287 81.2757 29.0751 81.2973 29.0147C81.3272 28.9491 81.3416 28.8775 81.3392 28.8054C81.3453 28.7149 81.3222 28.6248 81.2734 28.5483C81.2321 28.478 81.1747 28.4186 81.1059 28.3749C81.0285 28.3267 80.9464 28.2866 80.8608 28.2553L80.5857 28.1536L80.3046 28.034C80.2169 27.9881 80.1363 27.9297 80.0654 27.8606C79.9909 27.7874 79.932 27.6999 79.892 27.6034C79.8463 27.4853 79.824 27.3594 79.8262 27.2327C79.8242 27.0958 79.8485 26.9597 79.898 26.832C79.9459 26.7187 80.0172 26.6168 80.1073 26.533C80.2017 26.4506 80.3114 26.3876 80.4302 26.3477C80.5594 26.3168 80.6923 26.3047 80.8249 26.3118Z" fill="#868383"/>
<path d="M84.9151 26.3117C85.1887 26.2915 85.4593 26.3795 85.6686 26.5569C85.7559 26.6478 85.8232 26.7559 85.8665 26.8743C85.9097 26.9927 85.9279 27.1188 85.9198 27.2445V29.1043C85.9171 29.1344 85.9206 29.1647 85.9298 29.1934C85.939 29.2222 85.9539 29.2488 85.9736 29.2717C86.014 29.2988 86.0631 29.3095 86.1111 29.3016H86.3085V29.6664L86.1769 29.7143C86.1075 29.7248 86.037 29.7248 85.9676 29.7143C85.8439 29.7197 85.7225 29.6792 85.6267 29.6006C85.5364 29.5218 85.4718 29.4176 85.4414 29.3016H85.4115C85.3295 29.4363 85.2142 29.5476 85.0766 29.6246C84.9313 29.702 84.7687 29.7411 84.6042 29.7382H84.4248L84.2334 29.6903C84.1674 29.6648 84.1051 29.6306 84.048 29.5887C83.9825 29.543 83.9275 29.4839 83.8866 29.4153C83.8347 29.3386 83.7963 29.2537 83.773 29.1641C83.745 29.0506 83.731 28.9342 83.7311 28.8173C83.724 28.6222 83.7672 28.4286 83.8567 28.2552C83.9399 28.1122 84.0624 27.996 84.2095 27.9203C84.3753 27.8327 84.5556 27.776 84.7417 27.7528C84.9635 27.721 85.1874 27.705 85.4115 27.705V27.2804C85.4213 27.207 85.4213 27.1326 85.4115 27.0592C85.4017 26.9972 85.3748 26.9392 85.3337 26.8917C85.2912 26.84 85.2354 26.8007 85.1723 26.7781C85.0872 26.7515 84.9982 26.7394 84.9092 26.7422C84.8254 26.7388 84.7419 26.7531 84.664 26.7841C84.6047 26.8158 84.5519 26.8584 84.5085 26.9097C84.4708 26.9592 84.4443 27.0163 84.4308 27.0771C84.4221 27.1406 84.4221 27.205 84.4308 27.2685V27.3402H83.9225C83.9192 27.3204 83.9192 27.3002 83.9225 27.2804V27.2027C83.9193 27.0651 83.9458 26.9284 84.0002 26.802C84.0512 26.6908 84.1269 26.5927 84.2215 26.515C84.3194 26.434 84.4336 26.3748 84.5563 26.3416C84.6742 26.3164 84.7947 26.3064 84.9151 26.3117ZM85.3995 28.2013C85.2462 28.1916 85.0924 28.1916 84.939 28.2013C84.8151 28.2098 84.6936 28.2402 84.5803 28.291C84.4881 28.3322 84.4079 28.3959 84.347 28.4764C84.2902 28.5722 84.2612 28.682 84.2633 28.7934C84.2534 28.9342 84.2937 29.074 84.3769 29.188C84.4708 29.2651 84.5906 29.3036 84.7118 29.2957C84.7958 29.2948 84.8789 29.2786 84.957 29.2478C85.0416 29.2136 85.1173 29.1604 85.1782 29.0924C85.2482 29.0201 85.303 28.9348 85.3397 28.8412C85.3823 28.7244 85.4026 28.6007 85.3995 28.4764V28.2013Z" fill="#868383"/>
<path d="M88.0905 26.3118C88.2044 26.3097 88.3178 26.3279 88.4254 26.3657C88.5259 26.3976 88.6152 26.4578 88.6825 26.5391C88.7606 26.6291 88.8178 26.7353 88.8499 26.85C88.8943 27.0014 88.9144 27.1588 88.9097 27.3165V29.7084H88.3895V27.3224C88.3904 27.2259 88.3803 27.1297 88.3596 27.0354C88.3376 26.9709 88.3052 26.9103 88.2639 26.856C88.2216 26.815 88.1705 26.7843 88.1144 26.7663C88.051 26.7568 87.9865 26.7568 87.923 26.7663C87.8413 26.7649 87.7608 26.7856 87.6898 26.8261C87.6106 26.8692 87.5429 26.9307 87.4925 27.0055C87.4326 27.0938 87.3862 27.1905 87.355 27.2925C87.3225 27.4175 87.3064 27.5462 87.3071 27.6753V29.7025H86.7869V26.3597H87.1815L87.2533 26.7424H87.3071C87.3817 26.5925 87.5008 26.4693 87.648 26.3896C87.7875 26.33 87.939 26.3034 88.0905 26.3118Z" fill="#868383"/>
<path d="M90.9728 29.5051C90.926 29.6793 90.8701 29.8509 90.8054 30.0193C90.748 30.1681 90.6716 30.3088 90.5782 30.4379C90.5023 30.552 90.4023 30.648 90.2851 30.719C90.1688 30.7919 90.0337 30.8293 89.8964 30.8266H89.6991C89.6395 30.8214 89.5811 30.8073 89.5257 30.7848V30.426H89.6991C89.7684 30.4259 89.8372 30.4138 89.9024 30.3901C89.9725 30.3648 90.0359 30.3239 90.0878 30.2705C90.1498 30.2035 90.2003 30.1267 90.2373 30.0433C90.2888 29.9299 90.3289 29.8118 90.3569 29.6904L89.3403 26.3716H89.9024L90.638 28.943L91.2359 26.3716H91.7622L90.9728 29.5051Z" fill="#868383"/>
<path d="M92.7668 26.3596H93.2153V26.8201H92.7668V28.9848C92.7609 29.0669 92.7865 29.1482 92.8386 29.2121C92.8681 29.2396 92.903 29.2606 92.9411 29.274C92.9791 29.2874 93.0196 29.2928 93.0598 29.2898H93.2153V29.6546C93.1599 29.6808 93.1017 29.7009 93.0419 29.7144C92.9744 29.7228 92.9061 29.7228 92.8386 29.7144C92.7409 29.7157 92.6444 29.6931 92.5575 29.6486C92.4822 29.6072 92.4185 29.5476 92.3721 29.4752C92.3296 29.398 92.2974 29.3156 92.2764 29.23C92.2573 29.1375 92.2473 29.0434 92.2465 28.9489V26.7962H91.9595V26.3357H92.2465L92.3602 25.4148H92.7668V26.3596Z" fill="#868383"/>
<path d="M94.1482 25.7137H93.6339V25.1157H94.1482V25.7137ZM94.1482 29.6605H93.6339V26.3596H94.1482V29.6605Z" fill="#868383"/>
<path d="M97.6105 26.3116C97.7205 26.31 97.8299 26.3282 97.9335 26.3654C98.0286 26.4014 98.113 26.4611 98.1786 26.5389C98.2525 26.6308 98.3074 26.7365 98.3401 26.8498C98.3792 27.0021 98.3974 27.159 98.3939 27.3162V29.7082H97.8796V27.3222C97.8818 27.2253 97.8698 27.1286 97.8438 27.0352C97.8286 26.9691 97.7979 26.9076 97.7541 26.8558C97.7173 26.8139 97.6697 26.7829 97.6165 26.7661C97.5611 26.7565 97.5045 26.7565 97.4491 26.7661C97.3713 26.7654 97.2947 26.7861 97.2278 26.8259C97.1567 26.8731 97.0957 26.9341 97.0484 27.0053C96.9902 27.0929 96.9477 27.1901 96.9229 27.2923C96.8925 27.4176 96.8785 27.5462 96.881 27.675V29.7022H96.3607V27.3222C96.3715 27.2268 96.3715 27.1306 96.3607 27.0352C96.3406 26.971 96.3104 26.9104 96.271 26.8558C96.2332 26.8151 96.186 26.7843 96.1335 26.7661C96.0781 26.7569 96.0215 26.7569 95.9661 26.7661C95.8881 26.7647 95.8114 26.7855 95.7448 26.8259C95.6707 26.8715 95.6074 26.9327 95.5594 27.0053C95.5061 27.0955 95.4639 27.1919 95.4339 27.2923C95.4035 27.4176 95.3895 27.5462 95.392 27.675V29.7022H94.8717V26.3595H95.2664L95.3382 26.7422H95.3741C95.4439 26.5949 95.5564 26.4719 95.697 26.3894C95.8287 26.3167 95.9771 26.2796 96.1275 26.2817C96.2791 26.2764 96.4289 26.316 96.5581 26.3953C96.6908 26.4798 96.7885 26.6093 96.8332 26.7601C96.9188 26.6128 97.0402 26.4895 97.186 26.4013C97.3188 26.3393 97.464 26.3086 97.6105 26.3116Z" fill="#868383"/>
<path d="M100.29 26.3117C100.453 26.3085 100.616 26.339 100.768 26.4014C100.906 26.4576 101.025 26.5533 101.109 26.6765C101.207 26.8236 101.276 26.988 101.312 27.1608C101.364 27.3944 101.388 27.6333 101.384 27.8725V28.2014H99.5899C99.5689 28.4956 99.631 28.7899 99.7693 29.0505C99.8277 29.1398 99.909 29.2119 100.005 29.2592C100.1 29.3066 100.207 29.3274 100.313 29.3196C100.392 29.3222 100.47 29.3057 100.541 29.2713C100.612 29.2369 100.673 29.1857 100.72 29.1223C100.77 29.0508 100.808 28.9721 100.834 28.889C100.864 28.7881 100.878 28.6833 100.876 28.5781H101.39C101.391 28.7491 101.363 28.9191 101.306 29.0804C101.262 29.221 101.186 29.3498 101.085 29.4571C100.991 29.5623 100.875 29.6442 100.744 29.6963C100.603 29.752 100.453 29.7804 100.302 29.7801C100.116 29.7851 99.9304 29.7526 99.7573 29.6844C99.6001 29.6182 99.4637 29.5108 99.3627 29.3734C99.248 29.2117 99.1667 29.0287 99.1235 28.8352C99.0661 28.5762 99.04 28.3112 99.0457 28.0459C99.0101 27.5876 99.1188 27.1296 99.3567 26.7363C99.465 26.5939 99.6069 26.4806 99.7697 26.4066C99.9325 26.3325 100.111 26.2999 100.29 26.3117ZM100.29 26.7721C100.187 26.7682 100.084 26.7887 99.9906 26.8319C99.9052 26.8735 99.8328 26.9376 99.7813 27.0173C99.722 27.1088 99.6795 27.21 99.6557 27.3163C99.6194 27.4532 99.5973 27.5935 99.5899 27.7349H100.84C100.855 27.4873 100.805 27.2401 100.696 27.0173C100.665 26.9355 100.609 26.8653 100.536 26.8162C100.463 26.767 100.377 26.7412 100.29 26.7422V26.7721Z" fill="#868383"/>
<path d="M102.688 29.6186L102.389 30.4618H102.054L102.311 29.6784H102.054V28.9907H102.688V29.6186Z" fill="#868383"/>
<path d="M105.941 26.3117C106.075 26.3012 106.211 26.3174 106.339 26.3595C106.467 26.4016 106.586 26.4687 106.688 26.5569C106.775 26.6478 106.843 26.7559 106.886 26.8743C106.929 26.9927 106.947 27.1188 106.939 27.2446V29.1043C106.937 29.1344 106.94 29.1647 106.949 29.1935C106.959 29.2222 106.973 29.2488 106.993 29.2718C107.028 29.3015 107.073 29.3183 107.119 29.3196H107.316V29.6844L107.19 29.7322C107.119 29.7424 107.047 29.7424 106.975 29.7322C106.853 29.7367 106.734 29.6963 106.64 29.6186C106.539 29.5399 106.469 29.4275 106.443 29.3017C106.357 29.4355 106.24 29.5463 106.102 29.6246C105.959 29.7028 105.798 29.7419 105.636 29.7382H105.456L105.259 29.6904C105.194 29.6635 105.131 29.6294 105.074 29.5887C105.011 29.5398 104.956 29.4812 104.912 29.4153C104.86 29.3395 104.823 29.2542 104.804 29.1641C104.774 29.0512 104.759 28.9343 104.763 28.8173C104.755 28.6222 104.799 28.4286 104.888 28.2552C104.971 28.1122 105.094 27.996 105.241 27.9203C105.406 27.8318 105.587 27.7751 105.773 27.7529C105.995 27.7205 106.219 27.7046 106.443 27.705V27.2804C106.45 27.2068 106.45 27.1328 106.443 27.0592C106.431 26.998 106.404 26.9406 106.365 26.8917C106.32 26.8426 106.265 26.8039 106.204 26.7781C106.119 26.7519 106.03 26.7398 105.941 26.7423C105.857 26.7389 105.773 26.7531 105.695 26.7841C105.634 26.8126 105.581 26.8557 105.54 26.9097C105.5 26.9589 105.472 27.016 105.456 27.0771C105.447 27.1406 105.447 27.205 105.456 27.2685V27.3402H104.942C104.942 27.3402 104.942 27.3044 104.942 27.2804V27.2027C104.941 27.0647 104.969 26.928 105.026 26.802C105.074 26.6911 105.148 26.5929 105.241 26.515C105.341 26.434 105.457 26.3749 105.582 26.3416C105.7 26.3164 105.82 26.3064 105.941 26.3117ZM106.425 28.2014C106.27 28.1916 106.114 28.1916 105.959 28.2014C105.836 28.2091 105.717 28.2395 105.606 28.2911C105.512 28.3288 105.431 28.3932 105.373 28.4764C105.316 28.5722 105.287 28.682 105.289 28.7934C105.274 28.9347 105.314 29.0764 105.402 29.188C105.496 29.2657 105.616 29.3042 105.737 29.2957C105.821 29.2937 105.904 29.2775 105.982 29.2478C106.064 29.2112 106.137 29.1583 106.198 29.0924C106.268 29.0202 106.323 28.9348 106.359 28.8412C106.404 28.7248 106.426 28.6011 106.425 28.4764V28.2014Z" fill="#868383"/>
<path d="M109.086 26.3118C109.201 26.2919 109.318 26.2919 109.433 26.3118C109.532 26.346 109.621 26.4058 109.69 26.4852C109.768 26.5742 109.824 26.6809 109.851 26.7962C109.896 26.9475 109.916 27.1049 109.911 27.2626V29.6546H109.397V27.3224C109.399 27.2255 109.387 27.1287 109.361 27.0353C109.341 26.9698 109.309 26.9088 109.265 26.856C109.224 26.8138 109.173 26.7829 109.116 26.7663C109.053 26.756 108.988 26.756 108.925 26.7663C108.843 26.7662 108.763 26.7868 108.691 26.8261C108.615 26.871 108.55 26.9322 108.5 27.0054C108.435 27.091 108.389 27.1886 108.362 27.2925C108.325 27.4165 108.307 27.5456 108.309 27.6752V29.7024H107.794V26.3596H108.183L108.255 26.7423H108.291C108.369 26.5931 108.49 26.4704 108.638 26.3895C108.779 26.3281 108.932 26.3015 109.086 26.3118Z" fill="#868383"/>
<path d="M111.968 29.5051C111.924 29.6801 111.868 29.8519 111.801 30.0193C111.743 30.1667 111.669 30.3071 111.58 30.4379C111.502 30.5523 111.4 30.6482 111.281 30.719C111.167 30.7921 111.033 30.8296 110.898 30.8266H110.695C110.637 30.8219 110.58 30.8077 110.527 30.7848V30.426H110.707C110.776 30.4259 110.845 30.4138 110.91 30.3901C110.981 30.3663 111.044 30.3252 111.095 30.2705C111.159 30.2038 111.212 30.127 111.251 30.0433C111.3 29.9297 111.338 29.8115 111.364 29.6904L110.348 26.3716H110.916L111.645 28.943H111.675L112.273 26.3716H112.8L111.968 29.5051Z" fill="#868383"/>
<path d="M115.772 29.6785H115.174L114.827 27.7828C114.827 27.6991 114.797 27.6094 114.785 27.5197C114.773 27.43 114.785 27.3463 114.749 27.2745C114.713 27.2028 114.749 27.1011 114.749 27.0234C114.749 27.1011 114.749 27.1848 114.749 27.2745C114.749 27.3642 114.749 27.43 114.719 27.5197C114.689 27.6094 114.689 27.6991 114.677 27.7828L114.336 29.6785H113.738L112.913 26.3596H113.475L113.894 28.2254C113.894 28.2911 113.924 28.3749 113.942 28.4646C113.96 28.5543 113.942 28.638 113.984 28.7217C114.025 28.8054 114.014 28.9131 114.025 29.0147H114.055C114.055 28.931 114.055 28.8413 114.055 28.7516C114.055 28.6619 114.055 28.5842 114.091 28.4945C114.127 28.4048 114.091 28.3091 114.133 28.2254L114.468 26.3596H115.066L115.413 28.2254C115.413 28.3091 115.443 28.3988 115.449 28.4945L115.485 28.7456C115.485 28.8353 115.485 28.925 115.485 29.0147H115.514C115.521 28.9303 115.533 28.8464 115.55 28.7636C115.55 28.6858 115.55 28.6021 115.592 28.5064C115.605 28.4118 115.623 28.318 115.646 28.2254L116.059 26.3596H116.609L115.772 29.6785Z" fill="#868383"/>
<path d="M117.506 26.7064H117.542C117.612 26.5709 117.72 26.4588 117.853 26.3834C117.985 26.3081 118.137 26.2728 118.289 26.2818C118.403 26.2797 118.517 26.2979 118.624 26.3356C118.725 26.3676 118.814 26.4278 118.881 26.509C118.959 26.5991 119.016 26.7053 119.049 26.82C119.093 26.9714 119.113 27.1288 119.108 27.2864V29.6784H118.588V27.3223C118.589 27.2258 118.579 27.1295 118.558 27.0353C118.536 26.9707 118.504 26.9101 118.463 26.8559C118.421 26.8137 118.37 26.7829 118.313 26.7662C118.25 26.7567 118.185 26.7567 118.122 26.7662C118.04 26.7648 117.959 26.7854 117.889 26.826C117.809 26.8691 117.742 26.9306 117.691 27.0054C117.631 27.0937 117.585 27.1904 117.554 27.2924C117.521 27.4174 117.505 27.546 117.506 27.6751V29.7023H116.986V25.1157H117.506V26.7064Z" fill="#868383"/>
<path d="M120.998 26.3118C121.162 26.3086 121.325 26.3391 121.476 26.4015C121.615 26.4577 121.733 26.5534 121.817 26.6765C121.917 26.8232 121.988 26.9876 122.027 27.1609C122.073 27.3952 122.095 27.6337 122.092 27.8725V28.2014H120.298C120.283 28.4953 120.345 28.7879 120.478 29.0506C120.536 29.1399 120.618 29.212 120.713 29.2593C120.809 29.3066 120.916 29.3275 121.022 29.3197C121.1 29.3201 121.178 29.3038 121.249 29.2718C121.32 29.2374 121.382 29.1861 121.429 29.1223C121.48 29.0512 121.521 28.9725 121.548 28.8891C121.575 28.7876 121.589 28.6831 121.59 28.5782H122.098C122.102 28.7488 122.075 28.9188 122.021 29.0805C121.974 29.22 121.898 29.3483 121.799 29.4572C121.705 29.5639 121.586 29.646 121.453 29.6964C121.312 29.7521 121.162 29.7805 121.01 29.7801C120.826 29.7847 120.643 29.7522 120.472 29.6844C120.314 29.6199 120.177 29.5122 120.077 29.3735C119.96 29.2131 119.879 29.0296 119.838 28.8353C119.781 28.5762 119.755 28.3112 119.76 28.0459C119.725 27.5876 119.833 27.1297 120.071 26.7363C120.179 26.5945 120.319 26.4814 120.481 26.4074C120.643 26.3333 120.821 26.3004 120.998 26.3118ZM120.998 26.7722C120.897 26.767 120.796 26.7876 120.705 26.832C120.62 26.8736 120.547 26.9377 120.496 27.0174C120.432 27.1071 120.387 27.2088 120.364 27.3164C120.331 27.4539 120.309 27.5939 120.298 27.735H121.548C121.565 27.4879 121.517 27.2408 121.411 27.0174C121.377 26.936 121.319 26.8666 121.246 26.8176C121.172 26.7687 121.086 26.7425 120.998 26.7423V26.7722Z" fill="#868383"/>
<path d="M123.785 26.3116H123.88H123.958H124.03V26.8438H123.856C123.777 26.8462 123.699 26.8603 123.623 26.8857C123.55 26.9146 123.485 26.9595 123.432 27.0173C123.368 27.0852 123.321 27.1671 123.294 27.2565C123.255 27.3761 123.237 27.5015 123.241 27.6272V29.6544H122.726V26.3595H123.115L123.187 26.79H123.223C123.223 26.7302 123.27 26.6644 123.3 26.6046C123.331 26.5462 123.369 26.492 123.414 26.4432C123.461 26.3949 123.516 26.3545 123.575 26.3236C123.643 26.3038 123.715 26.2997 123.785 26.3116Z" fill="#868383"/>
<path d="M125.579 26.3118C125.741 26.3094 125.901 26.34 126.051 26.4015C126.19 26.4591 126.31 26.5544 126.398 26.6766C126.496 26.8237 126.565 26.9881 126.601 27.161C126.651 27.3948 126.673 27.6336 126.667 27.8726V28.2015H124.873C124.852 28.4958 124.914 28.79 125.052 29.0507C125.111 29.14 125.192 29.2121 125.288 29.2594C125.384 29.3067 125.49 29.3275 125.597 29.3197C125.673 29.3195 125.748 29.3032 125.818 29.2719C125.889 29.2375 125.951 29.1861 125.997 29.1224C126.051 29.0527 126.092 28.9736 126.117 28.8892C126.147 28.7883 126.161 28.6834 126.159 28.5782H126.667C126.67 28.7489 126.644 28.9189 126.589 29.0806C126.545 29.2212 126.469 29.3499 126.368 29.4573C126.275 29.5625 126.158 29.6444 126.027 29.6965C125.886 29.7522 125.736 29.7806 125.585 29.7802C125.399 29.7853 125.214 29.7527 125.041 29.6845C124.883 29.6184 124.747 29.5109 124.646 29.3736C124.529 29.2132 124.447 29.0297 124.407 28.8354C124.349 28.5763 124.323 28.3113 124.329 28.046C124.293 27.5877 124.402 27.1298 124.64 26.7364C124.749 26.5932 124.892 26.4794 125.056 26.4052C125.219 26.3311 125.399 26.299 125.579 26.3118ZM125.579 26.7723C125.476 26.7683 125.373 26.7888 125.28 26.8321C125.194 26.8736 125.122 26.9377 125.07 27.0175C125.012 27.1098 124.967 27.2107 124.939 27.3165C124.908 27.4542 124.888 27.5941 124.879 27.7351H126.177C126.192 27.4875 126.142 27.2402 126.033 27.0175C125.999 26.9274 125.936 26.8514 125.853 26.8015C125.771 26.7516 125.674 26.7308 125.579 26.7424V26.7723Z" fill="#868383"/>
<path d="M5.38196 26.8439C4.17792 26.8368 3.01103 26.4262 2.06789 25.6777C1.12475 24.9293 0.459845 23.8861 0.179502 22.7151C-0.100841 21.5442 0.0195737 20.313 0.52149 19.2186C1.02341 18.1241 1.87783 17.2296 2.94812 16.678C2.98921 15.1668 3.51456 13.7087 4.44677 12.5186C5.37899 11.3285 6.66878 10.4692 8.12616 10.0673C9.58354 9.66549 11.1315 9.74231 12.5419 10.2865C13.9523 10.8307 15.1507 11.8135 15.9605 13.0901C16.5917 12.8431 17.2621 12.7114 17.9398 12.7014C19.1315 12.6983 20.2929 13.0769 21.2539 13.7818C22.2148 14.4866 22.9248 15.4806 23.2799 16.6182C24.1803 17.0649 24.9377 17.7549 25.4661 18.6099C25.9945 19.4649 26.273 20.4508 26.2699 21.456C26.2722 22.7493 25.8087 24.0001 24.9642 24.9796C24.1198 25.9592 22.9508 26.6018 21.6713 26.7901V26.8439H5.38196Z" fill="#6334FF"/>
<path d="M22.5982 17.1743C22.4273 16.457 22.0941 15.7886 21.6243 15.2203C21.1544 14.652 20.5605 14.1991 19.8881 13.8965C19.2158 13.5938 18.483 13.4494 17.7461 13.4744C17.0092 13.4995 16.2878 13.6932 15.6375 14.0408C15.0045 12.7742 13.9625 11.7582 12.6804 11.1572C11.3982 10.5562 9.95081 10.4054 8.57228 10.7291C7.19375 11.0528 5.96476 11.8321 5.08411 12.941C4.20346 14.0499 3.72267 15.4234 3.71952 16.8394C3.71952 16.9411 3.71952 17.0487 3.71952 17.1504C2.71495 17.539 1.8779 18.2667 1.35327 19.2074C0.828637 20.1481 0.649463 21.2427 0.846764 22.3016C1.04407 23.3605 1.60542 24.317 2.43365 25.0057C3.26187 25.6943 4.30482 26.0717 5.38195 26.0724H20.8939C21.9638 26.0674 22.9988 25.6909 23.8219 25.0072C24.6449 24.3236 25.2049 23.3753 25.4062 22.3244C25.6075 21.2736 25.4375 20.1854 24.9253 19.246C24.4131 18.3067 23.5905 17.5743 22.5982 17.1743Z" fill="white"/>
<path opacity="0.6" d="M21.0135 9.92072H33.4398L21.0135 0V9.92072Z" fill="black"/>
<path d="M21.0135 9.92072H33.4398L21.0135 0V9.92072Z" fill="#6334FF"/>
<path d="M11.9061 19.6203C12.5369 19.6203 13.0483 19.1089 13.0483 18.4781C13.0483 17.8473 12.5369 17.3359 11.9061 17.3359C11.2753 17.3359 10.7639 17.8473 10.7639 18.4781C10.7639 19.1089 11.2753 19.6203 11.9061 19.6203Z" fill="#6334FA"/>
<path d="M12.235 18.8965H11.5712L10.7998 22.0838H13.0124L12.235 18.8965Z" fill="#6334FA"/>
<path d="M126.751 23.7046H38.8098V24.1112H126.751V23.7046Z" fill="url(#paint0_linear_1335_1431)"/>
</g>
<defs>
<linearGradient id="paint0_linear_1335_1431" x1="38.8098" y1="23.9079" x2="126.751" y2="23.9079" gradientUnits="userSpaceOnUse">
<stop stop-color="#6334FA" stop-opacity="0"/>
<stop offset="1" stop-color="#6334FA"/>
</linearGradient>
<clipPath id="clip0_1335_1431">
<rect width="126.751" height="31" fill="white"/>
</clipPath>
</defs>
</svg>
