<svg width="170" height="49" viewBox="0 0 170 49" fill="none" xmlns="http://www.w3.org/2000/svg">
<path d="M49.1912 28.1738C52.2347 28.1738 54.7894 27.1629 56.7835 25.14C58.7777 23.0835 59.7927 20.468 59.7927 17.26V5.44121C59.7927 4.04697 58.7777 3 57.3785 3C56.0839 3 54.9987 4.08054 54.9987 5.43992V17.4342C54.9987 21.1651 52.619 23.5715 49.2256 23.5715C45.8309 23.5715 43.4512 21.1651 43.4512 17.4342V5.44121C43.4512 4.04697 42.4706 3 41.0714 3C39.7769 3 38.6572 4.08054 38.6572 5.43992V17.26C38.6572 20.468 39.6377 23.0822 41.6319 25.14C43.6261 27.1629 46.1463 28.1738 49.1898 28.1738H49.1912ZM90.5358 28.1738C92.0795 28.1738 93.0057 27.0829 93.0057 25.5686C93.0057 25.3569 93.0057 25.1813 92.9712 25.0755L90.5014 7.22532C90.0906 4.40844 88.4767 3 86.2812 3C83.9134 3 82.4386 4.37358 81.8887 7.11817L78.9379 22.4716C78.9048 22.6472 78.8014 22.7169 78.6994 22.7169C78.5616 22.7169 78.4583 22.6472 78.4238 22.4716L75.4385 7.12075C74.89 4.37488 73.4139 3.00129 71.0129 3.00129C68.8161 3.00129 67.2035 4.40844 66.7928 7.22661L64.356 25.1116C64.3216 25.2175 64.3216 25.393 64.3216 25.6047C64.3216 27.048 65.2146 28.1751 66.7583 28.1751C67.9932 28.1751 68.9883 27.3656 69.0903 26.2386L71.0474 8.52919C71.0474 8.35233 71.115 8.28262 71.2528 8.28262C71.3561 8.28262 71.4582 8.35233 71.4926 8.49434L74.7522 24.408C75.5419 29.1962 81.7867 29.1962 82.5751 24.408L85.8002 8.49434C85.8346 8.21161 86.2467 8.21161 86.2467 8.49434L88.2369 26.2038C88.3734 27.3656 89.3009 28.1751 90.5358 28.1751V28.1738ZM98.3561 28.1738C99.2956 28.1738 100.199 27.5786 100.582 26.6336L102.495 20.996H112.2L114.113 26.6336C114.427 27.5786 115.332 28.1389 116.305 28.1389C117.696 28.1389 118.67 26.9835 118.67 25.6874C118.67 25.3724 118.636 25.0935 118.531 24.8831L111.992 6.39652C111.192 4.12055 109.627 3 107.365 3C105.278 3 103.574 4.15541 102.774 6.39523L96.1645 24.8818C96.0599 25.1271 96.0254 25.4072 96.0254 25.7235C96.0254 27.0184 96.9648 28.1738 98.3561 28.1738ZM111.123 16.3279H103.574L106.732 7.90049C106.847 7.58292 107.04 7.4422 107.386 7.4422C107.695 7.4422 107.887 7.58421 108.002 7.90049L111.123 16.3279ZM125.595 28.1738C126.947 28.1738 127.92 27.0842 127.92 25.677V15.3055C127.92 12.5983 127.886 10.6296 127.85 9.3993H127.92L137.428 25.9585C138.227 27.4005 139.407 28.104 140.9 28.104C142.947 28.104 144.336 26.4865 144.336 24.4119V5.46057C144.336 4.08957 143.329 3 141.976 3C140.691 3 139.616 4.08957 139.616 5.46057V15.7973C139.616 17.1696 139.65 19.0325 139.719 21.3523H139.65L130.383 5.14429C129.586 3.77329 128.475 3.06971 126.983 3.06971C124.727 3.06971 123.2 4.72214 123.2 7.07815V25.677C123.2 27.048 124.311 28.1738 125.595 28.1738ZM159.807 28.1738C162.73 28.1738 165.153 27.3437 167.077 25.6499C169.038 23.9549 170 21.8106 170 19.2171V17.3168C170 15.5185 168.753 14.1023 166.649 14.1023H161.981C160.661 14.1023 159.628 15.0705 159.628 16.3485C159.628 17.5595 160.697 18.5961 161.981 18.5961H165.188V19.4262C165.188 21.8816 163.192 23.7832 159.771 23.7832C156.456 23.7832 154.246 21.3975 153.855 17.9054C153.712 16.4867 153.712 15.0008 153.855 13.4439C154.247 9.8137 156.35 7.49642 159.771 7.49642C162.087 7.49642 163.799 8.46464 164.974 10.4011C165.51 11.1279 166.151 11.5074 166.935 11.5074C168.218 11.5074 169.287 10.4708 169.287 9.26117C169.287 8.74091 169.144 8.2568 168.895 7.87726C167.077 4.7996 163.905 3.00129 159.771 3.00129C156.812 3.00129 154.317 3.93466 152.322 5.80268C150.361 7.66941 149.221 10.0215 148.972 12.8565C148.829 14.6548 148.829 16.4867 148.972 18.3547C149.221 21.1561 150.326 23.5056 152.322 25.3737C154.317 27.2417 156.813 28.1751 159.807 28.1751V28.1738Z" fill="#2755A3"/>
<path d="M20.6133 0.425537H7.498C5.43444 0.425537 3.55871 1.23676 2.20195 2.54305C0.842722 3.84934 0 5.65315 0 7.6371V30.9567C0 32.5976 1.72004 32.301 2.80372 32.1969L2.85438 7.6371C2.85438 6.41046 3.37707 5.29411 4.21855 4.48411C5.06004 3.67534 6.22033 3.17292 7.49677 3.17292H20.6121C21.8873 3.17292 23.0488 3.67534 23.8903 4.48411C24.7318 5.29411 25.2545 6.41046 25.2545 7.6371L25.2569 26.8467C26.3604 26.8724 28.1101 27.1102 28.1101 25.5073V7.6371C28.1101 5.65193 27.2674 3.85057 25.9094 2.54305C24.5514 1.23676 22.6769 0.425537 20.6133 0.425537Z" fill="#2755A3"/>
<path d="M1.85072 34.7089C2.96281 34.6182 3.94517 35.3976 4.0502 36.4515C4.05143 36.476 4.22813 38.0629 5.20925 39.7968C5.86786 40.7894 6.97377 40.8593 7.60767 40.5517C8.51712 40.1105 8.69135 38.4011 8.70741 37.2896V22.5038C8.70741 21.3078 9.72807 20.3385 10.9884 20.3385C12.2488 20.3385 13.2707 21.3078 13.2707 22.5038V34.916H14.0183V27.1665C14.0183 25.984 15.0278 25.0269 16.2734 25.0269C17.5189 25.0269 18.5285 25.984 18.5285 27.1665V34.916H19.4849V29.1075C19.4849 28.0439 20.3931 27.1836 21.5138 27.1836C22.6346 27.1836 23.5428 28.0439 23.5428 29.1075V34.916H24.2175V32.1086C24.2175 31.0878 25.0886 30.2607 26.1636 30.2607C27.2386 30.2607 28.111 31.0878 28.111 32.1086V38.0053C28.111 38.2332 28.116 38.6768 28.0863 38.8704C27.1262 44.9497 21.1963 47.3674 19.1945 47.7351C17.4435 48.0561 15.7964 48.2167 14.2506 48.2167C10.6412 48.2167 7.60026 47.3405 5.17341 45.5955C0.534737 42.2611 0.0256439 37.0017 0.00710892 36.7799C-0.0855658 35.7236 0.738621 34.802 1.85072 34.7089ZM11.044 18.3472C12.7023 18.3472 14.0554 17.0054 14.0554 15.3596C14.0554 13.7151 12.7023 12.3733 11.0428 12.3733C9.38455 12.3733 8.0315 13.7151 8.0315 15.3609C8.0315 17.0054 9.38455 18.3472 11.044 18.3472Z" fill="#F47216"/>
<path d="M17.1115 6.39926C17.6416 6.39926 18.0716 5.95321 18.0716 5.403C18.0716 4.85401 17.6416 4.40796 17.1115 4.40796H8.99321C8.46187 4.40796 8.03186 4.85401 8.03186 5.40422C8.03186 5.95321 8.46311 6.39926 8.99321 6.39926H17.1115Z" fill="#2755A3"/>
<path d="M41.9039 44.1587C41.9039 44.4506 42.1625 44.7123 42.4624 44.7123C42.7831 44.7123 43.021 44.4707 43.021 44.1587V38.6632H44.8827C45.1827 38.6632 45.4516 38.4216 45.4516 38.1298C45.4516 37.8177 45.2034 37.5963 44.8827 37.5963H40.0318C39.7111 37.5963 39.4629 37.8177 39.4629 38.1298C39.4629 38.4216 39.7111 38.6632 40.0318 38.6632H41.9039V44.1587Z" fill="#2755A3"/>
<path d="M46.5519 44.1587C46.5519 44.4506 46.8104 44.7123 47.1104 44.7123C47.431 44.7123 47.6689 44.4707 47.6689 44.1587V41.6626H51.3408V44.1587C51.3408 44.4506 51.5993 44.7123 51.8993 44.7123C52.2199 44.7123 52.4578 44.4707 52.4578 44.1587V38.1197C52.4578 37.8077 52.2199 37.5661 51.8993 37.5661C51.5993 37.5661 51.3408 37.8278 51.3408 38.1197V40.6259H47.6689V38.1197C47.6689 37.8077 47.431 37.5661 47.1104 37.5661C46.8104 37.5661 46.5519 37.8077 46.5519 38.1197V44.1587Z" fill="#2755A3"/>
<path d="M55.188 37.5963C54.6501 37.5963 54.3295 37.9385 54.3295 38.4116V43.8467C54.3295 44.3197 54.6501 44.672 55.188 44.672H58.684C59.0046 44.672 59.2425 44.4304 59.2425 44.1386C59.2425 43.8567 58.9736 43.6051 58.684 43.6051H55.4465V41.6122H58.5702C58.8288 41.6122 59.0873 41.3807 59.0873 41.109C59.0873 40.8171 58.8598 40.6057 58.5702 40.6057H55.4465V38.6632H58.6529C58.9529 38.6632 59.2218 38.4116 59.2218 38.1197C59.2218 37.8278 58.9736 37.5963 58.6529 37.5963H55.188Z" fill="#2755A3"/>
<path d="M66.2472 40.5856C65.006 40.3541 64.6026 40.1025 64.6026 39.5489C64.6026 38.9551 65.0577 38.5223 66.0403 38.5223C66.5368 38.5223 67.0022 38.6431 67.447 38.8846C67.6125 38.9651 67.747 39.0054 67.8607 39.0054C68.1503 39.0054 68.3675 38.784 68.3675 38.5022C68.3675 38.3311 68.3055 38.1901 68.1917 38.0794C67.7263 37.6869 67.0022 37.4957 66.0403 37.4957C65.2853 37.4957 64.675 37.6869 64.1992 38.0593C63.7234 38.4317 63.4855 38.935 63.4855 39.559C63.4855 40.6963 64.2199 41.2801 65.9472 41.6022C66.5989 41.733 67.054 41.8639 67.3125 42.0148C67.5711 42.1658 67.7056 42.3772 67.7056 42.659C67.7056 43.3334 67.1264 43.746 66.1644 43.746C65.4714 43.746 64.8405 43.5548 64.2923 43.1723C64.1579 43.0717 64.0234 43.0213 63.8889 43.0213C63.5683 43.0213 63.3201 43.2528 63.3201 43.5749C63.3201 43.7561 63.4131 43.9171 63.6097 44.048C64.2923 44.5412 65.1301 44.7827 66.1127 44.7827C66.9505 44.7827 67.6021 44.5814 68.0883 44.1889C68.5744 43.7963 68.8226 43.283 68.8226 42.659C68.8226 41.4915 68.0986 40.9178 66.2472 40.5856Z" fill="#2755A3"/>
<path d="M71.3045 38.6632H73.0215C73.9317 38.6632 74.3971 39.1463 74.3971 39.9415C74.3971 40.797 73.9214 41.2197 72.9801 41.2197H71.3045V38.6632ZM73.0008 42.2866C73.7455 42.2866 74.3454 42.0752 74.8109 41.6525C75.2763 41.2298 75.5142 40.6561 75.5142 39.9314C75.5142 39.2268 75.2763 38.6632 74.8109 38.2405C74.3454 37.8077 73.7662 37.5963 73.0836 37.5963H71.0046C70.4978 37.5963 70.1978 37.9184 70.1978 38.3713V44.1587C70.1978 44.4506 70.446 44.7123 70.746 44.7123C71.0459 44.7123 71.3045 44.4506 71.3045 44.1587V42.2866H73.0008Z" fill="#2755A3"/>
<path d="M76.8742 44.1587C76.8742 44.4506 77.1328 44.7123 77.4327 44.7123C77.7534 44.7123 77.9912 44.4707 77.9912 44.1587V38.1197C77.9912 37.8077 77.7534 37.5661 77.4327 37.5661C77.1328 37.5661 76.8742 37.8278 76.8742 38.1197V44.1587Z" fill="#2755A3"/>
<path d="M82.0467 42.045C82.3053 42.045 82.4294 42.1356 82.6259 42.3671L84.436 44.5412C84.6428 44.7726 84.9841 44.7827 85.2324 44.5713C85.4392 44.3801 85.4599 44.0178 85.2634 43.8064L83.5878 41.8135C84.5704 41.6122 85.191 40.958 85.191 39.8207C85.191 39.1262 84.9635 38.5827 84.498 38.1901C84.0429 37.7976 83.474 37.5963 82.781 37.5963H80.671C80.1642 37.5963 79.8643 37.9285 79.8643 38.3814V44.1587C79.8643 44.4707 80.1125 44.7223 80.4124 44.7223C80.7124 44.7223 80.971 44.4707 80.971 44.1587V42.045H82.0467ZM80.971 38.6431H82.7086C83.6188 38.6431 84.0739 39.0356 84.0739 39.8307C84.0739 40.6259 83.5982 41.0184 82.6569 41.0184H80.971V38.6431Z" fill="#2755A3"/>
<path d="M86.8639 44.1587C86.8639 44.4506 87.1224 44.7123 87.4224 44.7123C87.743 44.7123 87.9809 44.4707 87.9809 44.1587V38.1197C87.9809 37.8077 87.743 37.5661 87.4224 37.5661C87.1224 37.5661 86.8639 37.8278 86.8639 38.1197V44.1587Z" fill="#2755A3"/>
<path d="M91.5088 44.1587C91.5088 44.4506 91.7674 44.7123 92.0674 44.7123C92.388 44.7123 92.6259 44.4707 92.6259 44.1587V38.6632H94.4877C94.7876 38.6632 95.0566 38.4216 95.0566 38.1298C95.0566 37.8177 94.8083 37.5963 94.4877 37.5963H89.6367C89.3161 37.5963 89.0678 37.8177 89.0678 38.1298C89.0678 38.4216 89.3161 38.6632 89.6367 38.6632H91.5088V44.1587Z" fill="#2755A3"/>
<path d="M98.8592 41.9444C98.9213 42.7596 99.2419 43.434 99.8315 43.9775C100.421 44.511 101.135 44.7827 101.973 44.7827C102.81 44.7827 103.534 44.511 104.124 43.9674C104.713 43.4239 105.044 42.7496 105.096 41.9444C105.148 41.4109 105.148 40.8674 105.096 40.334C105.044 39.5389 104.713 38.8645 104.124 38.321C103.534 37.7674 102.81 37.4957 101.973 37.4957C101.135 37.4957 100.421 37.7674 99.8315 38.3109C99.2419 38.8544 98.9213 39.5288 98.8592 40.334C98.8075 40.8674 98.8075 41.4009 98.8592 41.9444ZM103.989 41.8538C103.938 42.4074 103.731 42.8603 103.359 43.2126C102.986 43.5648 102.521 43.746 101.973 43.746C101.424 43.746 100.959 43.5648 100.587 43.2126C100.225 42.8603 100.018 42.4074 99.966 41.8538C99.9246 41.3707 99.9246 40.8876 99.966 40.4145C100.018 39.8609 100.225 39.408 100.597 39.0557C100.969 38.7035 101.424 38.5223 101.973 38.5223C102.521 38.5223 102.976 38.7035 103.348 39.0557C103.731 39.408 103.938 39.8609 103.989 40.4145C104.031 40.8876 104.031 41.3707 103.989 41.8538Z" fill="#2755A3"/>
<path d="M106.621 44.1587C106.621 44.4506 106.869 44.7123 107.169 44.7123C107.49 44.7123 107.738 44.4707 107.738 44.1587V41.8135H110.748C111.038 41.8135 111.296 41.572 111.296 41.2902C111.296 40.9983 111.048 40.7567 110.748 40.7567H107.738V38.6632H110.903C111.224 38.6632 111.483 38.4116 111.483 38.1197C111.483 37.8278 111.224 37.5963 110.903 37.5963H107.48C106.942 37.5963 106.621 37.9385 106.621 38.4116V44.1587Z" fill="#2755A3"/>
<path d="M117.46 38.0593C117.263 37.7372 116.974 37.5762 116.591 37.5762C116.064 37.5762 115.712 37.9687 115.712 38.482V44.1486C115.712 44.4405 115.96 44.7022 116.26 44.7022C116.581 44.7022 116.819 44.4606 116.819 44.1486V40.5454C116.819 40.1931 116.819 39.7905 116.788 39.3778C116.777 39.1664 116.777 39.0155 116.777 38.9249H116.808L120.066 44.2392C120.263 44.5512 120.542 44.7022 120.915 44.7022C121.421 44.7022 121.773 44.3097 121.773 43.8165V38.1197C121.773 37.8077 121.525 37.5661 121.225 37.5661C120.925 37.5661 120.666 37.8077 120.666 38.1197V41.733C120.666 42.1054 120.677 42.498 120.687 42.8905C120.697 43.0817 120.708 43.2226 120.708 43.3032H120.687L117.46 38.0593Z" fill="#2755A3"/>
<path d="M124.51 37.5963C123.972 37.5963 123.651 37.9385 123.651 38.4116V43.8467C123.651 44.3197 123.972 44.672 124.51 44.672H128.006C128.326 44.672 128.564 44.4304 128.564 44.1386C128.564 43.8567 128.295 43.6051 128.006 43.6051H124.768V41.6122H127.892C128.15 41.6122 128.409 41.3807 128.409 41.109C128.409 40.8171 128.181 40.6057 127.892 40.6057H124.768V38.6632H127.975C128.275 38.6632 128.543 38.4116 128.543 38.1197C128.543 37.8278 128.295 37.5963 127.975 37.5963H124.51Z" fill="#2755A3"/>
<path d="M129.617 38.1197C129.617 38.1801 129.617 38.2203 129.628 38.2505L130.931 43.9976C131.045 44.4908 131.428 44.7827 131.872 44.7827C132.296 44.7827 132.669 44.4908 132.793 44.0077L134.137 38.7538C134.148 38.7236 134.179 38.7236 134.189 38.7538L135.534 44.0178C135.761 45.0142 137.158 45.0343 137.354 44.0077L138.72 38.2505C138.73 38.2002 138.74 38.1499 138.74 38.1096C138.74 37.8177 138.523 37.5661 138.182 37.5661C137.923 37.5661 137.685 37.7372 137.633 38.019L136.485 43.6856C136.475 43.7259 136.434 43.7259 136.423 43.6856L135.089 38.3814C134.965 37.8681 134.572 37.5762 134.169 37.5762C133.744 37.5762 133.362 37.858 133.238 38.3814L131.903 43.6856C131.893 43.7158 131.852 43.7158 131.841 43.6856L130.704 37.9687C130.652 37.7372 130.414 37.5661 130.155 37.5661C129.814 37.5661 129.617 37.8278 129.617 38.1197Z" fill="#2755A3"/>
<path d="M142.782 44.1587C142.782 44.4506 143.04 44.7123 143.34 44.7123C143.661 44.7123 143.899 44.4707 143.899 44.1587V38.1197C143.899 37.8077 143.661 37.5661 143.34 37.5661C143.04 37.5661 142.782 37.8278 142.782 38.1197V44.1587Z" fill="#2755A3"/>
<path d="M147.52 38.0593C147.323 37.7372 147.034 37.5762 146.651 37.5762C146.124 37.5762 145.772 37.9687 145.772 38.482V44.1486C145.772 44.4405 146.02 44.7022 146.32 44.7022C146.641 44.7022 146.879 44.4606 146.879 44.1486V40.5454C146.879 40.1931 146.879 39.7905 146.848 39.3778C146.837 39.1664 146.837 39.0155 146.837 38.9249H146.868L150.126 44.2392C150.323 44.5512 150.602 44.7022 150.975 44.7022C151.481 44.7022 151.833 44.3097 151.833 43.8165V38.1197C151.833 37.8077 151.585 37.5661 151.285 37.5661C150.985 37.5661 150.726 37.8077 150.726 38.1197V41.733C150.726 42.1054 150.737 42.498 150.747 42.8905C150.757 43.0817 150.768 43.2226 150.768 43.3032H150.747L147.52 38.0593Z" fill="#2755A3"/>
<path d="M158.438 41.6223C158.366 42.8704 157.652 43.6051 156.235 43.6051H154.828V38.6632H156.235C157.631 38.6632 158.376 39.3376 158.448 40.6762C158.469 40.9278 158.469 41.2398 158.438 41.6223ZM156.224 44.672C157.269 44.672 158.076 44.4002 158.624 43.8567C159.183 43.3032 159.493 42.5785 159.555 41.6626C159.576 41.2902 159.576 40.9178 159.545 40.5655C159.431 38.7538 158.303 37.5963 156.224 37.5963H154.559C154.021 37.5963 153.711 37.9285 153.711 38.4116V43.8467C153.711 44.3298 154.021 44.672 154.559 44.672H156.224Z" fill="#2755A3"/>
<path d="M161.125 44.1587C161.125 44.4506 161.383 44.7123 161.683 44.7123C162.004 44.7123 162.242 44.4707 162.242 44.1587V38.1197C162.242 37.8077 162.004 37.5661 161.683 37.5661C161.383 37.5661 161.125 37.8278 161.125 38.1197V44.1587Z" fill="#2755A3"/>
<path d="M170 44.1285C170 44.0681 169.99 44.0077 169.969 43.9473L167.911 38.3512C167.694 37.7775 167.301 37.4856 166.711 37.4856C166.121 37.4856 165.718 37.7775 165.511 38.3512L163.443 43.9473C163.422 44.0077 163.412 44.0782 163.412 44.1486C163.412 44.4405 163.618 44.6921 163.949 44.6921C164.208 44.6921 164.373 44.5814 164.467 44.3499L165.149 42.4577H168.252L168.935 44.3399C169.028 44.5713 169.193 44.6921 169.452 44.6921C169.783 44.6921 170 44.4204 170 44.1285ZM166.494 38.7437C166.525 38.6431 166.597 38.5927 166.711 38.5927C166.814 38.5927 166.887 38.6431 166.918 38.7437L167.901 41.4713H165.501L166.494 38.7437Z" fill="#2755A3"/>
</svg>
